<mxfile host="app.diagrams.net" agent="Mozilla/5.0 (Windows NT 10.0; Win64; x64) AppleWebKit/537.36 (KHTML, like Gecko) Chrome/126.0.0.0 Safari/537.36" version="26.2.8">
  <diagram id="5FQEWcpR7ghvhGIJL4nT" name="Page-1">
    <mxGraphModel dx="1680" dy="924" grid="1" gridSize="10" guides="1" tooltips="1" connect="1" arrows="1" fold="1" page="1" pageScale="1" pageWidth="827" pageHeight="1169" math="0" shadow="0">
      <root>
        <mxCell id="0" />
        <mxCell id="1" parent="0" />
        <mxCell id="afE-ISjAWiAgDgSf9kAT-42" style="edgeStyle=orthogonalEdgeStyle;rounded=0;orthogonalLoop=1;jettySize=auto;html=1;exitX=1;exitY=0.5;exitDx=0;exitDy=0;entryX=0;entryY=0.5;entryDx=0;entryDy=0;strokeWidth=3;" edge="1" parent="1" source="afE-ISjAWiAgDgSf9kAT-36" target="afE-ISjAWiAgDgSf9kAT-38">
          <mxGeometry relative="1" as="geometry" />
        </mxCell>
        <mxCell id="afE-ISjAWiAgDgSf9kAT-36" value="" style="rounded=0;whiteSpace=wrap;html=1;shadow=0;dashed=1;dashPattern=8 8;" vertex="1" parent="1">
          <mxGeometry x="1090" y="138" width="200" height="174" as="geometry" />
        </mxCell>
        <mxCell id="afE-ISjAWiAgDgSf9kAT-28" style="edgeStyle=orthogonalEdgeStyle;rounded=0;orthogonalLoop=1;jettySize=auto;html=1;exitX=1;exitY=0.5;exitDx=0;exitDy=0;entryX=0;entryY=0.5;entryDx=0;entryDy=0;fontSize=14;strokeWidth=3;" edge="1" parent="1" source="afE-ISjAWiAgDgSf9kAT-1" target="afE-ISjAWiAgDgSf9kAT-9">
          <mxGeometry relative="1" as="geometry" />
        </mxCell>
        <mxCell id="afE-ISjAWiAgDgSf9kAT-1" value="" style="rounded=0;whiteSpace=wrap;html=1;shadow=0;dashed=1;dashPattern=8 8;" vertex="1" parent="1">
          <mxGeometry x="100" y="60" width="240" height="330" as="geometry" />
        </mxCell>
        <mxCell id="fMmDjLzEjKd0QYb8JvOY-1" value="" style="rounded=1;whiteSpace=wrap;html=1;" parent="1" vertex="1">
          <mxGeometry x="160" y="110" width="120" height="70" as="geometry" />
        </mxCell>
        <mxCell id="fMmDjLzEjKd0QYb8JvOY-3" value="" style="rounded=1;whiteSpace=wrap;html=1;" parent="1" vertex="1">
          <mxGeometry x="160" y="280" width="120" height="80" as="geometry" />
        </mxCell>
        <mxCell id="afE-ISjAWiAgDgSf9kAT-3" value="Data sources" style="text;html=1;align=center;verticalAlign=middle;whiteSpace=wrap;rounded=0;fontStyle=1;fontSize=18;" vertex="1" parent="1">
          <mxGeometry x="157.5" y="70" width="125" height="30" as="geometry" />
        </mxCell>
        <mxCell id="afE-ISjAWiAgDgSf9kAT-4" value="" style="shape=image;verticalLabelPosition=bottom;labelBackgroundColor=default;verticalAlign=top;aspect=fixed;imageAspect=0;image=data:image/png,iVBORw0KGgoAAAANSUhEUgAAAEAAAABACAYAAACqaXHeAAAACXBIWXMAAA7EAAAOxAGVKw4bAAAAGXRFWHRTb2Z0d2FyZQB3d3cuaW5rc2NhcGUub3Jnm+48GgAACf5JREFUeNrtW1lQW+cVvhLCYxvHdVo3dlI7jlMnqRsyMYFp+pDYTus4ZpGQxBIWY9ayCATYEJtNulpZhdhiwAhwwJLA7bQPaafJTNqH1pOH9qVNpw/u9KlLuuAu7tRxbCKknu+/V0KmAQ8e0FUCD2eu7n+v/v875z//d875772cyWTiNrJwmwa4zw28ied4nudMvIkzmni5wcQr6BiDYzRJEBMwmngBM7CvmQfwJJ0GC9dlsEa1ACO/Dh4gMxtNnNqpT04YLeITL5a2JA6XtkaVECZgA0ZgBeY18QDWCblTi8mwNfaK9gZ3NTXAfTclwH0vygSYCBswAqtprZaA0WTkYNFmsyFux1TmXxVuze1jg5VtJwd0DScGqhpPsKOUUtUILMAEbMAIrMAM7GvoAcZt26Yy5hRXtB8Z6dzRZosKTgAGYAEmYANGYF0zD0AnZooALWbD9u3TmX+PISs3Wlq/TFGBWNfI2FdKAQZgASZgA0ZgBeY1NoARBphTuLW3z1vavmjhTaFQI5XywRANLMAEbMAIrOtuACtvxhqTYfBO5oqRFwvLTYwyYIm4ATC4mazfaG2Ny3bUK0m0omSsswTHUWJss1QeAJLparNyL14sM3LfPxnZ0IixaMwX3ywzAAOwRNwAaLMazVxJZ2N8wmjxSMJwievISMlEJARjYUyMDQxmKTnARgCk4gCMLSkHiFFAFukCKTgWxpYsCiw1QJjErrOExpLUAIth0CxhGJR4CSDfrrM1707try5L7aupSumr0UVCMBbGxNjAsHHDII0tWRiE1S1k/ar2CweOvlluODpUYXl5qMJKYltnsWIsjImxLVJ5QHgYlKoS3AyD0RQGN5wBNpfAIgk+QYRklIAEjZKSYJRUg9KGwQ2dCH2uU2FhJzj4KMyoIKaNaTIbHto2nTEXtimqwDWS2FazcWuYbFtnCY2FscVNUUVwUxQYgRWYxU1buWkFY6w48x0GC9t27qZ1ho2H7VOZf4v2bXFgBFZgxrUO9qiMX50HkNVYeNP01p1KGC269MJw6ejzIyWTMeRiMo/mk+dGi6eobSxhpISkVGIpGQMWYAI2YARWYAZ2jbP2lBAuedkqDEDx3WDmHpnM+SV3lRh3RhngZkm8akFmldEp4fiAmbCTDr+ALtBpVRxgJXZ9fDz/Z3Kvap7W1sewLufR+CH4Lfdo5qNJluIDZmCHDtBlVRzAi0tg/0T+z7kZVYB17tUElhE2KLO8R+OTC0AC4rkf4Oi4EDzHUTRg6D7ZkvvofIHOF+joC+s7eMQ1jLPk2r24GGbCDh2gC7+aJRBmgGv3NcCiUr6Q+3nVdykk/YeOvpBrLirn42bS6T7W70exbu1Nal8Iu88fvI6xw8cIHdGO60Kb6PrLGuDa+hkgbOZx386prA+S+6sLyzvOH6YkZf93Ot6IPzZYod/i1nzIedMDMrcA6tHJnHezHHXJOvuFr9bbmveVdrzx3PGhipotbu1f6PrCtwYq8850nUtK6atOobFvcR41eZka//U/NpH3w7zus98gScJvtLFrkhhAdGfOqwrsvZzzDsXiHd2tVq6HhUgcrSxdJkMc2npF+wco95WJvLcpPnM9rTYKVTYWprrF+850NcRzs2nzJ/p15X0tds5O5IV+oaTcrbkDL0l11qj76Vob9bFjKus6DEsG8EnkAeS6JLFuzVyNvWl3R5uFa7C27EwcKTE+5SqYVjn1KsrTZVBG1atX4gWG3O6zL5HysnIyyiFXgffJ8fy305365HZSFop97VKhi2L570lBeWebJebkQFUxWx7kBbSs5vS2pt1oV/fqU8H05FU+yZYADT4PEPEjxYPtNJN4Tve0q2BsMXSmBXK7zr1Qb2868MpgZRU8oIyWBSkgp+Oz293a37E3TmjWaUmknOlsOPbMpcIR/K+os/Hr8KZqe9NeYvSb1J//oOu0B4wObIfGzryFNplbPS/wgBQGQPus0p/irMmBC9N63kWJyA0ZrUkyzl2aGXJd7T/peJsRFxnlpaGKOge5v4X6N1BoouXxzMl+Xemeybx3uKtpASwnKEaJjI0MxUrux12nf4AKMM1Zk45lRfzyJfa6DuMGkOuKUWBdSZCRX5aj/kRXq4XT00yTAf4rEKM6PDwGyBB3yDA+hUf9L02fPtkmpqsOxgVWzkYelN1Tf5yW0w1a1/646azrTea22B7yglcHdMVklLv11pYvwACn+nV5MKYcHrhMdIqQBxD5EJAMR92pbpotva35UVL03yJrM36QeygczqQvhkMcye33Xn79PWL76sKuhoQWswHv9slgjJeHKqoFb1H5sx11R53UVtZx/umDYwUjwITy97HJXMb+ovv7pTMAZmA2zX98sFJH7iprNhsUD01nfgA3liPk0VpWOvWpOgqLR0aLeuKmM69rHbVKWv+Jj1zO+Qnb2PCmL+yczvwthc4nwQ3FnY3PUxszLBHiCJZBM3mCrv38wyDKyvYL++Ue9a2QkaX0ACH+pgf2Tua+h10ZIih5Rm/ta7EeNeL5Jwcm8j3E5jGIAjk9Z79J+cCfsInZS7N6uqvhyFa35o9kLH+sR/Pn8vYLB4lHYgq6zyVRG2WBaj/yAooqcaju8D9EmaODlTXwImb8T2H/SBvALyQ3Sn9yX3UWWBtg9fbmPWWdjc+2mg0yxHKUqlSU/BQk92q/7jQIE65ca2veU9LdkHjW1rITpIj2hOGSTsw+ccnH8CCEUsoVFHj3j/qR7Z7MvQajMeMv4/4RTISEXABcIPem3/r2YGVRq8moAKlhlu1EbOeIsSk0urAsMGvkvv8gpVJgAOE+O6vbUa29MlBVRB51B4mNEGJV/icm8mdZzU/9Ucb4FF2fZ9yzgvIR9YBQSozfdO+uqexfx48WjyUNlzkpVs+QG3/ISC28eKFz4oD3qW4fTrpY1n14rHB811TWr4T7xOjB+lajsrt90FXw48OXin708Fuv/0bI/DQLKykfYQ8QlfKyMnRBKGSCNboqcE+hFCxoQgVP2H10zv6/2N9ioYPrrMZPD6xUAa6ZAdiOEK3d/eMoh5XobP4+Fg/NGCeUsazcFWv0BbH9npmFR3z6fcyrgvcFxPreF3bPfZUXDcCyVOggbIjwq98Q2Tee977Mq/KhEAnV5ouAok7C8THMhB06rHpDBIQE9t43kfeukNeH1d/hLjmrihJR/j8+YCbs0MH+IFtiyMF1lHRQXM/M6qnLUPfW5m+5or0Jy1JyU5ztqM+kDDArU2IBBmABJmADRmAFZmAnHfZZjA+4LQ7yQL2O+IxOgtviBt4o7xFreakeigQFGIAFmILb4sAKzLgmEuADPxiRGSiTW+bBSFS+Lb7kwUgMI78HeTCy+br85gcTm5/MbH409Zn9bI5fw8/mPnsfTlrX5cNJtgw29Kezm1+Pf07lf2BjVCVhiYe6AAAAAElFTkSuQmCC;" vertex="1" parent="1">
          <mxGeometry x="187" y="112" width="66" height="66" as="geometry" />
        </mxCell>
        <mxCell id="afE-ISjAWiAgDgSf9kAT-6" value="" style="shape=image;verticalLabelPosition=bottom;labelBackgroundColor=default;verticalAlign=top;aspect=fixed;imageAspect=0;image=data:image/png,iVBORw0KGgoAAAANSUhEUgAAAgAAAAIACAYAAAD0eNT6AAAACXBIWXMAAA7DAAAOwwHHb6hkAAAAGXRFWHRTb2Z0d2FyZQB3d3cuaW5rc2NhcGUub3Jnm+48GgAAIABJREFUeJzs3XmYXEW9//F39SzZwy77vigGSKa7Z0IgICiyrwrBjVXF9aLXDb3XDa8L4kV/uINXjSAqiWyyiSBhDUnmdE8CBBBMAiggsoQsZMIsXb8/akYnYTJrV9Xp7s/rec6TEGaqvudMz6k6daq+ZRARSZc64A09xw49f24PbNfz922ALXq+dnLP108AGoExwPie//cKYIFuYHXPv60FXgJe7vmz7/E34CngaaDD18mJpIWJHYCI1KwtgDcC+/b82fv3PYCGiHFZ4DngSVyH4HHgYeAhYBnQFS0ykTJSB0BEQngDcCAwvefP/Xr+rdK8BjyC6xAsBhYARWB9zKBERkIdABEpt3qgiX83+DNwT/XVqgPXCVgAPADcDzwTNSKRIVAHQETKYVvgKOB44O3A5nHDiW45cEfPcRv/noMgkhrqAIjISIwBZgJH9xz7xQ0n1dYD9+E6AtfiOgciIiIVowE4Dvg1sAY3WU7H8I8C8AVg7+FdfhERkXAywCHAj4EXid94VtuxBPgisMtQfyAiIiI+vRm4GLcMLnYjWQtHN+4VwSzc6xUREZFg6oF3AncCJeI3irV6vAhcCuw/8I9LRERkdN4AXIBLfBO78dOx4XEfcBou26GIiEhZtABX4ZLbxG7odAx8/AX4KC7lsYiIyIgcjHvfHLtR0zH842Xg68BWr/upioiIbMLBwI3Eb8R0jP5Yg5snsC0iIiKbMBM1/NV6rAEuArZERESkRw64i/iNlA7/xyu45EJjERGRmrUDcBlu29rYDZOOsMffgDNRmncRkZoyDrecbxXxGyIdcY9FuFc/IiJSxQzwbpS1T8eGRwm3b4MmCoqIVKF9gLuJ39joSO/xEnAuei0gIlIV6oFPAGuJ38DoqIzjHmBfRESkYh0AtBK/QdFReUc7bvfBBqTmaUhIpHI0Av+NW+5VCzfwVcAzwHPAsxsdL+BGPzp7/uwAXu3zJ8AWPX82ABNxu+xt1efYGrcPwk7Abj1HrbwvbwXeBzweOxCJRx0AkcpwAC5v/36xA/HgZeBh4BHgIeDRnj9fjBDLOGB33NyK/XHXfSqwJ5CJEI9PrwKfxi0ZFRGRFPowbug29vBxOY4OYD7wbeB4YPsyXiefJgAzgE8B1+BGJWJfy3IdN+JGQkREJCU2A+YQv4EYzbEOuAP4CnA4ML6sVyiuvYCzcCMzLxD/Wo/meB44sryXR0RERqIZWEb8hmEkx4vAbOAUqqvBH0gGmA58FViIW4Mf++cw3KML+BJ6NSwiEoXBLe97jfgNwnCOFbh3ySdQGxMUB7MT7ud4H5XXGbgZbS4kIhLUeGAu8RuAoR6rgcuBA31cjCqyGy5F8yPE/5kN9VgGTPNwLUREZCM7UBlr+0vAvcDZuIlxMjwzgV/h5kbE/lkOdqzDpZgWERFPssDfiX/DH+hYiZu5v4+na1BrNgc+jluHH/tnO1iH74ueroGISE17B+lO5/sP3MS2zT2df63L4OZN3E78n/VAx2xcIioRESmDLwDdxL+593csxQ3z66YfznTg96R30uCd/Du7ooiIjEAdbvJc7Bt6f0cr7olUS8HimQpcTzo7Ao8Au/o7dRGR6lWHmwQW+0a+8fEUcB7Vl+62kh2ASwSVto7AU2guiIjIsIwF/kD8G3jf4wXcenUN9afXW4Ai8T8rfY/ncHsliIjIICYAfyL+jbv3WAdchCb3VYoMcCbp2oNgJW5/BBER2YQtgAeIf8PuPW7FJaeRyjMZuBi3qVLsz5HFJYM6zOcJi4hUqq2BNuLfqC1uSZ8Su1SHqaQncdSruNcUIiLSYxLpuEmXgCtwnRGpHhncxM01xP+MrQUO8Xu6IiKVYSwwj/g35r+gp7NqtztujX7sz9pKoMnzuYqIpFodLqFL7BvyFcBEz+cq6dC7i+R64n7mXgD283yuIiKplAGuJO5N+BXgXb5PVFIpCzxK3M/fs7hRCRGRmvJD4t58FwB7eD9LSbPxwM+I+zl8FNjS94mKiKTFl4l3w+3Gretv8H6WUinOBdqJ95m8BzcXRkSkqr2DeClb1wAn+z9FqUBNwHLidQLmoPTSqaUNP6Tc6oGdcIlmdu35c2tcxrnNgc16/pzQz/eu7jlW9fnzH7jc473HM0Cnx/hHIgvcixt6De0p4ETgwQh1S2XYCvgt8PZI9V8CfCZS3SLiya64xufLwDXAMlzj7POJogt4HJgLfLGn/t08n+dAtgOeJs7T1XxgW/+nKFWgHriMeCMBZ/k/RRHxxeCW93wct8Ttn8S7mfR3PIt7yvkI8GZP12BjY4mX4vdKYIz/U5Qq8znivKpqB5oDnJ+IlMlk3HKyq0lfgz/Y8TwwGzgFf0PzV0Q4rxLw357OR2rDacSZHPg3NGIlkmrbAB8EbiF+UpFyHeuAG4BzcJ2acvh0hPPoxo1wiIzWIbg5NqE/w/eglSoiqVIHHAdcS3p2GfN1vIp7cj+ckU+CbYlwnbrQe1Qpr2bgRcL/Dl4a4uREZGC7A9/EzayP3TDHOJbjJhJuM4xrNhk32TFknB24YVuRctsPeI6wn+cSbvKuiESQA36He6qM3Qin4VgH/BTYZwjX7qrAsbUDxw8hLpGR2pvwK1lexC0XFpEADHA0cAfxG9y0Ht24uQIHbuIanh04nnXA2zYRi0g57U34kYC7cK8fRcSjGbjJN7Eb2Eo6bgem9bmGe+GSE4WqvwuXXVAklDfiEm+F/D37cpAzE6lB+wM3Eb8xrdSjGzdh8E1AIWC9JTThT+LIAisJ91nvxE2qFZEy2Rn4Fa4Bi92I6hj+8enX/0hFgjkI9/op1Of9YZTUSmTUMsB5hB2q1lHe45uv+6mKhHcCYScJ63MvMgpTgYXEb8B0jPz4GdqgS9Ljk4T77HeiVMEiwzYO+BbVn8Cn2o95uA1bRNLkUsL9DuhVgMgwTMH90sRuvHSM7niK4SUjEgmljrATibXPhcgQnAmsJX7jpWN0RzuQRyS9JgGPEOb3YR0uQ6mI9GMy8BviN1w6ynOcg0j6vYlwmwddG+icRCrKAYTPQ6/D3/FdRCrH6YT73Tgm0DmJVIRj0PK+ajruQpP+pPJ8jzC/H08AYwOdk0iqnYdbJhO70dJRnuMVYFdEKs8YoI0wvyefCXROIqlUB1xE/AZLR3mP9yJSufYFXsX/78lKYMtA51STlHQkvRpxW/aeEjuQEXoV+GvPsQK309gLPcdKXJaxjp6v2wJ3vhOAiT1/7gzshntS3rXn7+MCxu/LHNy7VJFK9mHgJwHquRi4IEA9IqkxhsraxGcdcCfwbeBU/CzjqQP2w82a/zHQSuUlP/o7eqKR6nED/n9n2nEPAyI1YRxwG/Ebq8GOxbj83W8j3mSd8cCJwGW4xjX2NRnoKAFv93MZRKLYHngZ/787vwx1QiIxTQD+TPzGalNHEfg8sJevCzAKBmgCLsRl1ot9rTY+fujv1EWieT/+f3e6gH1CnZBIDGNww+ixG6qNj5eBHwDT/J162WWAI4GrgfXEv4bPAZt5PWOROAxwB/5/h34Z6oREQsvgJvzFbqj6Ho/jlh9W+sS7rYD/Av5JvGt5hvezFIlnD/ynJe/ATQQWqTrfJX6D33sUgHfiOiXVZALwKeAZwl7Pe9BqG6l+X8D/71KIVQciQX2K+I2+xaUYfjfV31iNBT5GmBGBTlz6ZpFqNxb/acrXAzuGOiER304Duonb8P8TOB+3Dr+WbAF8H78ZFr8X7GxE4jsZ//er7wQ7GxGP3gysIV7DXwJ+gWsIa9n+wDzKf32fxe3cKFJLbsfvfetl3Os8kYo1CXiUeI3/Ctwsefm3cynfZksltJuZ1Kb9cMv2fN6/PhzsbETKzABzidPwl4Af4dLtyuvtCTzA6K+ztvmVWnYFfu9jS6n+uUpSpT5DnMZ/NcpBPxT1uNzjI00z/AOqbwWFyHDsBryG3/uZsmpKxckSJ3/9gyiT1nA145ZEDvUav4SGJkV6XYbfe9oN4U5FZPTG4Bri0I3/Vbic+TJ8dbhUp/fiXp/0d32X47Zs3ipSjCJptBNuIx9f97VOYLtgZyMySt8gfON/MXpXVi47AkcBHwA+ilvyNDVqRCLp9kP83t8+G+5UREYu9NB/CfhckDMTEenf7vjNs/FYuFMRGZkxuFmroRr/DlxGPxGR2K7G7/3uwHCnIjJ8IXJk9x5dwKwwpyUiMqg8fu95l4U7FZHh2ZFw2f5KuPfTIiJp4nOb85epvTTmUiF+TbjG/6OBzklEZDjegd/7n7KaSurMYNNLx8p9fDnQOYmIDFc9bm8MX/e/y8OdisjgDLCIMI3/XLTUT0TS7ev4uwf+E9fJEEmFUwjT+C9GO2OJSPrtgt9Ngt4W7lRENs0wvBSyo+n17hbmlERERu1W/N0PfxjwPEQ26QTCPP0fH+qERETK4D34ux8uD3geIpu0EP+N/0+CnY2ISHlMANbi7764V7hTEXm9o/Hf+D+O3vuLSGWag79748cDnofI6/wJv41/F0p9KSKVy2dOgJsCnofIBvbG/7r/HwQ7GxGR8hsLrMLP/XEtbu8VkeAuwW/j/xLac15EKp/P1wCHBDyPipeJHUCVGAec5bmOL+A6ASIilexWj2Uf7LFskX6dhd+n/wLqrIlIddgOf69Lbwx4HiIA3I3fDsBR4U5FRMS7BH+vSpUaXYLZDujGX+O/INypiIgE8TX83TPfHPA8KpqGlUfvNPxex695LFtEJIY/eyz7II9li2zgXvz1ZBM0nCUi1WccsB4/980fBTwPqWE74Hf4/7RwpyIiEtT9+Llv3h/yJCqZXgGMzin4u4bPA9d7KltEJLZ7PZV7AGrbhkQXaXR8zs7/BdDpsXwRkZju81TuRGBPT2WLAFAPvIKfIaxuYI9wpyIiEtxW+Ht9emrA86hYGgEYuTywmaey70T7W4tIdXsJ+Lunsvf3VG5VUQdg5N7msey5HssWEUmLJZ7K3ctTuVVFHYCRe6unckvAHzyVLSKSJg96KldzAMSbemAdft5d+ZoYIyKSNqfj5z6qjdOGQCMAI/NGXCILH67zVK6ISNr4GgHYEtjCU9lVQx2AkZnqsezbPJYtIpImy3GvPX3QPIBBqAMwMtM8lbsSeMRT2SIiafMa8Iynsnf1VG7VUAdgZHx1AO7HX29YRCSNVngqd3tP5VaN+tgBVChfrwDmeyq35jQVizvUdXefbo05FJcadBtgLPAy8KSx9oHuurqb2pqa5mGMOl19TF+wYKeu+vp3AscCe+NupGMDVL0SeLXneNYa87ix9nFj7aNd9fUPLG5qeiVADNHkW1v3s8a8AzgS9/T6Btw1+Qdwv7H2+iSf/3MVfl6XA4d6KHc7D2VWFe00N3yb434pfXgLcI+nsmtCy8KFu5cymW9ZY97J0Dq4y421X03y+V9jjPUdX5rlkmRr4MvAh4DGyOFsrBtYDNxlrL0pyefvqZaGcFpb296ZUulbxtp3MPg9+SFrzOeKudwfQ8QWyJfws+35L4D3eyi3aqgDMHxTcTciH7bCPaHKCOSS5D+AixnZ0+q9pUzmXW3Z7LNlDqsi5Ftbm6wxNwA7x45liJ4GrjLW/ippbv5L7GBGKt/aeqw15rfA5GF+6/f3WL78U3Nnzer2EVdg5wI/91DuLcBxHsqtGpoDMHy7eCr3n6jxHxlrM7kk+T/g+4x8qPqQTKlUzCVJzaUQzSXJdGvMvVRO4w/u9/AL1phHcklyXfOiRc2xAxqufGvrGdaYGxl+4w9w/vI99rgCa6vhIe4FT+XqFcAg1AEYvp08lfuYp3KrXj5Jvk95hvq2BW7PFgo1s3yoqVjcAbgWmBA7lhHKACeXMplFuSS5rXnRoimxAxqKbKFwoDXmZ4zuHvyebLH4hXLFFNGLnsqdhnul+hm0JLBf6gAMn68RAHUARiDf2nqqNeZjZSxyW2Pt1VOWLk3bO3AvjLWXADvEjqNMjixlMotzSXLp9AULRvJUHYa1GWPtT4Exoy3KWPvVaW1te5chqph8jQBkgEOA7wBPAMuAS4GZqO0DdBFGwtcw6V89lVu19n/wwS2sMZd7KDo7tr39Ux7KTZXmRYumGWtnxY6jzOqB87vq6x/OFgqHxA6mP/kkeR/lW0nUkCmVfEygC8nXCMDG9gDOB+7FzSH5JjW+7bo6AMO3uadyffWCq1ZjR8cn8Zfu8zOpfoosA2vMWVTvPWBnY+28fGvrV0+bM6cudjB99Vz3sjHWnlLhn9VVQFfgOncEvoAbGbgdmEX6Vr54V62//D5N9FSuNq8Yhr2eeGIMUM6h/41t1VVff7bH8qOzxhwfOwbP6qwxX1m25543Tlm61Nfv7bDkkmQz3LB0OY3prqs7ssxlhmSB9ZHqzgBHAFcDfwf+lxqaL6AOwPD5upGEGgarCpNXrz4Jt2zSp7M9lx/NYfPmjaVGbnTG2mPGrVs374AlS94QO5ZMqbQP0FDuckuZTEVMfhxArA5AX9sAnwb+AtwIZOOG4586AMOnDkAKZEqlcwJU09RULPrc+CmaVzbfvKaWSFlj8g2dnfdPX7DA1yqeocbhKz1tpae9TUMHoFcGOB5IcB2Blrjh+KMOwPD5Wi611lO5VWfq4sU7WmPeHqKuuu7us0PUE1p9V1cqhsQD26urvv7OmCMB1hgv191YO8lHuQG1xw6gHwbXEViISyp0UNxwyk8dgKHbBTgZ7TEdXV1391lAkIld1pgzeuYbSHXYu76r66aD77uv0hvMapOmEYD+HIPbrG0OVbTLoDoA/RsPvBX4KnAbbob+U8B1VG7ClKphrD0jYHVbTV69+tiA9Ylnxtrm18aMmV0lWfSqxarYAQzRacCjwIW4dqKiqQPgGCCP25TiPtxmP38GvoLbmWvrQDHIIHrWdr8pcLVnB65PPLPGvCNbLH4idhzyL/+IHcAwjMNtmvUY8C4q+N5dyx2ABtywzs+B54BW3I5UBxNnPWjFfohCCjT5bwPG2mObFy2qqUlztcBYe3G2UDgwdhwCQFvsAEZgZ+C3wN3AGyPHMiK11gEwuC13L8M1+rfgdqLaNmZQPULst17RDliyZII15tQIVdeXMpn3RKhX/Gow1s7WHI9UqOTtjQ8BisB/UGEPcrXSAdgeuAB4HLgLOA//a8iHa5vYAaRdY0fH6UCsyVvnRqpX/HrjZqtWVX3a5wpQBB6IHcQojMftRnovsGfkWIas2jsAM3CzNp8GLiLdiU/UARiENSb48H8fU5qKxXzE+sWfL05ra9stdhDC/8QOoAwOBgpAWdM9+1KNHYAMcCquNzkfN2uzPmpEQ6MOwAB6djw7OGYM1ZoTQBhf1939xdhBCLcCP4sdRBlsBszGbbO9WdxQBlZNHYAMbkbmg8BcoNIm96gDMIC67u5ziPx+zRrzbr0vrlpnahQgFT6B25ynGpwCLALeHDuQTamWDsA7gYdxMzIrNSd2LWZmGxprM8D7YocBbLnZqlUnxg5CvGio6+6+IHYQQjtwInBV7EDKZB9gAS6JXOpUwtD4QGbgdm+qhhSNlf6z8CafJEdZY3aOHQf8ax7C3NhxpNhfC/n83sP9pilLlzZOXLPmDZ0NDTtlSqU3W2NOBN5O2GQrZxx8332fu3/mzDUB65TXW4/r8N8AfB3XiFaySbjXAV/HJZcrRY2mj0ptdHYELsHt4VxRyy4GsC52AGkVefLfBoy1R01fsGCnhQce+PfYsaTUiH4fl06Z0oHbjvXvuCemX+SSZDzwEdy+7SFW7UxoHzfuVOCXAeqSwc0FrsHlazkaOAyXBKwS2y2DSzTXhOvcpCLzYaW9AmjAbdf4GHA61dP4g5u7IBuZMX/+lrghwbTIdNXXvzd2EClWtt/JQj6/rpDPX4JbVvWTcpU7iIqYvV1DSsDNuDX2+wOTcbvzfRi4AlgRL7QROR6XOCgNuWcqqgPQjFsr+r9U3/vyEi4ToWyko7HxfUDaJt6dqzzym1T261LI51cV8vmPWmPOxfOmMcbaQ5X1MdXacffKy3CdtT1wGfnOA24i/ZsKAUzF5QuIvqlQJXQAGnBJfO4H9osciy+3AM/GDiKlUjP838c+2WJxeuwgak0xl/ulNeZkoMtjNaaUybzVY/lSfn/HLR88AegdMbycdO8vsDduqfr+MYNIewdgf1xShYtwHYFqdWnsANIoWygcAEyLHUd/YuxJUCG8jowUc7nbjLUf9lkHbidQqUztwI3Ah4CdcEPuN5GiiXd9bA/cCeRiBZDmDsCHgYVE7iEF8CvgjthBpJGx9gOxY9gUa8y7eiapyYa8vxpJmpt/DvzGYxWHeyxbwunGzR84ATeP5FvA81Ejer2tcZ2AQ2NUnsYOwGbA73GTfsZFjsW3pcAnYweRRlOWLm0E3h07jgFMJqVre2tBV33954BXPRW/+5SlS6ttnlGtexL4L2AX3H2lEDWaDU3GdVSaQ1ectg7APrj3Iu+MHUgAbbgnjVdiB5JGY9vbT8L1jtPs7NgBpFCQyZFLpk17Bvihp+LN2Pb2Sl97Lv3rAH4H5HF5JhbHDedfJuJSIQfNGpimDsBxuCH/fWMH4lkXbteoQ4EXIseSWmla+z+At+WSZJfYQaRMsNURxtpfeyz+TR7LlnS4A/f+fRbwRORYwOW6+BOwW6gK09IB+BzwB2Dz2IF49E/g/+GWgHwCWBs3nPSaunjxjsbaI2PHMQQZ4MzYQaRMsA5A0tz8MC4niA/Rl2hJECVcwqEpuImDL8UNhx2BPxJob5jYGZXqgR/gJvxVsteAp/ocz+M+SC/jlvf9BfgbYGMFWEnqurvPAupixzFE52LtNzBGP9s47sTP0/okD2VKenXilg5eB3yXuHuPvBH3OuBwwGta6pgdgPHAHNzQfyV5GTdPoRW3AdFDwDLcjFMpA2PtGbFjGIbds8XizKJL7CHhs3M+7qNQY+1kH+VK6r0AnAH8GjcRffdIceRw7ePxeGxbYnUAJuPWZh4Sqf7hWIV7yvgTLoXjY+hJ3ptsoXAI1lba+9ezUQegV+gOgJdJtNYYjQDUtttwiecuBP6TOCOSRwPfBj7jq4IYcwC2xE2+SHPj/xzwY1xCkK2BdwA/BR5Fjb9XlZhgx1g7S8vGovGVIKzTU7lSOdYBnwWOIF5WwU/jRiS8CN0B2BL3NB18veMQtOOGfd6GyyD1MWAeftOOSh8HLFkywRpzauw4RmDi2Pb2Wli6OhRBRwCsMW/wUa6xVlsCS6+7gCxuBDiGy3vqL7uQHYDNcMMqUwPWORRP4Haa2h7X07qTdKaNrHr1XV2z8Dv5armvgitk2WIIoV8BeMkUao1RB0D6eg43EvBtwo8CjwWuxr06L6tQHYCJuA1v8oHqG4r7gJNwM4h/SEr2Z65lxlqfjegCY+03fRVurD00lyR7+iq/ggTrAExZurTRWHuUj7KNtSt9lCsVrQv4PK7dCN1e7IUbCSirEB2ABuAa4KAAdQ3F3bhh/kNwuQf0tJ8C09ra9gZm+irfGvPL9vHjr8Zf/gWDcgIENW7duiOALXyUXcpk0pAYRtLpRuAwws8LOB237XHZ+O4AGFyvJQ1JXR7FbQpxGG6YX1KkvqvrbPw9PbaXMpk5S6dMWQtc66kOgLOwNi3JtWIJNgJgjfmIr7JLmcxffJUtVWEx7qE2dEfxe7ithMvC983qQuLnS38Z12vaH7f0UNLG2ow1xttMV2vM7xc3NfUuF5vtqx5g12yxeJjH8itBkA5AtlB4K26NtA8dm7/yygpPZUv1WIFL6R5yP4HxwC8oU9vtswPwXuBLHssfimtxKR5/hhL1pFY+SY4CdvZVvrH2l71/L+Ryd+ESN/lytseyK4H3DsABS5ZMMNb+wGMVbXcdfrhW/8hQ/AM3qhxyhcBM4FPlKMhXByCPa3RjeR44DberYKz1mzJEnmfQP1nI5f79y2mM9bmJjLH21GltbdW8p0Vc1mYaOjt/jcdd04y1f/ZVtlSlVcCxwP0B6/wfyvAqwEcHYDtcPuVxHsoeiitxT/2/j1S/DMOM+fO3BE70WMUvMWaDiZ5d9fWz8Tf5c1xdd3cl5jIoF38jANZm8knyfeBkb3UA3XV1miMkw7UON8fswUD1jQV+NNpCyt0ByOAa4J3KXO5QrAfOwc3Ejr2jkwxRR2Pje4Exnoq3mX6e9hc3NT2J3yG7sz2WnXZeOgD7P/jgFtli8SZrzMd8lN/H2s1WrQr5JCfVYyXwdjztT9GPt+NWBoxYuTsAX8IlSwhtBTADvxO8xA9vw//WmD+3Njf3m/zHWDvbV73AwbkkqbT9DNLJWpNvbT21saOjYKw9JkCN19x1+OHrA9Qj1emfuNcBoV49f49RJAgqZwfgLcSZ9PcnXGrhkDMxpQxySbI/0OSr/L6T/zbW0dh4DbDaY92VtKNhOZVlBGD6ggWTs4XC6dlicaE1Zi7hdmX7VaB6pHotw23kEyKb5PbAF0b6zeXaDXBzXB79kDsmWVxaxi+iGf6V6gMey14FXL+p//ng1Kmv5pJkLvB+H5VbY846bc6cL8+dNavWPpsNza2tG4wCdmcyk421A94brDGNxtptrTE7GWundMFhxtpGv6G+zoYTRkVGbgnu/nZ1gLo+idu6+OnhfmO5OgCXEva9v8Wd9PcD1illNGXp0kba29/jsYrfFPL5dYN8zWw8dQCAHZftuecRuP0vasnEkjG39/0HYwdPnd77NUP5Wl+MtZdsPGFUZBTm4F5Nf9JzPWOBbzCCXQPL8QrgJMKmQO3G3bTV+Fewse3tJ+G2WvYiUyptcvi/VyGfvw94zFcM1PZkwErzj4bOzp/HDkKqzucIszzwvYxgx8DRdgA2B346yjKGowt4HzDozV3SzfPa/6WtLS2tQ/lCzzkBTt7/wQe95KqX8jLWXvzAQQe1x45Dqk4nbqb+857rMcBXhvtNo+0AfAO37j+E13DJfX4XqD7xZOrixTsaa33uD/EkPkGwAAAgAElEQVSLoX5hZ0PDbPzNIRnb2NHxLk9lS/k8MXHt2p/EDkKq1jO4J3Tf77dOYJijAKPpADQDHx7F9w9HNzCLASZ1SeWo7+o6E38TRrsypdJvhvrFS6ZNewbwmfntbI9lSxmUMpmPaOmfePZnPGznuxEDfHk43zDSDkAG+PEovn+4Ponbuleqg885Ize1trQMaw2u55wALT3LHSWdrmrLZpX6V0K4ADca4NOJuI3vhmSkDfiZuHz/IXwX+GGgusSzXJLMBLwlyRlo7f+mTFy79jpcFi8vajgnQNo9Xdfd/YnYQUjNWAV8yHMdhmGsOhhJB2Ac8LURfN9I3ISbRSlVwvPkv+etMbcO95t6hn+9rde1xpyZS5IGX+XLiHSWMpl3LZo+XWnDJaSbgbme63gvQ5ybN5IOwGfwuHVrHwtx7/1rLZFK1erZxvU0X+Uba68o5POdI/z22eWMZSPbWmOO8li+DN/5bdnsA7GDkJr0H3gcccTtrfKRoXzhcDsAm1OmfYgHsRI341/LcqpIfVfXLGCSr/K76+pmj/R7C/n8QuCh8kXzOmd7LFuG5+uFfD7k8mWRvp4HvuW5jg8Bg446DrcD8BlcJ8C3DwF/C1CPBGSs9Tn8v6Atm31kNAVYY64sVzAbM9ae0FQsbuOrfBkaY+3lhXw+xp4lIn39APi7x/K3BY4f7IuG0wHYCjd04dtl+H9HIoE1t7buAcz0Vb41ZtTJoRo6O6/AJZvyoTFTKr3bU9kyND/bfcWKj8YOQgS3ff3XPdfxwcG+YDgdgE8wim0Hh+gxwrxikMCsS9/sZa94oL2UycwZbSELDzzwefzm7j/bY9kysG8X8vnzanBzJkmvXwBPeCz/KGCXgb5gqB2A8YDvnvNrwHuAwTZwkUpjbcYa420pnLH2msVNTa+UqazZ5ShnE5qaisWpHsuX12u3xpxTyOc/HzsQkY10MoL0vcOQwa0IGPALhuJs3CsAn74FtHmuQyLIFotH4nHlSCmTKdveEO3jx/8BeLFc5W2srrv7bF9ly+s8VspkZhRzudmxAxHZhKuBUc1dGsTpA/3PoXQAMsB/lieWTXoKuNhzHRKJ58l/Txaz2bvKVdjSKVM6gN+Wq7yNWWPO2OuJJ8b4Kl8AKAE/7WxoyLdls0tiByMygBJ+E91NZYDEa/VDKOAoYK+yhdO/z6Ilf1Vpxvz5W3a4LaN9WZ9Pkp/QOqTN/4bEwq5lK+z1tpq8evWxwHUe66hlxVIm83Gt8ZcKciVwEf7m2L0L+Gp//2MoHYBBZxKO0jw0679qdTQ2vheXmMKXN1ljvKUW9uRs1AEotyesMd8sZrNXYEwpdjAiw7AWl4jsfE/ln8QmOgCDvQLYjiGsJRyFboaRt1gqks/h/4pkrD22edGiUNtoV7s2a8y79li+fN9iLjdbjb9UqB/iXgf4MI1NjGoONgJwNkPIJjQKlwMPeixfIurZBa8pdhwpVF/KZN6D2+hKhu9Z4PfA3EI+fx9AMW48IqP1BG7L4Ld7Kv9oXI6dDQw2AvAeP7EAbtnfNzyWL/F9IHYAKXZu7AAqyGrgFuCzpUymeY/ly3cp5POf6G38RarE/3ksu9+R/IFGAPZnGPsKj8DP8b83skQyZenSRtrblflu06Y0FYv5tmw2iR1Ima21xizY6N9WGWsHHd401q60xqwF1hprn7XGPN5VX//4kmnTNrhPaK2wVKlbcJPhx3ko+zBce79BptOBOgDv8hBEry7g2x7Ll8jGrVt3ojVGue8H0JMToNo6AE8Wczlfw5gi1WwtcDtwooeyJwJZYFHffxzoFcAsD0H0uhZ42mP5Epk1RpP/BmGNebdyAohIH9d6LPstG//DpjoA++J37f/3PZYtkTUVizvg8kfIwLbcbNUqH719EalMN+JSBPsw5A6Az6V/bcD9HsuXyDKl0llAXew4KoFGSkSkj5eBuz2VfeDG/xCjA/ALj2VLOpwZO4BKYaw9avqCBTvFjkNEUuMmT+VuBeze9x/66wBMBGZ4CqAD+J2nsiUFckkykwFyT8vrZLrq6wfcsUtEaorPEfJ83//orwMwE3/Jf27E405rEp+GtEfkXKw1sYMQkVRYAqzzVHau73/01wE4zFPFoJz/Ve2AJUsmGGtPix1HBdonWyxOjx2EiKRCJxst1yujDXL7hOwArMclOpAqVd/VdRowKXYclShTKmnkRER6+drNct++/7FxB2AM/nK33wGs8VS2pIAasZGzxrwrlyTjY8chIqkw31O5u9In0+DGHYCpQKOnim/zVK6kQMvChbtbYw6JHUcFmwycHDsIEUmFjdNpl0sG2Kfvf/SVx58/eSxbIuuqr38/oIlso6AJlCLS40VcTgAf9uz9y8YdgBx+PAU87qlsic3ajLFWa/9HyVj71lyS7BI7DhFJheWeyt259y8bdwB87f6nzH9VLFssHkmfD5WMWAYlURIRx1cH4F+Jx/p2AAzwRk8V+nqfISlgrNXQdfkoJ4CIACzzVG6/IwA74iYi+bDQU7kS2Yz587fEz/aVtWr3bLE4M3YQIhKdrxGAHXr/Ut/nH/ft5wvLoRt4yFPZEtlrY8a821g71lPxJeA/rTHrPZU/YsbaL9FnKK2cepZT3uujbBGpGL5GALbo/UvfDsCunipbBrR7KlsiM9ae67HseUlzcyq3js4WCrsYa//bR9nWmFlTli49f+mUKWt9lC8iFeEZT+X+qwPQ9xWAr0lcD3sqVyLLJcn+QNZX+aVM5pe+yh6t+q6unwPWU/ETxra3v9NT2SJSGVZ6KrffDoCvLUmf8FSuxPd+j2WvMtZe57H8UVk0ffoK4D6PVZztsWwRSb9X8POQMZ6ehH8hRgCe8lSuRDRl6dJG4D0eq/htIZ/3tSNWWRhrZ3ss/i25JNlz8C8TkSrVib9dAcfAhh2AbTxV9KSnciWicevWnYi/zwzG2tQO//dqHz9+DuDrPb1BOQFEal2Hp3IbYMMOwBab+MLRetZTuRKR57S1S5PmZl/bYZZNzyS9az1WcRbW9rdjp4jUhtc8lfu6EQBfHYAXPZUrkeSSZDPgSI9VpP7pv5fnkYpdc4VCs8fyRSTdOj2Vu8EIQD3+9nH3taGBRGKNeSsbLiEtp65MqXSVp7LLLsnn78bfel2MtUf4KltEUq/OU7ld8O8OwDj87OS2HuUAqDrGWp9PpTe3trT8w2P55WWMtcZc6at4a4xGAERq1xhP5b4G/+4ANHiqRI1/FbLGbOmr7EqY/Lcxa8xsXNZCH7xdaxFJvYruAPh6fyERZUqlRk9FP2+NucVT2d60ZbNPAXd5Kt7LDaC7rm6Nj3KtMat9lFstrDFerjug6159DOArzXoH+O8A+FrCIHE97ancKwv5fEV2Gj3mBPCSR6NjzJjn8JBkxFirVT8DsMY856loX+VKPJPwM9eqm406ACLD8ZiPQjOl0mwf5YZgjbkGP09hXq710ilTOvAzefERD2VWjUyp9AQeRkaNtbru1cdXnpV/Tczv7QD4elL39f5CIrLG3Er516cubG1pWVrmMoPpyVo4x0PR13sos9cfPJR5g4cyq0Yhn19ljbm7zMW+Nua1124rc5kS31aeyn2p9y+9HQBfyQZ8vSuWiAr5/CrKf6O/pMzlBWeN+QHlHVZfWsjni2UsbwOZUulKyjt58eFCLtdWxvKq1a/KXN6198+c6WtugcSzradyX9cB8DUCMM5TuRJZd13dFynf5+bBQi53TZnKiqaYyz1ojSlbZkBj7WfLVVZ/WltaFgNXl6s8Y+0FGONrh8SqUcxmfwOUq6PUaY35cpnKknTZ3VO5/Y4A+PjFbQQmeihXIlvc1PQE8PUyFNVurD0bY3wtowuqrrv745Qn++Vvk+bmW8tQzoBKmcxnKE+67quS5uaKW8ERhTElY+2HcXlSRutLxVzur2UoR9LHVwfgn71/6e0AlIBVnirb2lO5Elkhl/u6sfbXoyii2xrzwaS5uWqGjVtbWv5RymROBF4daRnWmPmT1qw5t4xhbVJbNvussfYURhEvsKCxo+OD5YqpFiTNzYusMR9gFK9grDFXFnK5i8sYlqSLrw7Ak71/6bsKwFfOfl8TGSQ2Y+zEtWvPMdZ+h+GPIK21xpxczOUqJu3vULVlsw9YY44AnhnBt88d195+9F2HH16Op8Mh6WmMDmJkO3feVN/VddQDBx2kpF/DVMzlrjLWHs/IHr6+v+eyZefolUtV29dTuU/2/qVv+t8HgAM9VHYSfmYbS4pkC4WjjbXfALKDfKkF5pYymc/1JNCpWrkk2Rr4H+ADDL6e90lrzNeK2ezsWDf1loULt+quq/sS8BEGn8D7tLH2S0k+f6UaodHJJcmewDeB0xg8JftiY+3nkubm2/1HJhFNwC0r9rFU/yBce7/Bh+0m4DgPlX0SuNRDuZI21pp8khxhjTkOOAzYHtgMeMEas8xYe4exdm7S3PyXqHEGlkuS7Y21ZwCHW2Om4kbF1uPevS+wxvzRWHttWpIgTV+wYKeu+vp34O4HewI7AutwyWYK1pgbJq9efUvIUYpa0FQsvjlTKr0Dt9PmbrhZ4CuB56wx99WVSje05vN3Vst8GRlQC7DQU9nbA6/bb+VnuKezch//z9NJiIiIVKPz8NMer6bPg3/f4YUnPZ3IXp7KFRERqUYHeSr3IfrM1+rbAfD1PnZ/T+WKiIhUo5meyn2w73/07QCs8FThLsAWnsoWERGpJtvh5t748HDf/+jbAVjuqUKAAzyWLSIiUi3e5rHsTY4APEefFIFlNsNTuSIiItXkaE/ldgKFvv+w8RrDhzxV7GtCg4iISLXI4JaB+tCGW867QWV9PYgfBzF4ggsREZFa1gy8wVPZ92/8D6FGALYCpnkqW0REpBqc7rHs+wb7gqn4ST5ggf8u66mIiIhUDwM8jZ/2t4TLLDmgOtzGFD4CGLT3ISIiUqMOxt8D+AaT/3pt/AqgG1hQxhPq60CG0AMRERGpQed4LPuP/f1jfzsNvW6iQJnUAe/0VLaIiEilmgjM8lj+rUP9wsPwNwxxVxlOREREpJp8EH/t7koG3478XxpxOwb5CKQblxpYREREnMX46wBcsalK+3sF0AH8uQwntKn6zvVUtoiISKU5ErcCz5erh/sNvvYitsDfcPMBREREat2f8Dv83zjcgHbGrRv0FdRJww1IRESkyuTw29b+YqSBPeAxqHtGGpSIiEiVuAl/7awFjhhpYJ/0HNiBIw1MRESkwjXj9+l/Of3P8xuSnXCz9n0Fd+1IAxMREalwf8bvQ/ao0+/f4zG4EpAdbYAiIiIV5iT8Nv6dwA6jDfIcz0HeNNoARUREKsgY4K/4bVuvL0egE/C3OVDvcWg5AhUREakAn8dvm2qBt5Qr2J94DrQN5QUQEZHqtzuwFr9t6qJyBtzkOVgLvL+cAYuIiKSMwf/EP4uHTYV8Tga0wD+BrcsdtIiISEr43PCn91iGhxF13zMWLQNsWCAiIlLB9sTfJnt9Dy977WSAxwIEf7SP4EVERCJpAFrx334+wTC2/R2uDwU4gWfQqwAREake38F/22mB9/k8iTHAUwFO4jqfJyEiIhLIqfhN99t7PEKA1XQfCHAiFviI7xMRERHxaF/CvPe3wPEhTqgB/xmMLLAemB7ihERERMpsa+BxwjT+fwx0ToB7zxDipP4GvCHQOYmIiJTDWOA+wrSTncCbw5yWk8FlGgpxcvfjLqaIiEjaZYCrCdM+WuDSMKe1oRmEmdhggTmMYk9jERGRAAz+U+f3PZ4FNg9yZv24aggBluu4JNA5iYiIjESo5X69x8lhTqt/OxFuhqMFvhLmtERERIblG4Rt/H8f5rQG9h+EPenPhDktERGRQRnce/iQ7eDLwPYhTm4wGWA+YU/+C0HOTEREZNPqgV8Qtv2zwOkhTm6o3gS0E/YCXBTkzERERF5vInAj4Rv/2QHObdg+T/gLcTkeNz4QERHpx45AG+HbvGXApADnN2wZYB7hL8gfSekFERGRqjMTt/wudFv3GinPjrszbnJC6AvzELB3gPMTEZHadT7QQfg2zgIfDXB+o3YacS7OSuCEAOcnIiK1ZQtcQroYbZslpe/9N+W7xLlIJeBioNH/KYqISA14C/A08Rr/IjDO+1mWUT1wF/EuWAG3MkFERGQkJuAeZruJ15Y9C+zi+0R92Bb4O/Eu3Ku4pEFaJSAiIsNxFLCCeO2XBdYCOd8n6lMOdxIxL2ICNPk+URERqXi7Evddf+/RBRzv+VyDOB53MrEv5k+BbTyfq4iIVJ6JwP8A64jf+FvgI35PN6yPEf+CWtxKgc8C4/2eroiIVIBxwKeBfxK/feo9Pu/1jCP5JvEvbO/xHG4TozFez1hERNJoEvCfxEnoM9DxDZ8nHdv3iX+BN+4I/Bewpc+TFhGRVNgBt4/MSuK3Pxsfl3o871QwwM+Jf6E3PtYCPway/k5dREQiqAOOA64DOonf3vR3/C+ufax6dcAVxL/gmzoS3JyFbX1dABER8a4Z+A7wN+K3KwMdX/F1AdIqg5uVH/vCD3R0AXcAH6JCEzGIiNSQMcDbcI3+MuK3IYMdJeBTXq5EBTDAJcT/IQz1eBg3THMisLWH6yEiIkPXCByES/h2I/FzzgzneA14X/kvyfDFfu/wReBrKYhjOCzwGC7l8EPAg8AjuMyHpYhxiYhUGwNsD+wDTAEO6DmmAWMjxjVSK4F34NLlR5eGhve9uMmBlb4srwO3acRTwPPAi8BLuJ7p2p6vWY3LLS0iUuvG8O+8LJNx+fe36jm2wb1+3Y3Kbxt6rQCOxT1ApkIaOgDghnJuQMPrIiJSfe4CTsclHUqNTOwAeswHDgaWxg5ERESkTCzwLeAIUtb4Q3pGAHpNBP4P11MSERGpVKuAc3A5CFKpLnYAG+kAfo97V/5W0hefiIjIYO4HjgQWxA5kIGl5BbCx7+HmBTweOxAREZEh6gK+DRwOPBk3lMGl+Qn7WWA2sB3QFDcUERGRAT0KnIxrtypiSXhaRwB6rQXej1s3+VzkWERERDbWAVyIe1BN9ZD/xtI8AtDXY7hcAVvjLnLaJi+KiEjtmQ8cD8ylAnO8pH0EoK9XgA/i8j3/JXIsIiJSu54FzgJmUsHL1ytlBKCvJ4HLcKl3Z/DvTFIiIiI+dQA/At4JLIocy6hVYgcA3ASLAm6yxWRcXuhKGs0QEZHK0QX8CjgV+B1uQ5+KVy3v0ncDvoCbMFipnRoREUmXEnANbuO6qluWXi0dgF5vBr6C66VpREBEREaiA/gN8B3cbq9Vqdo6AL32AD4BfADNERARkaFZjXu1/B3cPLOqVq0dgF5bAx8BzgN2ihyLiIikUwH4Ge6pf03kWIKp9g5ArzrgGNyIwHFAfdxwREQksldwDf7/AW2RY4miVjoAfe0AzOo5DqQ2r4GISC1aA/wBuBr4E1Uym3+kar3x2xU4DTgJ1xnQyICISHV5BvgjcHPPn+1xw0mPWu8A9LU58HbgaOAIYJe44YiIyAisweXkvwPX4D8YN5z0Ugdg03bGpXk8qOfYD2iMGpGIiPTVDSwDiri8/PfhGvyKy8sfgzoAQ1cPvBHYHzgA2AfYHZeEaMt4YYmIVL1VwIqeYzlubf6DuDz8GtIfIXUAymMz3CuDrYFtev7cCpgAjOHfuQgmM4RMhZsfeuixprFxQrmDXL1w4S3da9a8Wu5yQ9viiCNO81HuyjvumOuj3NB0fQam67NpdZMmTZg8ffqx5S7XdnS8+so999yy0T+/Bqzr+fsqXNa9tcCLwAvASz3H34GV5Y5J1AFIpVySLMeNLpRVXXf3HoumT19R7nJDyyWJ9VFuIZ+vit8HXZ+B6fpsWsvChbt319Ut91D0ikI+v4eHcmUUlC5XRESkBqkDICIiUoPUARAREalB6gCIiIjUIHUAREREapA6ACIiIjVIHQAREZEapA6AiIhIDVIHQEREpAapAyAiIlKD1AEQERGpQeoAiIiI1CB1AERERGqQOgAiIiI1SB0AERGRGqQOgIiISA1SB0BERKQGqQMgIiJSg9QBEBERqUHqAIiIiNQgdQBERERqkDoAIiIiNUgdABERkRqkDoBUlFySbB07BpH+6LMplUYdAKkYM+bPH2eNuSF2HCL9scbccsCSJRNixyEyVOoASEU4bc6cuo7GxquMtQfFjkWkP8ba5obOzqsPmzevPnYsIkOhDoBUhBW7734pcErsOEQGcdyaSZN+EjsIkaFQB0BSL5ckX7bGfMxzNdZz+ZIevn/WH8glyZc91yEyauoASKrlW1vfD1wYoKqVAeqQdFgVoI4Lc0ny0QD1iIyYOgCSWrkkOc4a89NA1T0XqB6JL9TP+tJckhwXqC6RYVMHQFKpedGiZuB3QKgJVQ8Eqkcis8aE+lnXA3ObisUZgeoTGRZ1ACR1prW17V3KZG4GJoaq0xpzS6i6JK5MqRTyZz0uUyrdMK2tbe+AdYoMiToAKdOycOE+wBax44ilqVjcpq67+2Zgm4DVLp+8evWNAeuTiHZfseJ64K8Bq9ymrrv7tuZFi7YLWGfabNFzb5MUUQcgRfKtrSd219UtBDaPHUsMU5YunZgplW4Fgj4tWWO+fNfhh3eFrFPimTtrVrex9muBq93dGnPjlKVLg41qpczm3XV1SS5JTosdiPybOgApcNi8efW5JLnIGnM9Ndr455KkYdy6dXOBXOCq5xRzuasC1ymRJc3NVxprfx2yTmtMfmx7+w1Tli5tDFlvikwC5uRbWy/LJUlD7GBEHYDomorFbdZOnPhH4ALAxI4nCmsN8DNrzNGBay6sHzfu/YHrlJRoHz/+I0AhcLVvHdveflnPZ74mWWPOA/7cVCzuEDuWWqcOQETZQuGQTKm0xBrzttixxJQrFL4BnBW42hWZUun4pVOmrA1cr6TE0ilT1pYymWOAJwJXfXa2WPyfwHWmzSGZUmlxc2vrEbEDqWXqAMRgrckWCp811t4JbB+q2o7GxtRlu8u3tn4I+ELgal801h7T2tLyj8D1Ssq0ZbMvAMcAz4es11j737kkOT9knUMR+B6xTcmYW7OFwmdreUQkJnUAAjv4vvsm5QqFq421FxNujTsAE1599aWQ9Q0mWyicYI35UeBq2zOl0klJc/NfAtcrKVXI55dlSqUTgNCjQd/Lt7a+M3CdA4pwj6g31l6cT5IbprW11eT8p5jUAQgoWyjsu37s2IVAjJmwL98/c+aaCPX2K5ck0421vwPqAlbbDbyntaVlfsA6pQK0trS0GmtPB0KuBslYY36dS5KZAescUM894pXQ9VpjTqjr7m7NFgoHhK67lqkDEEi+tfVMY20C7BsphKWR6n2dbKGwL3ALMD5w1ecX8vnrA9cpFSJpbr7FWPvhwNWOBW7o+Z1Ii1j3ir2MtQ/kW1vPjFR/zVEHwLO9nnhiTC5JLrXG/IrwDV5fv4tY9780FYs7GGtvBbYMXPVXCvn8jwPXKRUmaW7+uTXmq4Gr3dJY+6fmRYt2Dlzvplwdse7x1phfZQuFK2bMnz8uYhw1QR0Aj5qKxV03f+WV+4DYk33agTmRY2D6ggWTM6XSzcCugav+v0I+Hzrxi1SoYi53obE29NyUnUqZzC1peA9eymR+h7tnRGOsPaOzoeGepmIx9L2ipqgD4Em2UHhrplRaZI3Jx47FWPvVQj7/YswYcknS0FVf/3tgWuCqb560Zs1HAtcpFW73FSs+AVwXuNr96rq7r9vriSfGBK53Az0rI6IvU7TG5DOlUiHf2npM7FiqlToA5WZtJpckFxprbwfeEDscY20yce3a70YNwlpjjfk58Pag1RrT2tnQcLrS/MpwzZ01q7uxo+O91pjQE0YPm7x69WysjXpvnrRmzXcInySpP1tZY27KJcmFsa9JNdLayzJqWbhwq1Im8+sIGe02ZUkpk3l7T48+mlySXAJ8KnC1yzobGg56cOrUfwauN7pcknhZy13I52vuftGycOFW3XV19wNvDFz1/xby+c8GrnMDTcXiNplS6XZgasw4+phX39X17oUHHhg0Z0M1U4+qTPKtrS3ddXXFtDT+xtoH6rq735aCxv+jhG/8X+iuqzumFht/Ka9F06e/VNfdfQwQOmnUZ/Ktrf8ZuM4NtGWzL9R1d7/NWPtAzDj6OLyrvn5RvrW1JXYg1UIdgDLIFgrnWWPuBXaJHQuAsfby9vHjD1s0fXrUxD/51taTgB8ErnYNcPTipqbQ6V2lSi2aPn0FcBzusxWMNeZ/862tJ4asc2OLpk9/aeLatYcC344ZRx+7WGPuzyXJBbEDqQY1N6RXTjPmzx/32pgxPzTWnhs7lh5rjbUfTJqboy/5a160aOdSJtMGbBWw2k5rzAnFXO62gHWmjl4B+JEtFN5qrL0FCDlJb2V3XV12cVPTkwHr7FcuSU4GZgObRQ6l1286GxrOe3Dq1FdjB1KpNAIwQtPa2vbuaGxcmKLG/3Fj7Yw0NP4ApUzmEsI2/tYac16tN/7iTzGXu9NYew4QMl/+FplS6VsB69ukQj5/vbF2OvBw7Fh6vKehszNpXrRoSuxAKpU6ACOQb209qa67exGwf+xYelwPtCTNzan4xcwlyZuA0DnO/6uYy80OXKfUmKS5+bfAf4Ws01g7K9/aGnoSYr+S5ua/rB83boY1JhUPGsCbSpnMA9lCYVbsQCqROgDDcNi8efW5JLnIGnMdED1hBy5v+ecL+fwphXx+Vexg+jiNsJ+tnxby+YsC1ic1rOezdmnAKjPAqQHrG9DSKVPWFnO5d1tjPgR0xI4HmGSsvTrf2npZLkkaYgdTSdQBGKIDlix5w5pJk24DLiAdcyeeMdYeVsjn0zI5p69g6/2NtdfusXz5x0PVJwKwx/LlnzbWXhuqvlImEzSHxlAUc7nLS5nMwcBTsWMBsMacB9zZVCzuEDuWSqEOwBA0FYuHNnR2LgbeGpdUOREAABUkSURBVDsWAGvM3ZlSKZ80N98fO5ZN2DNQPQutMWfMnTWrO1B9IoBLFDRx7dr3AveGqM9YG+p3aljastkEyAN/ih1Lj5mZUmlxc2vrEbEDqQTqAAzEWpNLkk9kSqU7gO1jh4ObfPT9yatXH9Ha0hJ6XfJwbBOgjkcaOzqOLeTz6wLUJfI6dx1++PrGjo6TgUcCVBc9q+imFPL5F/dYvvxYY+2FQCl2PMA2JWP+mG9t/aqyBw4sDUPZqTR9wYLJXfX1Pyc9795WG2vPTZqbr4kdyGB8LUPr49lSJnNQWzabiqHHtNEywLCmLl68Y31X1wOA1938KuH655LkOOBKYIvYsQAYa298bcyYsx464ICVsWNJI/WO+tFULE7tqq8vkJ7GfzGQrYTGP4DVmVLpODX+khZLpk17JlMqHQPUfCNTyOdvxm34tSh2LADWmBMaOzramhctao4dSxqpA7CRbKHwvkypNB/YK3YsANaYK4GDC/n8stixpECHsfbU1paWxbEDEemrtaVlaaZUOgV4LXYssRXy+acnrVnzFmPt5bFj6bFrKZO5J5ckH4gdSNqoA9BjryeeGJNLkkuNtVcC42PHA6wHPlnM5c7Ue27HWHtW0tx8e+w4RPrT2tJyt7H27NhxpMFdhx++Pmlu/pCx9iwgDfevscDPsoXCFTPmzx8XO5i0UAcAl7Z2s1Wr7gbOjx1Lj6eNtW8p5PMh1xqnXlqyHIpsij6jG0qam6/IlEoHA6kYwTTWntHR2Hh/c2vrHrFjSYOa7wDkW1uPLWUyi4HpsWPpcXNHY+O0pLk5Fe/QRERGo7WlZXF9V1fWGpOWOUxNJWPasoXCKbEDia12OwBuid8F1pgbgS1jhwN0G2svLORyJ2rGqohUk4UHHri6mM2eBnwSl8E0tsnG2mtySXLRaXPm1MUOJpaa7ADkkmTrXKFwK3AR6bgGLwLHJs3NX8WYNKyjFREpL2NsIZ+/NFMqHQGkIY+JAS5Yvsced0xfsGDb2MHEkIbGL6hsoZADWoGjYscCYKxNSplMvpDPpyWTloiIN60tLXd31dfngbRkMj2sq74+aSoWZ8QOJLSa6gBkC4XzjLXzgd1ixwJgrL28ffz4g7WmXURqyZJp056ZtGbNYUBa9jLZKVMq3ZNLkgtiBxJSfewAQpgxf/64zoaGH1m3l3carDXWflAzhkWkVt11+OFdwOdzSbIAmA1sFjci6oGLckkydf24cectnTJlbeR4vKv6EYBckmzf0di4yBqTlsb/UWtMixp/EREo5PPXW2NmAI/GjqXHu8e2tz+QS5I07P/iVVV3AJoXLdoZuBvYL3YsPa4HZhRzubR80EVEoivmco+uHzeuxRqTlgej/YC7py9YsFPsQHyq2g7AYfPm1ZcymRuAvWPHAnQA5xfy+VMK+fyq2MGIiKTN0ilT1hZzuXfjErJ1xI4H2Lurvv76w+bNq9pX5VXbAVg7ceKngKbYcQDPZEqlwwv5/A9iByIiknaFfP4HpUzmYODJ2LEAuTWTJn0ydhC+VGUH4IAlSyZYY74UOw5rzB2lTKaptaVlfuxYREQqRVs2m5QymRZrzB2xYwG+fMCSJRNiB+FDVXYA6ru6TgEmRgzBAt/ec9myo9uy2RcixiEiUpHastkXitnskcDngZgJ0iY1dHaeFLF+b6ry3Yax9p0Rq19pjTmzmMvdVIgYhIhIxTPGFuDb2UJhqbH2CmCLKGG4NuU3Mer2qSpHAIB9ItXbBjQXc7mbItUvIlJ1eu6p04Aom6RZY9IwmbzsqrUDEHzphjXmSmBmIZ9PxbaXIiLVpJDPP71qs80OBb4fofpdI9TpXVW+AgAmB6xrvTXm/GIu97OAdYqI1Jy/7r33a8An8q2tiTXmp8D4QFWHbFOCqdYRgFCezpRKh6rxFxEJJ2luvjJTKh0MaMR1FKp1BCCEmzoaG8986IADVsYOJLWspX3ZMtY98gjrn36a9U89xWt/+xuldevoWruW0rp1YAyZceOonzSJzLhxjNllF8busgtjd92V8W9+M+P22AOMiX0mIsOnz79XrS0ti6cvWJDtbGj4ReSJ3xVLHYDh6zbWfj3J57+GMTGXpqTVZi/ecAOrFyxgTaFA18svD/oN3Z2ddK9eDUD7X/+6wf+r33JLJuXzbHbggeA2C1EmRUkzff4DWnjggaux9rRcoXA+8B2gIXZMlaQqu5a5JLGein7RWPuepLn5dk/lVyoDHA2cBZwEjPVUTztwA27nsD/h8i3IRnx9/gv5fFXeL8pAn/8UaCoWD82USlcD2/kovxo//5oDMAxd9fXT1PhvIAOcALQCtwCn4+/mBzAOeBfwR2AJcCZQ57E+kYHo858ibdnsPV319fnYcVQSdQCGYcm0ac/EjiFFjgIeAf4A5CLUvz/wK+Ah4IgI9Utt0+c/hXSPHh51AGS4dgCuwD2FvDFyLAD7ArcDNwK7RI5Fqp8+/1I11AGQ4TgJeBg4I3Yg/Tge9zR0WuxApGrp8y9VRR0AGYoxwKXAdUTKxT1Ek4E5wGVAY+RYpHro8y9VSR0AGczmuBnH51M5q0bOA27DLZsSGQ19/qVqqQMgA9kOmAccGjuQETgMuA/YMXIcUrn0+Zeqpg6AbMr2wL24Hbgq1X64G/i2sQORiqPPv1Q9dQCkP5OBm4G9YgdSBnvjZklvHjsQqRj6/EtNUAdANjYGt6SoKXYgZbQ/cC2aGCWD0+dfaoY6ALKxS6jMd56DORy4KHYQknr6/EvNUAdA+joB+GjsIP5/e/cWY1dVx3H8e6ZDYcz0+lBaLoNpae0FJbHqowZmppWEWihg8KVcXhFEE1JMhJD4QFrACqiJDyYN4So1gCVG7AX1EYZraekUStIiaXmgF2mHS2GOD+scOO3uUM/M/q+1zv7/PslKTJD/Xnut3+ws9tl7bUO3Alem7oRkS/kXV7QAkKbzCDucdcqrTuNRA/5E2M1NpJXyL+5oASBN6/HxoNAM4N7UnZDsKP/ijhYAArAMuDp1JyL6CdCfuhOSDeVfXNICQCYBD6TuRAIPoPyL8i+OKQByDXl81Sy2xcCq1J2Q5JR/cUsLAN9qwC9TdyKhX1Hth77kqyn/yr9rWgD49kPgW6k7kdDFhN9/xSflX/l3TQsA366LfLxhYC0wACwCehttETAIrAN2R+5T7DGQfCj/yr9r3ak7IMlMA34U6VhDwBpg2xj/fFejbWn8//oJF8qlEfp2BWEsjkQ4luRD+Q+Uf8d0B8Cvq4Ae42McB34KfI+xL36nshX4LuEb7J8Z9KtVD+EiKL4o/4Hy75gWAH4tN65/qHGM3wP1cfz7deBBwu+0h0vs16lYj4XkR/n/kvLvlBYAPtWAHxjWP07YWOX5EmptBVYCn5ZQayz96GloT5T/Eyn/TmkB4NNFwNmG9X9Oe7c8T+ffwG0l1jvZLMJ70eKD8n8i5d8pLQB8+o5h7SHgDwZ1HwReMqjbFOOBK8mD8l+k/DukBYBPCwxrr2F8v3meTh243aBuk8fd4LxS/ouUf4e0APBpoVHdXZR76/NkW7B7T1oXQD+U/yLl3yEtAHyaa1T3GaO6MY4xz6iu5Ef5L1L+HdICwKdpRnW3GNVttdmortWYSH6U/yLl3yEtAHyaYlR3r1HdVvuM6lqNieRH+S9S/h3SAsCnXqO6+43qtnrPqK4ugH4o/0XKv0NaAEiZYmwmosxKrpR/6SgKk09HjerOMarb6hyjuh8a1ZX8KP9Fyr9DWgD4ZPXH3mdUN8YxdAH0Q/kvUv4d0gLAJ6tPfw4a1Y1xDH0O1Q/lv0j5d0gLAJ/2GNVdZVS31Uqjum8b1ZX8KP9Fyr9DWgD4NGxU90LCl8WsLAPmG9W22mFN8qP8Fyn/DmkB4JPVBRDgPmxy1QXcbVC3aZdhbcmL8l+k/DukBYBPQ4a1LwZuMqh7C/Btg7pNll9ak7wo/0XKv0NaAPi0A3jfsP5vKPdW6ABwT4n1TvY+8KZhfcmL8n8i5d8pLQB8qgP/NKzfDWyknIvgIPBko6aVrdh8wlXypPyfSPl3SgsAv54zrj8d+Dvh1uV4ctYF3Ar8rVHLkvVYSH6U/y8p/05pAeDXX4AR42N0A/cDrwOXt/HvDQAvAuux/S8fCGPwlPExJD/Kf6D8O2YdLsnXf4G/AtdGONYSYBPwFvA04ZOm7wL/afzz8xttELiC8DpVLE+jXdA8Uv4D5d8xLQB820CcC2DTfOC2RsvFhtQdkGQ2oPxvSN0BSUc/Afj2D+Dl1J1I6FVgS+pOSDLKv/LvmhYAvtWBtak7kdCv0dPPnin/yr9rWgDIRny+A/wG4fdP8U35F7e0AJBRwqtK3vyMcO7im/IvbmkBIBB+B/xz6k5E9AiwLXUnJBvKv7ikBYA0/QI4lLoTERwkr6ewJQ/Kv7ijBYA0vQesptoPBdWBG4H9qTsi2VH+xZ1q7wNQr/PRnj2M7NzJx/v28fHevXzy7ruMjozw2dGjjI6MQK1GV08P3VOm0NXTw5l9fZzV18dZF1zA1xYvpmfuXKjVUp9JLM8CDxB+H6yie4FnUnciGuW/Xcp/lSj/Lk274I476jMGB+vdM2fWCavecbfumTPrM5Ytq3/9zjvrwLToZxPfZMLvgxMeu8zaZuCMEscpV8r/xCj/nU35d6gGXAY8DnyE3R/RCPAYsLxxzKqaSvg+eOqLVlltCJhS6gjlRfkvl/LfWZR/p7qAFYSAx/6jep3wm+Ek87NMYzawm/QXr4m2YWBWyWOTC+XfjvKfP+XfseXALtL/ge0kfL2ris6ms/9LaIjqXvyUf3vKf76Uf6fOAR4i/cSf3DYBfYbnnUov4Xvhqce33baVcCu3apT/uJT/vCj/jq0kvMeaerLHakeAa8zOPp1u4C7gc9KP8enaKOEb7JMtBiIx5T8N5T8Pyr9TZxJCPUr6Sf5/2h+p5h/gCuAD0o/vWO0wcJXZ2aej/OdB+U9D+XdsOvAv0k9qu+15qvnayBzCLbjc/hg3Aecbnncqyn9elP+4lH/HZgOvkH4yx9u2A+eWPip56Ad2kMcYX2J8rqko//lS/u0p/47NAd4i/SROtO0mPE1cRc3XcF4g/ri+RrVfw1H+86f821H+HZsKvEz6ySurvU64lVVVNcJrOY8SNsuwGsdjwMPAINXeiEP57yzKf7mUf8fOpDN/8zld24aPB0OmAtcTLoYHmPi47Sd8vnQ11d7NrEn572zK/8Qo/xHluIr8HXBT6k4YWU/47KgnS4ClwEJgATCPcJGcTnjHGuAo4QnmI8A7hN3LhgkbmeyM3N/UlP9qUf7bo/w7toL8nq4ts40CV5Y2WlI1yr94pvw7dh5wiPSTZN0OEnazEmml/Itnyr9zT5J+cmK1R0saM6kO5V88U/4dW0b6SYnd+ksZOakC5V88U/4dm0QeX3WK3XYQ3iMW35R/8Uz5d+5a0k9GqnZ1CeMnnU35F8+Uf8dqhB2tUk9EqvYqeb6KKXEo/8q/Z8q/8/xfRvpJSN2WT3gUpVMp/8q/Z8p/4vyn/g3iusjHGwbWAgPAIsJGHL2N/z0IrCPs3RxT7DGQfCj/yr9nyr/j/E/Ddt/s1vYicGkbfesn7MIVo28j6LORHin/yr9nyr/z/N+I/eB+SthWcjy/s9SAm4HjEfp53Tj6J51N+Vf+PVP+nef/CWwH9SDlfCe7H/sdqrQxhD/Kv/LvmfLvOP81yvlS1ljtU9q75XM63wc+Mezv+zh/GtQZ5V/590z5d57/b2I3mHVsviZ1i3Gflxj0WfKk/Cv/nin/zvN/A3YD+SI2q6katg+GrDbos+RJ+Vf+PVP+M8l/qtcAFxjWXkMY0LLVgdsN6jZ9w7C25EX5L1L+/VD+i1zl/ylsVlFvRuj7sFHfN0bou+RB+Vf+PVP+M8l/qjsAc43qPmNUN8Yx5hnVlfwo/0XKvx/Kf1GS/KdaAFhtfLDFqG6rzUZ1XW4G4ZTyX6T8+6H8FyXJf6oFwBSjunuN6rbaZ1TXakwkP8p/kfLvh/JflCT/qRYAvUZ19xvVbfWeUV1dAP1Q/ouUfz+U/yJXCwArMTZTqNqYSXUo/+KZ8t+mVCdz1KjuHKO6rc4xqvuhUV3Jj/JfpPz7ofwXJcl/qgWA1cn2GdWNcQxdAP1Q/ouUfz+U/yJXC4AjRnUHjerGOIbVmEh+lP8i5d8P5b8oSf5TLQD2GNVdZVS31Uqjum8b1ZX8KP9Fyr8fyn9RkvynWgAMG9W9kPD5RivLgPlGtXcb1ZX8KP9Fyr8fyn9RkvxXbQEAcB8259UF3G1Qt2mXYW3Ji/JfpPz7ofwXucr/Rdjsp9xsNxv0+VbjPi826LPkSflX/j1T/p3nvwYcwG4wj1PuraCBRk2r/h4gzjuskgflX/n3TPlX/nkcuwGtA4coJwSDjVqWfX2khH5KZ1H+lX/PlH/n+b8B20GtE1ZttzC+34S6CLd9LFd+zbZ6HP2Tzqb8K/+eKf/O8z8VOIb94NaBN4DL2+jbAPBSpL4dQ/uge6T8K/+eKf/KP48RZ5CbbTewjnBbZyHhoxS9wCLCKx73AG9F7pPL2z8CKP/Kv2/Kv/P8LyfuYOfYYuxeJXlS/pV/z5R/5/mvEe9WS47tFRw+/SlfUP6Vf8+Uf+WfH5N+IlK1GFtXSt6Uf/FM+XeuC9hJ+smI3bZTsW9Ly7go/+KZ8i8MkH5CYrdLSxk5qQLlXzxT/oUnSD8psdrDJY2ZVIfyL54p/86dCxwk/eRYtw+AOSWNmVSH8i+eKf/C5cAo6SfJqo1i9z1p6XzKv3im/Au/Jf1EWbV1JY6TVJPyL54p/85NBraRfrLKbpuBM0ocJ6km5V88U/6FqVRrg4ghHO/3LG1T/sUz5V+YTdi7OfXkTbQNA7NKHhupPuVfPFP+hbPp7JXgEJp8GT/lXzxT/oVe4DnST2a7bSvhVpbIRCj/4pnyL3QDdwGfk35iT9dGgfsJD7OIlEH5F8+UfwFgBWEjhdSTPFY7DFxldvbinfIvnin/whzgIfLbMGITcL7heYuA8i++Kf8CQD+wg/QTvx24xPhcRU6m/Itnyr/QRbgt9ALxJ/41YDUwyfwsRU5N+RfPlH8BoAYsBx4FRrCb9GOELzkNNo4pkgPlXzxT/uULU4HrCWE4wMQnfT/wCGG1p92cJHfKv3im/LfBwypmCbAUWAgsAOYRQjKd8I4pwFHCE5xHgHcIuzcNEzZy2Bm5vyJlUv7FM+X/K/wPLlw0FTUcS74AAAAASUVORK5CYII=;" vertex="1" parent="1">
          <mxGeometry x="190" y="290" width="60" height="60" as="geometry" />
        </mxCell>
        <mxCell id="afE-ISjAWiAgDgSf9kAT-7" value="" style="rounded=1;whiteSpace=wrap;html=1;" vertex="1" parent="1">
          <mxGeometry x="160" y="190" width="120" height="80" as="geometry" />
        </mxCell>
        <mxCell id="afE-ISjAWiAgDgSf9kAT-8" value="" style="shape=image;verticalLabelPosition=bottom;labelBackgroundColor=default;verticalAlign=top;aspect=fixed;imageAspect=0;image=data:image/png,iVBORw0KGgoAAAANSUhEUgAAAEAAAABACAYAAACqaXHeAAAABHNCSVQICAgIfAhkiAAAAAlwSFlzAAAB2AAAAdgB+lymcgAAABl0RVh0U29mdHdhcmUAd3d3Lmlua3NjYXBlLm9yZ5vuPBoAAAj4SURBVHic7Vt9jFRXFf+de99787W7wPIlhe7OAKEQLLZWIKbR9ENNa1NtE8G/WpuQSAQ0ttC1/cNmQ0yMm21jmgChsYlptLbF2AqKDdKCFW1I1UoU+RDYD2BZFuiy8z3vvXuPfywrO7tvdmfuzLBNwy+ZZPfc+zvn3PPOe/fcM28IdcDAgTUNMpR9UGv1ea1phdYcZ+YmxYhpZps1WwCgNSixIMoArgLQAA8BNAjgIoABEE6B+SRYngRZx2j5LrfWvlKtFF0+9MC3lKbHfV/f4fq6mbk8XmJBtFwTWQDvg/ggFN6m23f/zdDVIlQVAD66xrk8mNqWK/Bjvq9DJjoqCMBYHAWhA8ucXxLtUqZKjANw+eDDK/PsveO6qtFUB1BVAEbwF0heS0t395mQhQkpeeDhWVnfPVTt4muEu6FoP59dEzEhGwUgb3k7faUdE26dsAzJwjoTolEAlNKrTHh1hS48YEIzCoDkTIMJr67wLi80oRkFQGdOJKlmG2gNwBrI9XSZUM0C4KaE457AxyIIrIDUh4BKZ0zolqndQroflpOCbPo0CipsqqY6uANA5jigsjC9GsYBAADfzcC/fBhWqAFWLA4lpsPTEiizCqwcDPgpwL0EFPoAZXTRi1BVAEbgF9LwC/8GAAjpwI40g+xmsIxBIwSlJXSlQWF/+MqqDKAzgJcEvEGAvVq4/H/UJACjoZWLQrofQH+RnEhCWg5IOCApAQiQsIEkAHgA8/D9zC6gXADG1W1FqHkASoFZwfdyAHLFA41T+yQ12gU+SbgZABMSCbvqI1zNIRsTJjSzUjg048Y8oSqBPVua0MwOQ5GlecsyslcfyAYgmrhxpTCzJG5aBSdk1ASqLexmYNoqgGyjrDTeBhU7UNHVCEf6oNLd8HzfVJUZZBMQjQOheaims1dlHUDI03ygcT5sSkF6F8HeFbiFArjcrmjZpiRgTwesZsCZDVhNNVFbs0LI40Z4ViNgLQaFAVtkIHQKpNKAyoC1C9Y+lPYBzWAAeqQ+JvvaRbQBYQPCufaJAlYMkNc+ddi161IJMgEexwCKDVuYyMqsqd1RbxZCU+3AVONmAExIFmWn1dqRquH232lCMzsLuP1JE15dURi4YEIzCoCX7uGwGDKh1ge5XsDt65984ngYPwPyV/6JMJ+DmMp+BvtA5hiQ+Y+xiqrqgPzV0xBWL8KNi+DLOfDVDYqGygKF80C+F9DV9QirLoS07yE/eBzAcVhODFZkDmDPhI8IlBI1aBBrQOUAfwjwPhr+qGzVWkdQ00rQdzPw3S4AwydTEgTLikI6DSARAkR4uMSlYbMMGygMDacyMwAf0D6g88PdX5W9tti69dnr2xRlzdeCMkH/3rnZFJ1SGGVAyKattqWXAQAzzWRNCz2f73QVYhPxbAs5R+IYBJ0l6HNEcMF4HwQbRHPBaAHjXhA+M7EHfBgs9kGgFwwP0HEwGzUkapp/V/Y438zl8fLoQBCASAhHbJIbZj6S+2s5evidcCskbwZhPYBRL2LwYQheT1/wjtTK55rfgF0HEA4Phj7MubzUsZCORcRDMx7Kv2eii/8cXgitXwVoNYCXoAsb6V7c4NaTAfgNOJd2O69e2Yuq2za8FyE+GPoOv4GPURf2E4Syb4HFO68u0mzfxloXPegEcd+tFxsPH2ynslLznna2euYmP8uK5pEgBwBYs0uSL7RebPpHJXrOzk2tBoBK7I/FpAGIb08+QkRbwbi99Cz+IMr5+45unJMuNWPBCxxxwulnGNgEoLnEtI+Y8KKfa+g49xTlSszBbS9fanTzoXdB9Lly7ZfChHVAYnu6g0BvTrx4AKCVOQp/t9Tokp3JWXYo9R4Dz6H04gGgmRjtdjj1pyU7k7NKTXLz4e9dX/zk9idCyQAkdqQ2Afx0uYoYYlHgQDsLT9GuYocnA610Fb0O5uAMpaALQivK138dgQFY8LOhZjB+VJEm5reDxPG56bUA7qnUMQLuS+xIf6PE8Di/GWa7RGAA7AI9CqDctlcfg5/p2tj466BBYjxh4hgAMLMxt1wElsJMdFdA7g0A/MWuDU0nKrRx11gBAW9FOPfYyENr+baBhqyI/AKMrxfNq+i2MUNgBhAHFDCMIwaLB4CZYwWa8droJ/bRjXPSDLwWwJ1tYK8iBB+GiC+M2yEJ9yV2pH5IJP4uyDtxav3002XaGJdMRNDjTQa+FVX3s3JgBjCJ/QFiCcZW1vr3SslTie2pI4ntya/V2b+6IzAA3TNj+0H41yTcFQD9duGO9E/q4NcNQ/AtsJYUvTS0TqXSh6joODoeDLS1dp6N9Wy5dVPgeC7gKwRB88fNK6Tml/s2pS5kbiFdfMewkLeURR6Dkg2RM9+e9kFrR+9Tysu8CK0mrBiJxIb4j7s6u59NdI8dU9nBcfNFqKFl5O+WzvNfllArfN9dhnx5lazOp1rhF4qFVqi1LPJYXyYa7Glr2eaE7Tg50T9COlmQDLxEzJrYwnOVGm/pOHOIc4P7/FyyE/m00S8+qsWkLbHTmxefBfCVkf9bn+/+qs7l9oCLs4J1Zb8iae3sflDn0ndXwqkHKm6K9myO74UQV8fKCSjxpkPgTjZNaLF8cmv17xiXzIB4e1cYDfIJ1nrJaDkz38FudvyJjsVAoCIhfGhVZEd7ucfZib41mXMkZdlf+xDr6a0d3S+MkwtxEmn18+72RD6IFxiA1p3d89SVwn+R8ybs8hY7K94MkgvpnNE6VxREaGVxPlXqoHNdp7DLfvePldfAynsycDBkdyZ+emZR1/cXXhznX6CyQf0KVCWLt3PdmZbnSww+a5rKzOpTRsSx8L2YyuOVoKHgswC4JUgeCCIIK7IOJVpSPT+I/4ac6IGy9Y0CKz/wh5lEFJjOE4HA8SB5cAZIsbcsrUJqEW7c2N3W8quJpvW2xb9Eodi7FWeCtM8Hy+XvKlMEQNh7AsVBwt6nE0+SHd0HKccfUIRgSDtDdnR/JNLQ0rOlZfukxol0b1viftkw41HhRE5ASL84GAQI6Qs7ehKWnYEQDCt0znam31+xf2MhpRJO7A89bS1bgob/B1j2b2wVQQAuAAAAAElFTkSuQmCC;" vertex="1" parent="1">
          <mxGeometry x="190" y="200" width="60" height="60" as="geometry" />
        </mxCell>
        <mxCell id="afE-ISjAWiAgDgSf9kAT-37" style="edgeStyle=orthogonalEdgeStyle;rounded=0;orthogonalLoop=1;jettySize=auto;html=1;exitX=1;exitY=0.5;exitDx=0;exitDy=0;entryX=0;entryY=0.5;entryDx=0;entryDy=0;strokeWidth=3;" edge="1" parent="1" source="afE-ISjAWiAgDgSf9kAT-9" target="afE-ISjAWiAgDgSf9kAT-36">
          <mxGeometry relative="1" as="geometry" />
        </mxCell>
        <mxCell id="afE-ISjAWiAgDgSf9kAT-9" value="" style="rounded=0;whiteSpace=wrap;html=1;shadow=0;dashed=1;dashPattern=8 8;" vertex="1" parent="1">
          <mxGeometry x="420" y="140" width="570" height="170" as="geometry" />
        </mxCell>
        <mxCell id="afE-ISjAWiAgDgSf9kAT-26" style="edgeStyle=orthogonalEdgeStyle;rounded=0;orthogonalLoop=1;jettySize=auto;html=1;exitX=1;exitY=0.5;exitDx=0;exitDy=0;entryX=0;entryY=0.5;entryDx=0;entryDy=0;strokeWidth=3;" edge="1" parent="1" source="afE-ISjAWiAgDgSf9kAT-10" target="afE-ISjAWiAgDgSf9kAT-19">
          <mxGeometry relative="1" as="geometry" />
        </mxCell>
        <mxCell id="afE-ISjAWiAgDgSf9kAT-10" value="" style="rounded=1;whiteSpace=wrap;html=1;" vertex="1" parent="1">
          <mxGeometry x="440" y="200" width="120" height="70" as="geometry" />
        </mxCell>
        <mxCell id="afE-ISjAWiAgDgSf9kAT-12" value="ETL Pipeline" style="text;html=1;align=center;verticalAlign=middle;whiteSpace=wrap;rounded=0;fontStyle=1;fontSize=18;" vertex="1" parent="1">
          <mxGeometry x="640" y="155.5" width="120" height="30" as="geometry" />
        </mxCell>
        <mxCell id="afE-ISjAWiAgDgSf9kAT-17" value="" style="shape=image;verticalLabelPosition=bottom;labelBackgroundColor=default;verticalAlign=top;aspect=fixed;imageAspect=0;image=data:image/png,iVBORw0KGgoAAAANSUhEUgAAAgAAAAIACAYAAAD0eNT6AAAABHNCSVQICAgIfAhkiAAAAAlwSFlzAAAOxAAADsQBlSsOGwAAABl0RVh0U29mdHdhcmUAd3d3Lmlua3NjYXBlLm9yZ5vuPBoAACAASURBVHic7d15mFxVgf7x99xaes/KIgkhC2aBKIsiJAQJDei4gYSkWcQswIiOs6gz/tyeGcm4/RzHcWVcRkWWAYEEcNzGETEmQGgwDgYJ2YAk3SEkEJL0Xt1Vt878wQ5Zurvq1ql7z/fzPD5P6HRXvd0mfb6pqq4yApA4C3cubOgppqcHBTtNRjNkNF3WTJRsg6RGSaMlNdzx8DPZVGBsJhUUgsCGaRPksymzN5s2T2RM6s/prL2/Llu8++ET73za8acEoMyM6wEAStfS3lKnYtObbVCcY6w91xpzpqTsoT5u+dpnDnnZxkhN2VRvU2364Ww6+O0Ia7639vRlT5ZjNwB3CAAgppZsWVLblbHnG6uFknm7BnHgv9pgAuDVAmM0pj61a2Rt5j+NqfncY7Nu6hzyhQBwjgAAYubCtiVvMcb8pZG9SNKoUi5rOAHwcpmUsWMbMutH1KW/vOkty24s6cIAVBQBAMREy7YrzrBB+EnJvKdcl1lqALzcqNp05+iGzLe2zF7+T2W7UACRIQCAKteybcnbZHS1NZpT7ssuZwC8YFRdumNsQ+YLj89a/tWyXziAsiEAgCp1SdsV4/Km+GUjLYzqOqIIgBccVp/ZdfjImgvWv/nW1siuBMCwEQBAlTnLLk0fvn3rX1vp85KaoryuKANAklKB0VFN2ZUjC6n3rGte1h3plQEYksD1AAAvubht8bGHPbm11UrfUMSHfyWERavtHf1zt4f9O4+778IzXe8B8BICAKgS89uWXBAa8wdZvdn1lnLryIUNmzsHfj9ldcs3XG8B8BzuAgAca1nXkrUjG74uqw9X+rqjvgtgf8aNrFl7VF3+9D+e8vPeil85gBdxCwDg0MKdCxvsiIb/cnH4u7Kjo//EJzpT7cetef9RrrcAPiMAAEda2q8c05dP3yXpHa63VNre3vyYHfs6N09bM3+G6y2ArwgAwIGWHYuOsQpXS3a26y2udOTChif35Ncef/8lp7neAviIAAAq7NIdVx1mw+A3kqa73uJaz0CY3drde89x9138BtdbAN8QAEAFnf/MFU354sCvxeH/ot7+MLOjr6+VxwQAlUUAABXSsq4lm80Vlyfxx/xK1ZELG3Z2dK17fetlI1xvAXxBAAAVYkfWf0/S213vqFZ7+wqju/t7H3C9A/AFAQBUwPy2yy+VNZe73lHtdnYNzJjSeuH3XO8AfEAAABG7ePuiacbY77veERdte/uvmtZ60btc7wCSjgAAItTS3lJXtOZ2JeB5/SulEMo81Z1bftJDF4xyvQVIMgIAiJA19Z+xMvyI2xB15cK63T3mTtc7gCQjAICIzG9fMlXWfNz1jrja0ZE/a8aaBTxoEogIAQBExMh8U1Kt6x1xVbRWT3fmb3a9A0gqAgCIwILtS1ok+07XO+JuT29h7JT753/Z9Q4giQgAoNysjLH2s65nJMXTXfmPnrViadr1DiBpCACgzOZvX3whD/wrn+6BsKat5pHPud4BJA0BAJSZkT7lekPS7O4d+Igs36+AcuIvFFBGC9oXvVMyp7jekTSdubD+9a0L/p/rHUCSEABAWQUfdL0gqTpy4d+63gAkCQEAlMm87YvGSuKR/xF5tndg/HGt86e63gEkBQEAlEnKBu+TlHW9I6mKVuoN9c+udwBJQQAAZWKkha43JF1HrvAe1xuApCAAgDJo2bHoGCu9xfWOpNvXV2ia+uAFJ7neASQBAQCUQyE42/UEX+TzqatcbwCSgAAAysDKNLve4ItcoXiO6w1AEhAAQDkYe5brCb7oyBWmuN4AJAEBAJTo4rbFx0o6xvUOX/Tli+mZrfPOcL0DiDsCAChRQeaNrjf4pj8I3uZ6AxB3BABQImM03fUG3wwM6GTXG4C4IwCAUhlLAFTYQFjkGQGBEhEAQKmsIQAqrL9gj3K9AYg7AgAo3STXA3zTVwgbXW8A4o4AAEo30vUA3xSKlu9dQIn4SwSUYKldGkiqd73DN2HRGlm+fwGl4C8QUILNj21ulGRc7/CNtdIJD887zPUOIM4IAKAEA7WpJtcbfNXXb8e53gDEGQEAlCCwptb1Bl+llOGxF0AJCAAAADxEAAAA4CECAAAADxEAAAB4iAAAAMBDBAAAAB4iAAAA8BABAACAhwgAAAA8RAAAAOAhAgAAAA8RAAAAeIgAAADAQwQAAAAeIgAAAPAQAQAAgIcIAAAAPEQAAADgIQIAAAAPEQAAAHiIAAAAwEMEAAAAHiIAAADwEAEAAICHCAAAADxEAAAA4CECAAAADxEAAAB4iAAAAMBDBAAAAB4iAAAA8BABAACAhwgAAAA8RAAAAOAhAgAAAA8RAAAAeIgAAADAQwQAAAAeIgAAAPAQAQAAgIcIAAAAPEQAAADgIQIAAAAPEQAAAHiIAAAAwEMEAAAAHiIAAADwEAEAAICHCAAAADxEAAAA4CECAAAADxEAAAB4iAAAAMBDBAAAAB4iAAAA8BABAACAhwgAAAA8RAAAAOAhAgAAAA8RAAAAeIgAAADAQwQAAAAeIgAAAPAQAQAAgIcIAAAAPEQAAADgIQIAAAAPEQAAAHiIAAAAwEMEAAAAHiIAAADwEAEAAICHCAAAADxEAAAA4CECAAAADxEAAAB4iAAAAMBDBAAAAB4iAAAA8BABAACAhwgAAAA8RAAAAOAhAgAAAA8RAAAAeIgAAADAQwQAAAAeIgAAAPAQAQAAgIcIAAAAPEQAAADgIQIAAAAPEQAAAHiIAAAAwEMEAAAAHiIAAADwEAEAAICHCAAAADxEAAAA4CECAAAADxEAAAB4iAAAAMBDBAAAAB4iAAAA8BABAACAhwgAAAA8RAAAAOAhAgAAAA8RAAAAeIgAAADAQwQAAAAeIgAAAPAQAQAAgIcIAAAAPEQAAADgIQIAAAAPEQAAAHiIAAAAwEMEAAAAHiIAAADwEAEAAICHCAAAADxEAAAA4CECAAAADxEAAAB4iAAAAMBDBAAAAB4iAAAA8BABAACAhwgAAAA8RAAAAOAhAgAAAA8RAAAAeIgAAADAQwQAAAAeIgAAAPAQAQAAgIcIAAAAPEQAAADgIQIAAAAPEQAAAHiIAAAAwEMEAAAAHiIAAADwEAEAAICHCAAAADxEAAAA4CECAAAADxEAAAB4iAAAAMBDBAAAAB5Kux4A/5y346r6dLEwNaXiNBXNRGvsWCNTLxXrJTNSkqxRj7HqkdQtYzqsVXugcFOmWNh888Sb9zr+FIDXOO6+900spAbOzof2LaHslGJRI0Nr6yXVhqGtl6RUYLoCY3JG6ksF5tlUWhtTCh5orMn/9k8n/3Sf408BniEAEKkW25IK2xveFMjMlSnOtTInmnDgaElGkmTs87+wL77p+Te/xD73PlaBBoKsFrQv3i2ZdVZmZWC0Urb7/mUTlvVV7JOC92aubhmTS9vL+weK5/cMhCf09BdHrN/bMZxbVM974Rd1/3NeoSEbPFufyTxQl7bL0k3BbetmLhso42zgFcyh3wUYmpanP9yogd551tqLJDNXUlPEV9lvpAes0Z0mr1uWTb5uZ8TX96KL2xYfGxrzWKWur9yWr33G9YRhm3FE/VkbTl22slLXN/XBC07qz6eWduYKZ3XmCiOL9tAfU4pMytiRtaldjdn0nSMai0sfPvHOp6O9RviGAEBZtNiWVHF7w19IusxIF0iqdzQlNNJvZXRTbTq848bX3dgT5ZURAO5UIgBOWDvviK6e4PMducL8vX2FsTbiQ/9AUsZobEN6S1NNcO2E3Alf/n3z0oKbJUgSAgAlaVnXkrUj6y+RNZ+WNMP1nleyuyXz70apby2b8KM9UVwDAeBOlAFw4uqW8XtU/MGuzv53DBRsVX2frM+m8ofXZ38xuqFwBY8bQCmq6g824mPhzoUNfQPBh2TM30sa53rPwdlumeD7xUL+3+6Y9J9PlfOSCQB3ogiA4/9wycn7+vp/+HTPwMmFsLq/P9amg/DIpuzPa2qyH9h0yk92u96D+OHHADFk859ccl5vIfWIjPmqqv7wlyTTKGv/IUilNy9oX7K0ZV1L1vUiVJdJW5bUTrx3wR2bdnf/cUfnwJuq/fCXpFyhmNq2N3dB2+7unZNXz/++6z2IHwIAg9bSfuXrF7Rf/itT1M+M1STXe4ahQdLVxRENf17QtvjtrsegOky9/6K/2/3Ynr3b9vXNK4TVdXP/YOQKxdSWPbmrRv/ugmePe6Dl3a73ID4IAByalVnQdvnHrcJHJPtO13NKZaRpMubXC9oX/+C8HVe5erAiHJu25tLDXrdq3sbNz/Z8s7s/rHW9p1R7e/NjNu7u+8Ux983/qSzf23Fo/CHBQc3bvmjsgu1Lfi5j/1VSjes9ZWQk85c14cAfW9qXvNH1GFTWtNaL3rVjb0/7zs6Baa63lFPRWrXtzb33sN+/d8dxrfOnut6D6kYA4IAWtC15a8qaP0lK8s2KM6zUuqDt8stdD0FlTFo9/7rH9/T+Mgn/6j+Q3T2FI7d2Djw6dc38D7negupFAGC/FrQvvkxGd0vmaNdbKqBexl67oP3yby61S/k7kVRWwfhVFz6wdU9ucRj1s/hUgb6BYvrxXbnvTm6df43rLahOfLPDa8xvX/x3krlBUsb1lsqyf/fI9q03XLXmKs8+7+SbtGVJ7evumbf+yc7+U11vqaSilbbszv31Mfdd+AvXW1B9CAC8xMosaF+y1Mh8U/7+2bhsz5ED/33+M1dE/fTFqJAT1s47omtLR1vS7u8fira9/e8et+rCP/HgQLwcfxjwovnbl3xd0tWud1SBc7K54q+JgPg7bs37j2rbXXzs2d6Bw11vcW1HZ/+J4+65cI3rHageBAAkSQu2L/mMkT7iekcVOT2bs/9z2ebLRrgeguE5Ye28I3Z2dj26r69AyD1vR2f/yRNWz/+V6x2oDgQANL/98vfL6guud1QfO7u/NvtrIiB+Tlg774j2Z4sb9/YWRrneUm3a9+TeOen+Bde63gH3CADPtWxf/G6j4o/F60IcgJ3dX5vhMQEx8sLN/hz+B9b2bO7yY++/8B9d74BbBIDHLnny8gnWmuslk3a9pcpxd0BMcLP/4BRl1bZv4HMzHrrkdNdb4A4B4Kmz7NJ0GNqfSBrreks8cHdAteNm/6HJh9bs3NP3q5m8OJa3CABPHda+9Z+t0RzXO+KFCKhWHP7Ds6+vMLJjT/gb1zvgBgHgoQvbFp8po0+53hFPPCag2nCff2me7Oyf+/rWiz/segcqjwDwzFl2aTow5tvi//tS8JiAKsF9/qWzVtrZ1fu1SVuWJPa1EbB/HAKeOXz71r+WdILrHfH33N0BhZQlAhwJZcdys395dPcXa4pPdVzvegcqix/98si8nQuPSOVTGyXxDbN8NkuK7cuuLl/7jOsJw1afTeV7B0Jet6FMMiljjz2qYcaGk27d5HoLKoNbADwS5NOfF4d/ucX28I87Dv/yyofW7OscuMP1DlQOAeCJlvZF443sEtc7AFSvp7vyM4//wyUnu96ByiAAPGFlPiqJn/cFcEBFa9WRG/iO6x2oDALAA889Wt18wPUOANVvV/fAaW948JIJrncgegSABwZqMx+UNNL1DgDVrxBa05nPcyuABwgAD1hpsesNAOLj2d7821xvQPQIgISb/+SikyXNdL0DQHz09Ic1r29tWeB6B6JFACRdMbjU9QQA8dPXH/6D6w2IFgGQZFbGSBe5ngEgfvb050+R5YxIMv7PTbCWJ5ecKGmi6x0A4qdvoJie9uBF57vegegQAAlWtPZM1xsAxFeuULjE9QZEhwBIsECGAAAwbLlCONv1BkSHAEgqK2Olt7qeASC+OnqLR7vegOgQAAnVsv3KYyUd4XoHgPjqD4vBjAdb5rregWgQAAllTXGG6w0A4i8fhtySmFAEQEJZXqYWQBkUrE50vQHRIAASq0gAAChZPuQfE0lFACSUkXm96w0A4i+XD8e73oBoEABJZXWk6wkA4q9QtPWuNyAaBEBCWanB9QYA8RcWlXa9AdEgABLKGDW63gAg/gohAZBUBEBSWQIAQOlCFY3rDYgGAZBcta4HAIi/MLQEQEIRAIll+1wvABB/qZSxrjcgGgRAYplu1wsAxF/amKLrDYgGAZBYlgAAULKUMaHrDYgGAZBY3AIAoHSpQAXXGxANAiCxzFOuFwCIv2zadLnegGgQAMm12fUAAPGXTQfbXW9ANAiAhDIEAIAyyAYpvpckFAGQUEVLAAAoXSqth1xvQDQIgIQK0uF61xsAxF/KpFa43oBoEAAJtWzcDW2S2lzvABBfdZlUYdOpt/7B9Q5EgwBItntcDwAQXyNqgm2uNyA6BECCGWNXud4AIL7qatJ8D0kwAiDJTGql6wkA4itr0ze53oDoEAAJtmz8tRslPep6B4D4aahJ9W86/Za7Xe9AdAiAhDOyt7reACB+xtSmeQxRwhEACRdY3SSJl/MEMCS1mdRXXG9AtAiAhLv1mOsfN9Ia1zsAxMfI2nT35lnL7nK9A9EiADxQNLrW9QYA8TGqIf1T1xsQPQLAA719TT+WtNP1DgDVryYdFBtt8BHXOxA9AsAD/z312/3G2mtc7wBQ/Y5oyty17vRle1zvQPQIAE9kbP47knhdbwAHlE4Z26jaD7regcogADxx88Sb91rp313vAFC9jmzI3r9+zs08/a8nCACP5GuDL0na4XoHgOpTmw7C0dkxF7regcohADzys8Ov7bIyn3S9A0D1OWpE9ruPzPrhLtc7UDkEgGduP/rHNxmJF/gA8KJRtenOLbNv55H/niEAfGNkiyr+raR+11MAuJcyRkc01SyWUdH1FlQWAeCh2yfc8LCV/YTrHQDcGz86c9um027jiX88RAB46vajr/+2kfhLD3jssPrMrrbZd17qegfcIAB8ZWQzxYErJPEjP4CHajNBeHh96q3c9O8vAsBjN0+8ea9R8SJJPa63AKicdEp2/Ii6K9fPun2z6y1whwDw3LIJNzxog+ACSQOutwCIXiCjiaNrrn589m3Xu94CtwgA6Pbx1/7WSJdLsq63AIjWxDHZHz0+647Pu94B9wgASJKWTbjuZiPxJEFAgh0zqvZXW06/4y9d70B1IADwomUTrvtXyRIBQAIdPapmRdsZt7/b9Q5UDwIAr7B8wvVfIQKAZDl6VM2K7WfccbbrHaguBABegwgAkoPDHwdCAGC/iAAg/jj8cTAEAA6ICADii8Mfh0IA4KCIACB+OPwxGAQADokIAOKDwx+DRQBgUIgAoPpx+GMoCAAMGhEAVC8OfwwVAYAhIQKA6sPhj+EgADBkRABQPTj8MVwEAIaFCADc4/BHKQgADBsRALjD4Y9SEQAoCREAVB6HP8qBAEDJiACgcjj8US4EAMqCCACix+GPciIAUDZEABAdDn+UGwGAsiICgPLj8EcUCACUHREAlA+HP6JCACASRABQOg5/RIkAQGSIAGD4OPwRNQIAkSICgKHj8EclEACIHBEADB6HPyqFAEBFEAHAoXH4o5IIAFQMEQAcGIc/Ko0AQEURAcBrcfjDBQIAFUcEAC/h8IcrBACcIAIADn+4RQDAGSIAPuPwh2sEAJwiAuAjDn9UAwIAzhEB8AmHP6oFAYCqQATABxz+qCYEAKoGEYAk4/BHtSEAUFWIACQRhz+qEQGAqkMEIEk4/FGtCABUJSIAScDhj2pGAKBqEQGIMw5/VDsCAFWNCEAccfgjDggAVD0iAHHC4Y+4IAAQC0QA4oDDH3FCACA2iABUMw5/xA0BgFghAlCNOPwRR8b1gINaYdM68onJMukZMpoi2UbJNknBSMk2yCqjwHbKmg4Z06Oi7VZgt8toozprNumUcb2uPwVEY0H74k9I5l9c74i75WufcT0h9jj8E27FmsNkBt4ma09ToXjs8+dQg4q2UbbYIBsUZJRTynTKBl0K1K0g9WcVi/cqNf4eNU/Ouf4UDqS6AmDT1uNkdbas5ko6QdIUSZlhXpqV1CaZDZK9R1YrtHPig2o2hbLthVNEQOkIgNJw+CfMz9fUqzG/SIX8AuXzJymfH6l8Pj3syzNGymQGlMnuUia1WpnsDZo761dlXFwStwGweXONCpl3y2i+pGZJR0V8jd2SVkn2FwrTt2rmhD0RXx8iRgSUhgAYPg7/hFjZOlWFwhfUP9Cs/txhCsNoz8VUqqi62jbVZG+R8l9Uc3N3pNd3EG4CYP22N8sUF0nmUkmHO9kgDcjoN7LmBoXd/6WZMwcc7UCJiIDhIwCGh8M/5taty+qZzo+qr+9v1dt7tKx1syOVsqqv36BM7TVqPu17MqZYyauvXABYG2hj2wLJfkbSiRW73sHZKelrCuu/q5lHOKsxDB8RMDwEwNBx+MfYqlVHKR/8UJ2d71AYVteD4Gtq+tTY9B0p9yk1N1fkruroA2DNmoyaDr9U1n5K0nGRX19pOiX7XYXpr3D3QPwQAUNHAAwNh39M3b16vGzxB+rqfEfkN/GXKpPJq7HpVgXjPhD1Awij/UKs3zJXMt+R0fGRXk/57ZPMUk0/5hoZE7oeg8EjAoaGABg8Dv8YWrEiLZv9d3V0fKDqD/5Xy2Tzamq4Wmef8f+juopoviCPbj1Kgf5F0vsju45KsHpI1n5Yx09udT0Fg0cEDB4BMDgc/jG0cvX71NX9H8r1N7ieUpL6hl2qbzxPZ536h3JfdPkP543bPiBrvyppRNkv242iZK9RjT6pydX785x4JSJgcAiAQ+Pwj5kVD43SQOcqdXe90dmD+8otFViNGHWdzplzRTkvtnwBsGFDk1T7XUmXle0yq4nVQ7LhxTr+2M2up2BwiIBDIwAOjsM/Zla2vl2dnT9Vf3+d6ymRaGzcolF1szVr1q5yXFx5HgW5edvxMrX3K6mHvyQZnawg9Uet33Kp6ykYHJ42GKXg8I+Zu+/9V+159teJPfwlqbt7sp7uaNM9q1vKcXGlB8CGLe9VaNfIamYZ9lS7JhlzszZu+5Ksje9jGzxCBGA4OPxjxNpAv1nVqr17P66wmPzvywMDWT295zbdfd/nS72o0r5YG7ctkrU/kjT8p0qMK2tv0M5JV/LUwvHA3QH7x10Ar8XhHyPr1mXV/vTD6u6e7npKxRkjjRp9o86Zs2i4FzH8WwA2bPuIrL1OPh7+kmTMIh219Q61tyf35qYE4ZYADAaHf4y0to5Q284tXh7+kmSttHfPQv1m1e+HexHDC4D1W5ZK9huK84/4lYU5T93hz7R5c43rJTg0IgAHw+EfI62tI7S7Z6t6ese5nuJcZ8dc3bXyd8P50KEHwIYtH5IxVw/nyhLJ6FyFmVtkbcr1FBwaEYD94fCPkRUr0trbu0653tGup1SNjs5m3XXP7UP9sKEFwMYtF0jmmqFeiQcu0MY2vi4xQQTg5Tj8Y2bArFFPz9GuZ1Sdzo4Ldffqrw3lQwYfAJueOFPW3CKJf+nul/2QNm75lOsVGBwiABKHf+zcteoudXVV24vJVQdrpX17PqbftX54sB8yuADYvPlwFYOfSOK+7oOx5ovauO0c1zMwOESA3zj8Y+bu1R9VZ+e5rmdUNWulzr3f0j1/mjaYdz90AFgbKMzeKIkHWxxaINmbtG7L61wPweAQAX7i8I+ZVauOV+e+f0vMU/tGqVBIqWvPvVqx4pA/oXfoANi47dOS/YuyDPOB1ZFKmZt5UGB8EAF+4fCPmRUr0urOr1IYlueZa33Q23O4wszPDvVuB/+CbtpykqSlZZrkk2ZtaBv0/TBwjwjwA4d/DIXpZertHet6Ruzs2/tOrbhvwcHe5cABYG2govmOfH2in1IZ+wVtaONukxghApKNwz+Gftt6gro63+t6Rmz19P1I1h7wnD9wAGxqu1LS7Cg2eWKEVPyK6xEYGiIgmTj8Y2qg9+dePL9/VHJ9I3T36h8c6Lf3HwDr2sfI2i9FNsofl2nDVr7pxAwRkCwc/jH1+/s/od6eY1zPiL2ujssP9FMB+w+AdPgZSYdFuckbVl/llQPjhwhIBg7/GOvu4hlnyyEMjXId1+/vt14bAOvax8jqqshH+cLoZG3cyk9RxBAREG8c/jG24v6lyvXXu56RGN09p+3vVoDXBkAq/Kikpkps8of5rOsFGB4iIJ44/GOup+djrickShga5Tq//+o3vzIANm8eIelvKrXJI7O1fstc1yMwPERAvHD4x9zK+/5Bub4RrmckTnf3XK1addTL3/TKAChkF0viFZaiYMxHXU/A8BEB8cDhnwA9uY+7npBIYWiUD77x8je9MgCMXVzRQX55lzbu4IGVMUYEVDcO/wRYvWaG+np5KvWo9Pa96+X/+VIAbN52vKQ3V3qPR7LSwEWuR6A0REB14vBPiN6+L4mn+49Of65RK1tfjICXAiAsLnIyyC8LXQ9A6YiA6sLhnyC5Pn5iKmr9A59+4ZcvuwvAXOpii1esZmlz27GuZ6B0REB14PBPkJWtb+dH/yqgr++0F375XABseGK6JJ5xqRIKIa9nnRBEgFsc/glTKFzpeoIX8gMZ3bumWXrxFgDDX6JKMUGz6wkoHyLADQ7/BBoYmON6gjf6+y+XXgoADqWKsc08NXCyEAGVxeGfQCtWpNWfO+rQ74iyGBg4U5KC5w8jnqSmco7Qhu1vcD0C5UUEVAaHf1LVzlchPPCr06K8crkJsjYItGHrRElHuN7jFVM4xfUElB8REC0O/wQLC+869DuhbMJCoHvvfUsgabrrLR7ia55QREA0OPwTzhaPcz3BO2F6biATcBhVnOFrnmBEQHlx+HsgX+Cn0CotDN8cSJbDqPL4miccEVAeHP6eyOd5DZpKKxSmBzJ2qusdHjpW1qZcj0C0iIDScPh7Yt26rAr5rOsZ3imE4wNZM9b1Dg9l9dhjDa5HIHpEwPBw+Htke/d4nv/fAVusCyTb5HqHn+p4vWtPEAFDw+Hvmaw90vUELxWLmUAyBIALiPnPzgAACaxJREFUtsDX3SNEwOBw+HvIigBwoVhMBZI4iFywRb7uniECDo7D31OmcLjrCV4q2iCQxKsvuWCDRtcTUHlEwP5x+HssMCNdT/BSMTSBJJ6X3oXA8LSXnlo+4fqvGGv/0fWOajFhZM1vOfw9ZgN+IsoRDiHAgWXHXP9FWXOFZAuut7hijDRpdN0t7W+9422utwA+IgAAR5Yf8+MfW2taJOVcb6m0wBhNHlvzja1zll/qegvgKwIAcOj2Y677adEU3yVpn+stlZJJGXvsmPqPPDHrjo+53gL4jAAAHLvj6BtWmFTxRMnc73pL1EbWpnqmHJ49Z/Ps277legvgOwIAqALLxt3QtvvoiWdK+mdJRdd7ojBuRM3ao1M1r9t4yh0rXG8BIKVdDwDwnN+bpQVJS+c/ueSPpqjvSRrnelM51GaC8OiR2S8+Nuv2q3e4HgPgRdwCAFSZ28df9/O6TDhNz90aMOB6z3AZPfev/ulNtRMfm3X71a73AHglbgEAqtCNr7uxR9LS+dsWLzOBuUbSWY4nDcnouvTeIxszizactvwX/KsfqE4EAFDFbp94/TpJzS3brjjDBuEnJfMe15sOZlRtunN0Q+ZbW2Yv/6e9rscAOCgCAIiBZROvvVfSvS3ti06Vgk9b6XxVyV14xkhjGzI7RtZkP/P47Nuu9+bnGYGYIwCAGFk24YYHJc27pO2KcaEptsiqxRrNcbGlMZvqH1WXbh2Zsf+4btad9+52MQLAsBEAQAzdcsy1OyR9U9I3529bPDMINN/KNEuaJak2iutMBdKI2vTehkz6f5uywdfXn7bsl92StkdxZQAiRwAAMff84wTWSfrcki1LanvS5jQre5Zk32BkplppmqS6oVxmKjCqzwZ9tang2ZpMsLkmozuNrbv+sVk3dXLfPpAMBACQINdNvi4naeXz/3uOlWl5atEEhanJRdkGY9RgZEcXFTQcM7p2rgnUlZKekUyHKdq9NUHmgUdn3fJgl5HtcvaZAIgaAQAknZFdphvaJLXt53e/Xuk5AKpDVTyKGAAAVBYBAACAhwgAAAA8RAAAAOAhAgAAAA8RAAAAeIgAAADAQwQAAAAeIgAAAPAQAQAAgIcIAAAAPEQAAADgIQIAAAAPEQAAAHiIAAAAwEMEAAAAHiIAAADwEAEAAICHCAAAADxEAAAA4CECAAAADxEAAAB4iAAAAMBDBAAAAB4iAAAA8BABAACAhwgAAAA8RAAAAOAhAgAAAA8RAAAAeIgAAADAQwQAAAAeSrse4K2i3qRN21yvgO927HiT6wnwXBjOdT3BV0YbtlrXIwA48sifXS8A4Ah3AQAA4CECAAAADxEAAAB4iAAAAMBDBAAAAB4iAAAA8BABAACAhwgAAAA8RAAAAOAhAgAAAA8RAAAAeIgAAADAQwQAAAAeIgAAAPAQAQAAgIcIAAAAPEQAAADgIQIAAAAPEQAAAHiIAAAAwEMEAAAAHiIAAADwEAEAAICHCAAAADxEAAAA4CECAAAADxEAAAB4iAAAAMBDBAAAAB4iAAAA8BABAACAhwgAAAA8RAAAAOAhAgAAAA8RAAAAeIgAAADAQwQAAAAeIgAAAPAQAQAAgIcIAAAAPEQAAADgIQIAAAAPEQAAAHiIAAAAwEMEAAAAHiIAAADwUCCp3/UIAABQQSZQIKnL9Q4AAFBBQVAkAAAA8E1gQgIAAADfmFQhkGyH6x0AAKCCUkF/IJmtrncAAIAKSqV2B5I2ut4BAAAqKBU8Hshqg+sdAACggtLBQ4FswC0AAAD4JJW5N1Cmf7OknOstAACgAkwghb0rA02d2i+p1fUeAABQAbU1e9Tc3P3cawEYs8LxHAAAUAmZmj9KL70Y0O8cTgEAAJVSk7lFeiEAup55QFK3yz0AACBiqZRV8cibpRcC4JRT8pJ+5nITAACIWF3dE2qenJNeugtAkr3R1R4AAFABtbX/8cIvXwqA6ZN+I+lJF3sAAEDE0ulQh4/4xgv/+VIAGFOU9BMXmwAAQMQa6v+gmTMHXvjP4JW/W/yhpGKFJwEAgCgZI5nUZ1/+plcGwIwpGyW7vKKjAABAtOobtuncM+56+ZuC17yTsV+SZCu1CQAARKym4e9f/abXBsD0KWtl9MuKDAIAANGqb3hKZ596x6vf/NoAkKRQV0sKo94EAAAiZIxUV/ex/f3W/gPg+En/K+n7UW4CAAARa2xcq+bZt+7vt/YfAJKUyn9a0lNRbQIAABFKpYpqzLz3QL994ACYOrVT1n46klEAACBaI0Z8X3PmbDvQbx84ACRpxqQbJP2q3JsAAECE6ht26ew5f3Owdzl4ABhjFaYWSjpgQQAAgCqSTodqGnPm88/we0AHDwBJmjlhj4r2Ekn5cm0DAAARGTnqb/TWkzYd6t0OHQCSdPzkVhn72UO/IwAAcGbU6F+qefb3BvOugwsASZo26V8k/XC4mwAAQIQaGzfo3DPeM9h3H3wAGGM1feKHZPSaZxMCAAAO1dfvVM2kk4fyIYMPAEkyJlR96v2SvWdIHwcAAKJRV9uhujHHqXlybigfNrQAkKQJE/pUo/Ml3TvkjwUAAOVTV9uhxpFvVPPJ+4b6oUMPAEmaPHmfUvlzJfHSwQAAuFBfv1OjG6Zo7qntw/nw4QWAJE2d2q/pEy+R1Q+GfRkAAGDoGpseU92UyTr99D3DvYh0SQOMCWXtB7Vp6xOy5vMlXx4AADi4UaN/OZRH+x/I8G8BeIExVtMnf1mmOEfS1pIvDwAAvFY6HWrsYX9VjsNfKkcAvGD6lAdlsm8Rrx0AAEB51Tfs0ujRxw32SX4Gw5Trgl5hw7YWGfttWR0ZyeUDKI9H/ux6AYCDSaWKGjnyh2o+/a8O9dz+Q1W+WwBebsbEZcraGZL9lqQwkusAACCpjJEamp7QmDEzdPacD5b78JeiugXg5R7d+iYF9mrJnFeR6wMweNwCAFSf+oanVFf3MTXPvjXKq6ncgfxo2xsUFD8h6VLx0wJAdSAAgOpgjFRXv0sNtX+vuaffXJGrrMSVvML6x6fJpD4g6X2SxlX8+gG8hAAA3EqnQ9U3rFEQ/JPOPeOuSl61u5vkrU1pw5ZzZIKFkt4rqcnZFsBXBABQeamUVV3dE6qt/Q/Z3NfU3FxwMaM67pO3NqUNbSfJ6FxZe66M5kiqcz0LSDwCAIieCaSamk7VZB5VJnunbO47am7udj7L9YD9WrcuKzVOVWCnK7DTpGC6ipoiYxsljZI0QlKjpFq3Q4GYIwCA0gRGMkFRQSpUYPIKTF7pzNMKgidk0g8rbe6Rza2ohgP/1f4PG/8zpXehevIAAAAASUVORK5CYII=;" vertex="1" parent="1">
          <mxGeometry x="450" y="215" width="40" height="40" as="geometry" />
        </mxCell>
        <mxCell id="afE-ISjAWiAgDgSf9kAT-18" value="Extract" style="text;html=1;align=center;verticalAlign=middle;whiteSpace=wrap;rounded=0;fontStyle=1;fontSize=14;" vertex="1" parent="1">
          <mxGeometry x="490" y="220" width="60" height="30" as="geometry" />
        </mxCell>
        <mxCell id="afE-ISjAWiAgDgSf9kAT-27" style="edgeStyle=orthogonalEdgeStyle;rounded=0;orthogonalLoop=1;jettySize=auto;html=1;exitX=1;exitY=0.5;exitDx=0;exitDy=0;entryX=0;entryY=0.5;entryDx=0;entryDy=0;strokeWidth=3;" edge="1" parent="1" source="afE-ISjAWiAgDgSf9kAT-19" target="afE-ISjAWiAgDgSf9kAT-23">
          <mxGeometry relative="1" as="geometry" />
        </mxCell>
        <mxCell id="afE-ISjAWiAgDgSf9kAT-19" value="" style="rounded=1;whiteSpace=wrap;html=1;" vertex="1" parent="1">
          <mxGeometry x="625" y="200" width="150" height="70" as="geometry" />
        </mxCell>
        <mxCell id="afE-ISjAWiAgDgSf9kAT-21" value="" style="shape=image;verticalLabelPosition=bottom;labelBackgroundColor=default;verticalAlign=top;aspect=fixed;imageAspect=0;image=data:image/png,iVBORw0KGgoAAAANSUhEUgAAAgAAAAIACAYAAAD0eNT6AAAABHNCSVQICAgIfAhkiAAAAAlwSFlzAAAOxAAADsQBlSsOGwAAABl0RVh0U29mdHdhcmUAd3d3Lmlua3NjYXBlLm9yZ5vuPBoAACAASURBVHic7d15uFx1lfD7b05CBhBCCIYxzIPaTAGcAGWQUWVScGhf6b4XGm3lFbzt1KO0tl4bURSHV9vx4tNvC6Io4osyo6LtxChIwhCCyJhAAiIkJCf3j1XHhHCmqlNV67f3/n6eZz0J4SR71d5V+7fqt38DSJKkxpmUnYDUIJOB/YFjgf2AHYBZwHqZSSV4BngMuBu4Dvge8DNgVWZSkiR12wzgA8DDwGpj2HgIeF/rXEmSVHlvAO4jv4GtStwLnNDRmZYkqQCTgDOBQfIb1arFIPAxYKDdky5JUqYB4HzyG9KqxzexCJB6Zkp2AlINfYTo+tfEvBG4E/in7EQablNgHrA3sBMwtxWzganATGAl8CQxuPNJYkzH/LXiBuCRficuSf30BvK/OdcpBoHXt3UFNFHrA0cDnyUa725dxxuBc4DXAtP79mokqQ9mEIPYshvNusV9RKOk3hkAjgDOAx6n99d0KfAl4BU4HV1SDfw9+Y1lXeN9bVwHjd8GwDuABeRd2zuAU4FpPX6tktQTk3Gefy/jwdY5VndMA86grPfsfcDpuBaEpIo5kPwbaN3jgHFfDY3m9cA95F/PkeJO4NW9evGS1G2fJP/GWff4+LivhoazNfBd8q/jeOM7rZwlqWj/Tf4Ns+5x3bivhtZ1HPAo+dew3ViKK0NKKlxJz1LrGg+O+2poyFTgc+Rfu4nEIPAJmrdplqSKWE7+jbLu8fS4r4YANgGuIf+6dSuuBTbu5gmSpG7Ivjk2JTQ+2wG/I/96dTtuArbs3mlqNhdgkLrDxqk/vGeNbXvgamDb7ER65B7gMGK2gCbAD5PUHRYA/eE9a3TbEV3l2yTn0WsLgf2BB7ITqTJ32pKkepgJfJ/6N/4QvRyXAbOyE6kyCwBJqr6pxBz/3bIT6aPdgItwdkDHLAAkqfrOBg7KTiLBgcBHs5OQ1GzZo6ObEnquY4i58tnXJisGgWMnfBYbyAE1UnfYOPWH96xn2wq4lXj+32RLgD2BP2QnUiU+ApCk6vosNv4As4FzspOoGqtpqTvsAegP71lrvA74dnYShTkS+FF2ElXhh0nqDguA/vCeFaYSK/3tkJ1IYe4A9sBlo8fFRwCSVD1/i43/cHYGTslOoiqspqXusAegP7xnwQxiOdw5yXmU6vfATsCK7ERKZw+AJFXLSdj4j2YucY40BqtpqTvsAeiPpt+zJhHT/l6YnUjh7gB2xc/lqJr+YZK6xRtNf2Tds7y+1fMK4KfZSZTMRwCSpDp6a3YCpbMHQOoOvyH2hz0AGq9lwBbAU9mJlMoeAElSHc0EDs5OomQWANLE7IBdjVKpDslOoGRTshOQKmQKseHIAcA+wCuBbVMzkjQaC4BROAZAGtmmwH6t2B/YF5iempEcA6B2DBJrJizJTqRE9gBIa0wG9gIOBY4GXo6PyaQqGwDmAVdkJ1IiCwA13WbAEcBriYZ/Vm46krpsVywAhmUBoKaZChxEbBt6BPCi1Gwk9dqu2QmUygJATTCZ6M4/EXgz8PzcdCT1kQXACCwAVFfTgMOJrv3XEQP6JDXP5tkJlMoCQHUy1OifCBxDLAQiqdk2zE6gVBYAqoP9gJOB12OjL+nZLABGYAGgqppFfNN/J7BHci6SymUBMAILAFXJALGy16nAscSIfklSBywAVAVbA28B3g5sl5uKpIp5IjuBUlkAqFSTiAF972796rLVkjphATACCwCVZhrwRuC9wG7JuUiqPguAEVgAlGkD4DBitbodgC2IQW+PAQ8AdwM/BC4HnkzKsds2B95BdPO7UI+kbnkwOwFpPLYHzgOeInYfGyueav38DhnJdsmewNeApxnfazaaHVmyX7fReXx6mOspFeN5wLnAcjp7gy8HPkO1pru8CriS/JuDUa3Ikv26jc7jHcNcT6kIuwLz6c4bfQHwgv6m37ZXAT8h/6ZgVDOyZL9uo/N41TDXU0o3D3iY7r7ZHwH26eeLGKdDgB+TfzMwqh1Zsl+30VmsAmYPcz2lVHsBi+nNm34p8JL+vZRRHUDsxZ19IzDqEVmyX7fRWfxmuIupMJCdQEPtRTSKvapMZwKXkVsEDDX8P8EuOEk5rspOoGQWAP03jxj81utuqZnEVMF9e3ycde1DfOhs+CVlswAYhaur9Vevv/kPZxmxkt4ve3ycrYB/IXblm9zjY6m5su5ZmY8f1JnHiDVUlmcnUip7APono/GH3j8OWB94P/A7YpMeG39JJbgAG38VoJcD/sYb3R4YOEBsx7so+XUZzYos2a/baD/2H/ZKSn1UQuM/FN0qAg4Bri/g9RjNi6abBNxG/nUoPebjI24lmwcsIf/DsHY8SucDA3cELi7gNRjNDcHfkH8dSo+TOz67UheU9M1/3Wi3J2AKcDrwxwJyN5odgunEBjfZ16LUWARM7fjsShNUcuM/FOMtAvYGfl1AvoaxGg05jfxrUWq8cwLnVZqQKjT+QzFaETCT2EVrZQF5GsZQKEwF7iT/epQW84FpEzivUseq1PgPxXBFwNHAvQXkZhjrhtY4nvzrUVocNqEzKnWoio3/UAwVAVsB3y4gH8MYKfRsfl7XxPkTPJeN4zSJ7phHLPKzSXYiE7CMGOy3QXYi0ii8Zz3bFsCtwKzsRJItBvYE7s9OpEpcCXDi9gIup9qNP8Qzfxt/qVoeAE6i2b0jq4FTsPFvmwXAxGQt7ytJQy4hBuw21VnA97KTqCK70zpn4y/1n/es4U0FLiVW6WySq4EjgGeyE6kiP0ydsfGXcnjPGtlGxDbce2Qn0ie3AK8kBjGrA36Y2mfjL+XxnjW6bYBrge2S8+i1hcRmPw9kJ1JljgFoj42/pJLdCxxENJB1tZCY72/jP0EWAONn4y+pChYRRcBtyXn0wk3EN/+7shOpAwuA8bHxl1Ql9xIN5VXZiXTR1cCB+M2/aywAxmbjL6mKlgJHAudS7XUCVhNT/Q4nFixTlzigZnQ2/lJZvGd15hjga1RvwbIlwF8BP8hOpI7sARiZjb+kurgY2B24KDuRNlxATGm08VdfVXljH8Ooc2jijiMG0WVfy5FiPu7qpyQ2/oZRbqg7pgKnAQ+Rf02HYhHwTmBaD1+3NCIbf8MoO9RdM4BTiSmDWdd0PnAyUZSojxxQs4bP/KXyec/qjUnAwcD/AF5PLCvcS48Rz/i/AfwMi7sUfpiCjb9UDd6zem8GsanQ4cSz+Bd24d8cJBbxuQq4svXr8i78u5oAP0w2/lKVeM/qv1nA3q3YCZhL7DkwiygWNgJWAX8k1h54ghhbMB+4HVgA3EBM6VNBmv5hsvGXqqXp9yypa5q8DoCNvySpsZpaANj4S5IarYkFgI2/JKnxmlYA2PhLkgRMyU6gj2z8JUnd8nxgHrAr8AJgF2AzYANihsQGrZ97klj34EnWzI4YihuAR/qa9VqaMqLWxl+qh6bcs1SeGcChxBoJhxCbK030/bgauBm4mlgf4Qrg6Qn+m+PWhA+Tjb9UH024Z6ks+wAnAW+h9+3IMmLnxvOIgsAVEifAtf0No14h9cM04G3AneS91+8g9mlwc6QO2PgbRv1C6qUZwLuB+8h/rw/FfcDprdw0DvOIZSezL5xhGN0NqVdeC9xN/nt8pLgLeHU3X3Adn6ftBPyUGI0pqV7qeM9SrrnAucBx2YmM00XAu4iegQmp24fpecBviOkYkuqnbvcs5ToG+BqwSXYibVoGnAJcOJF/pG4LAf2/2PhLkkY3BfgY8F2q1/gDzAQuAD4NTO30H6lTNb0dsbBCxydDUvHqdM9SjlnEVLsDshPpkh8DxxJbMbelTj0AH8LGX5I0si2IRXfq0vgDvJIY97Z1u3+xLtX0BsSUv+nZiUjqqbrcs9R/OwGXE73FdXQPcBixdsG41KUH4HBs/CVJw9uSejf+EK/tKmJWw7jUpQA4IjsBSVKRZgI/oN6N/5C5wP8hxjmMqS4FwI7ZCUiSijMVuIRYGbYpdiPWClhvrB+sSwGweXYCkqTinEW9BvyN14HAR8f6oboMqLkP2Co7CUk9V5d7lnrvtcR0v6a+Z1YDxwPfG+kH6tID8Gh2ApKkYswlttRtauMP8dq/wihfjutSADyYnYAkqRjnMs6BcDU3GzhnpP9ZlwLg7uwEJElFOJLqbOzTDycywi6CdSkAfpidgCQp3Qzg89lJFOhTDLNWTl0KgMuBp7OTkCSlejuwfXYSBdqZ2D3wWeo0QOI84K3ZSUjqqTrds9Rd04C7cEbYSH5PLIe8YugP6tIDAPAvrPXCJEmN8tfY+I9mLnDS2n9Qt2r6M8Bp2UlI6pm63bPUHZOAO3BV2LHcAexKrBFQuw/TBsBviBcoqX7qds9SdxwIXJOdREW8gtg+uFaPAACeJFZ/ejg7EUlS3zj+a/z+fK7qWk3vQ8wMcCEIqV7qes9S56YDDwAbZydSEcuALYCn6tYDMOQ3wKuAJdmJSJJ66jBs/NsxEzgY6vcIYG03EG8MiwBJqq9DshOooEOgGd1p+wKX4eMA1c9DwD3AH4BHgMVEwTsUi4GlwDPEqN+lrb+3ghgvAzF3ev3W7weIbwfTiM/Lxq1fh36/BTGVaCtgS3K24W7CPUvtuQnYIzuJirkB2LspHyaLAFXVg8DNwC3AQqLBH/r1T2lZhanA1sQqY7sCLwB2acXcHh2zKfcsjc/ziULY90V7BoE5TTppFgEq2SBwKzF+5Rai0b+J+GZfRTOBecDerZhHFAmTJ/jvNumepbEdgXvBdOqwKdkZ9NGvgcOxCFAZngR+SczH/Rnwc2J0bl0sI+ZlX7PWn20AvIyYh/xK4KWsefwgdcI1Xzq3a5MKALAIUJ6VRCN/KXAF8QxuZWpG/fckcGUrANYDXgwcRGzh+nKgafckTYwFQOd2bWp3mo8D1A/3E92TPyTWpVg6+o833sbEzJ2jWjHcIMOm3rM0vMuBQ7OTqKjLmvxhsghQL9wLfAs4n+hxWp2bTmUNED0CJ7Ri69afN/mepee6BdgtO4mKujk7gWz7Ao8RN2nD6DTuAz5FNFg2UN03iTi3n8xORMW5h/zPf1Xjbm9WUQRcjitJqT1PA98Gvgz8mBjFL6m/lgCbZCdRUYstAMI8YmCWbySNZT7wNeArxEI7kvIsJ9ajUPuWWwCssS9RBMzMTkTFWQF8E/giMWVPUhlWELNJ1L7lTrlZ42EmvkiJ6uVx4OvAx4nn/JLK8if80tapJywA1vgM8LzsJFSEhcS3/S9Qr8V5pLqxAOicBUDLicAx2Uko3W3Ah4ALgVXJuUga21Jikyq174k6bwc8XhsB52QnoVT3AG8jdhQ7Hxt/qSoWZSdQYQ/aAwAfI7Y3VfPcC3wE+CrNW5ZXqoN7shOosNubXgC8nPjmp2Z5FDiTeM6/IjcVSRNwd3YCFbagyQXAFODzxJKjaoaVxLf9f6K62+xKWuOG7AQq7PbsBDL9PflLMRr9iyuA3ZFUJzOJMTvZ95eqxSpgdgfnuxZ2JKaPZF8Eo/dxN/BaJNXV78i/z1Qtrofmdn+fA8zITkI9tYq4zrsDlyTnIql3LstOoIKuzE4gy8HkV19Gb+Nm4KVIaoLDyb/nVC2O6uhMV9wAa/ZoN+oXK4hpnW4OIjXHNHyk20482jpnNG0WwF8D+2QnoZ64CXgLcGt2IpL6ZgrwCXyk244LiF0UG+V5wP3kV19Gd2MQ+DStilZSY2wCXEX+PahqsX8nJ7vqPkT+iTe6Gw8Cr0ZS07wIuIv8e1DVYj4wqYPzXWlbA0+Sf/KN7sVFwKZIapojgMfIvwdVMU7u4HxX3nnkn3ijO7ESeD8NrGIlcSrwDPn3oSrGvTRwgPQ8XCmqLvEIcCiSmmYK8Fny70FVjne2fdZrwEEi9YhfAHOR1DSbAteQfw+qcsxnmIHSdZ8GeHArVG1fBk6jgVNXxmESsCWwfSvmEjfM2evEFGDj1t+ZCmzQ+v0TxGOVFcQ4GYDFRG/LI8DDwEOt398L3An8oZcvSFrLLsDFwK7ZiVTcGQxz/6z7c9RrgAOzk1DHVhOzN85MzqMEU4CdiaWN92z9+gJgG/o/BfIpohC4E7iDWIPhN63fD/Y5F9XXEcA3WVO4qjMXAG/MTqLfDiG/28XoPJ6igW/atWwOvA74JPBz4nxkX5OxYhlRdJ9NXLvNun1S1BjvJnqmst/TVY9HiB7CxrmG/JNvdBaLad5iFRsDJwBfIb5JZ1+DbsVvgXOB44FZXTtbqisH+3UvBoFj2zv99fAq8k++0VncQXR1N8FuwN8DP6YZU5tWAdcB7wF26ML5U724sl9342Ptnf76+DH5J99oP35J3ATq7IXAB4k9C7LPd3bc2DoXfzGhM6o6eBExpiT7PVmXuApYr60rUBN++69m/ATYaJjrWQdzgPcSg+Wyz3Op8StinrKPCZrHlf26GzfT4IGT15J/AYz24mpis6Y6GSAWLTqfmH6TfY6rEk8B/0Xs8T7Q9llX1biyX3fjbmCLtq5AjRxK/gUw2otLgOnDXcyK2pCYc+tGJROP24G3A+u3dQVUBVOBL5H/HqtT3A3s2M5FqJsryb8IxvjjfOrznGozYr2CJeSf17rFUmLLZ1eCrAcH+3U/bgG2auci1M3uxLSH7AthjC++Rz0a/x2Br2E3fz/ClSCrz8F+3Y+rgJntXIQ6+jr5F8IYX1xO9bv95xLfSp8m/3w2KVRdDvbrbgwS96A6fJGakDlUY6U0I+aBV3nA32bEQiV+488JVZOD/bobi4HXtHUFauzD5F8QY+y4nupOT1kPOJ14Hp19HpscqhYH+3U/zqehy/sOZwaxY1n2RTFGj99R3UV+jsbnlqWEqsPBft2NO4Aj27oCDfA35F8YY/R4BNhppAtYsO2BH5F//ow1oWqo8mC/XwG/LyCPoVhELJLV710/izcJl1QtPf4EvHykC1ioAeKZ5RPknz/j2aHyHUV1H5X9B/G4bz3gzUQxkJXLfOBk4jGKhnEk+W8YY+RYRWxpWyW7A78g/9wZw4fKVtVtfFcSC3gN5xXAl4GH+pDHo8AXiN1QJ411spvuh+S/cYyR490jX7riTCIG+Tmtr+xQmao82G8p0WsxlgGiYT6L6Hle1YVjryIGR5/dyqGv3fxVrjB2IJ4xVfk11NmXifEZVbA5sZiPA2zK5+e9PJsCFwIHZifSgbuAY4DbOvi7GxBbeu8J7AXsQkwTnkMURBsDK4A/EkXGE0QvwnximesFwA3E6qFq07+RXzkaw8cvqM6AlRNw+d4qRZbs1210P35KNNaNVdXdtiYDJ2UnoWEtAd5I+cu2TgE+BnyL6k5PlNSZLwOHEFPIG2tKdgIdOhI3BinRKuAvgXuS8xjL84FvEjcASc2xCvhH4N+zEylBVQuAk7MT0LA+AFyWncQY9gW+DWyTnYikvnoCeAvw/exESlHFATVzgPtwA4TSfJeY8pf5nHYsbwD+P6q/EVGTZd2zSn5fa2x3E4P9bs1OpCRVHANwEjb+pbmfNSsylup0otvfxl9qluuIxchs/NdRxQLg/8pOQM+yGjiF2J2qRFOIhTU+RTV7vCR17is42G9EVRsDsB+xxrTK8Ung0uwkRrABcBFwWHYikvrKwX7jULUCwMF/ZbmJ+JCVaCbwA2LlLknN4WC/capSl+g0YhWlmdmJCIh5/vtQ5nO1WUSvxEuzE1HXOQhQo3GwXxuqNAbgCGz8S/JhyvyQbQZci42/1DQO9mtTlQqAE7MT0J/dQmyIUZqNiW/+u2cnIqmvHOzXgao8ArD7vxyDwAHAz7MTWcdGwBXAi7MTUU/5CEBrc7DfBFRlEKDd/+X4FOU1/usTA35s/KXmcLDfBFWlALD7vwyLgA9mJ7GO9YhVCF+ZnYikvnGwXxdUYQzANOC12UkIgP9J7G1diknAf+A8f6lJHOzXJVUoAA4nBncp15WU19X2z8BfZychqW8c7NdFVSgA7P7PtxI4IzuJdbwJODM7CUl9sYrYbfQUYEVyLrVR+hiAqdj9X4LPA7/NTmIt+xG7+lVlFoukzjnYr0dKv4EeDvwoO4mGexTYufVrCTYDfgNslZ2IUjgNsFkc7NdDpT8CODI7AXEm5TT+U4DzsfGXmsDBfj1mAaDRLAK+mJ3EWj4BHJidhKSec7BfH5RcAGwNvDA7iYb7EOUMuDkBeFd2EpJ6ysF+fVTyIMBXZyfQcHcC52Un0bIV8IXsJCT1lIP9+qzkAuCI7AQa7kxi+l+2AWLE/+zsRCT1jIP9EpQ6C2AKsBjX/89yG7AH0R2X7X240YfWcBZA/VwHvA6f9/ddqWMAXo6Nf6YPUUbjvzvw4ewkJPXEauBzONgvTamPAOz+z7MQuDA7CaI4/SKxGJSkenkI+Bt83p+q1ALA6X95zqGMb/9nED1BkurjIWJA76eApcm5NF6JYwA2Jd4kpT6eqLPHgG3I3/FvW2Lp4ecl56HyOAagOp4k7uX3Az8FrgB+gtP7ilFiD8D+2Phn+V/kN/4QW/za+KskJX5ZkiakxIZ2v+wEGmoF8NnsJIDjiD0gJEk9ZAGgId8EHkjOYSpwVnIOktQIpRUA04B9s5NoqBLW/H83sfOgJKnHSnuu9XLgZ9lJNNDvgBcl5zAHWIDrP2h0pd2zpMoqrQdg/+wEGqqEb/8fxMZfkvqmtALA5//9txz4z+QctgFOTs5BkhqltALAhV/670Ji34VM/0yM/5Ak9UlJz9N2AO7KTqKBDgauSTz+dsB8XPJX41PSPUuqtJJ6AA7ITqCBHgB+nJzDB7Hxl6S+G+9KgJOJAXrHEs/pdwBmAev1KC/1xwXAYOLxtwL+MvH4ktRYYxUAM4DTgf8HeH7v01GfnZ98/Hfht39JSjHa87Q3AJ8kvqWpfu4lnr9nbXKyYSuHjZOOr2pyDIDUJcONAZgEnEksDWvjX1/nk7vD2SnY+EtSmnWr6QHgv4hv/6q3lwC/Sjr2AHAHMZZEaoc9AFKXrDsG4CPY+DfBA8CvE4//Kmz8JVXbpsA8YG9gJ2BuK2YTY5tmAiuBJ4HHWr8+REx7HoobgEf6nfhw3kB0CRv1j6+Q6wLyz4FRzZCyrA8cTWybPp/uvJ8HgRuBc4DXAtP79mrWMoMYkJX94Tb6EyeQZ1Pg6RHyMoyxQuqnAeAI4DzgcXr//l4KfAl4BX183PX3PXxBRlnxDLmD7947Ql6GMZ6Q+mED4B3EDqVZ7/U7gFPp8TLpk4GHE1+k0d/IXvnvZvLPgVHdkHppGnAGZbWJ9xHr8czo9osdIJbgdZGf5rg08dgvAHZPPL4kjeT1xLP9cyirTdwK+BRwC/Dqbv7DA8Ax3fwHVbzLE4/9psRjS9Jwtga+S+yMum1yLqPZEfgB8B0i5wkbINb4VzM8SYw4zXJi4rElaV3HEY8lj81OpA3HA7+lC4O5B3A+dpP8gpiXmmE34EVJx5aktU0FPgdcRGxsVzUzienUn2ACm/INtP4hNcN1icf2UZOkEmwCXEaM8q+yScRGfVfQ4cyuAdyNrUkyC4CjEo8tSRAboF0HHJicRze9ErgW2LLdvzgJp9Y0xSBR+S5LOPZMYrnLjruqpBb3AlCntgeupuyBfhNxD3AYcOd4/8JwuwGqnm4lp/EHOBwbf0l5tgOuob6NP8RrvAzYYrx/wQKgOTI3/zky8diSmm0m8H1gm+xE+mB7oggY18BGC4DmuCXx2AclHltSc00l5vjvlp1IH+1GzG4Ys9fVAqA5bk467mY41VRSjrNp5heQA4GPjvVDFgDNkdUDcEDScSU12zHAadlJJPo7xljgyAKgGe4nNrfI4EqTkvptK2IL3ybPGpkEfIU4F8OyAGiGrO5/gP0Sjy2pmT6Li9wBzCY2NxqWBUAz3JZ03CnAnknHltRMryPW+Fc4EThiuP9hAdAMdycddxdgetKxJTXPVODj2UkU6DMMcy+2AGiGhUnH3SPpuJKa6W9x1tFwdgZOWfcPLQCa4Z6k4+6edFxJzTMD+IfsJAr2PtbZ+8cCoBkWJR3XHgBJ/XISMCc7iYLNJc7Rn7kZUP09BGyedOwFRNeT1C1NntalkU0i9jt5YXYihbsD2JVWuz8lNxf1wT1Jxx2gGWtvqxn8oqQ62JlYm+Wn4COAJrgv6bhbAtOSji1JGt5bh35jAVB/jyQdd7uk40qSRvZGYsCkBUADLE467vZJx5UkjWwmcDBYADTBkqTjzk06riRpdIeABUATZBUAmyYdV5I0OguAhsh6BGABIEll2hOYbQFQf1k9ALOTjitJGt0AMM8CoP6eSDquPQCSVK5dLQDqb3nScWclHVeSNDYLgAZYkXTcGUnHlSSNzQKgAbIKAFcBlKRybW4BUH9ZjwCmjv0jkqQkG1oA1F9WD4AFgCSVa0O3A66/KcCqhOOuBCYnHFf1lrUdsPdJ1c1yewAkSWogC4D6y+qKz3r0IEka2xMWAPVnASBJWpcFQANkTcezAJCkclkANEBWD0DW9ENJ0tgetACov6wC4Kmk40qSxna7BUD9ZT0CeDTpuJKksc23AKi/jZKOuzjpuJKksVkANMDspONaAEhSmQaBGy0A6m/TpOMuSTquJGl0NwJLLADqL6sAsAdAksp0FbgSYBNkPQK4L+m4kqTRWQA0RFYBsDDpuJKkkT2GBUBjZD0CsACQpPJcQGuhNguA+ts66bgP4GqAklSabwz9ZkpmFuqL7ZOOOwgsAnZJOr7UTZOyE9CoJgG3Ai/MTqRwC4CfDf2HPQD1NwfYIOnYtycdV1KzrAbOyU6iAs4izhVgAdAU2yYd9+ak40pqnm8AD2UnUbB7Wav7HywAmiLrMcAtSceV1DxPA/+WnUTBzmKdbdotAJphu6TjWgBI6qf/AO7KTqJAC4Avr/uHFgDNsEPScRfgtsCS+mcF8N7sJAp0GsPMyrIAaIbdko67Crgp6diSmuki4DvZSRTkAuDy4f6HBUAz7JF47OsSjy2pmU4jVrxrusXA9L+8uAAAHQFJREFUu0f6nxYAzbA5MR0wgwWApH57ADiJtaa8NdBq4BTg/pF+wAKgObJ6ASwAJGW4BPh0dhKJzgK+N9oPWAA0R1YB8DBwZ9KxJTXb+2ltfNMwVwP/PNYPWQA0x+6Jx74m8diSmmsFcDzNWpTsFuB1wDNj/aAFQHPsk3jsHyUeW1KzPQ4cDdyTnEc/LASOAJaO54cn0exBEk0ySGwNnDEydiNiNOp6CcdWvbgpjzq1LdE1nrUyaq8tBA6jjYWQ7AFojgHgpUnHfhz476RjSxLE7qQHAbcl59ELNwH70+YqiAOsszawam3/xGNfmnhsSYLYEGd/6jUw8GrgQGLqY1sGgGVdT0elyiwALk48tiQNWQocCZxLtR+Bryam+h1Oh+34JODnwMu6mJTK9SdgY8YxOrRHfgv8RdKxVQ+OAVA3HQN8DdgkO5E2LQH+CvjBRP6RAVyopUnWB/ZKPP4FiceWpHVdTEyRvig7kTZcQKzrMqHGH6IAGHWlINXOYYnHPj/x2JI0nPuJefPHA3cn5zKaBUR3/xsZZXnfdk0GHiKeJxj1j5+Q60byz4FR3ZB6aSqxkVBJbeIi4J3AtF696PcV8CKN/sRKcp93/d0IeRnGeELqhxnAqcSUwaz3+nzgZKIo6anpRJWR/eE2+hMnkmc28PQIeRnGWCH10yTgEOCrxEj7Xr+/HwW+QMzY6uuA1xOI1eKyP+BG7+Or5Dqf/HNgVDOkLDOA1xA7DHarZ2AVcD1wNnAUPezmH866FcZHgH/oZwJK8SCwJXk31EOBy5OOrWpzGqBKMQvYuxU7AXOBbVp/PoNYAn0V8Edi7YEniLEF84HbiUF9NxBT+lKs+2EaAP43McpQ9fZS4JdJx54E3AHsmHR8VZcFgNQl6+4FMAi8GfhX7G6ruzckHns18JnE40tS441WTb8eOIfo1lD9/J7YHSur0NuAGHg6O+n4qiZ7AKQuGW03wG8DuxBTBB/qTzrqo7nAyxOP/yTwpcTjS1KjjbeaHgD2A45t/bojMdCh5/MT1VPnAqcnHn8z4B5iGqo0HvYASF1S0ofpfwDfyE6iYR4EtiZGqmb5CvB/Jx5f1VLSPUuqtNEeAfTbz7ITaKDNiX2kM30IWJGcgyQ1TkkFwN3AA9lJNNDJycdfBHw9OQdJapzSutMuJGYfqH+WE48BFifmsCVwJ7F4hjSa0u5ZUmWV1AMAPgbIMI0Yf5HpfuDLyTlIUqOUVk2/DPh5dhINdDvwInIXf5pDLI05MzEHla+0e5ZUWaX1APwG+FN2Eg30AnLXBAB4GPi35BwkqTFKKwCeIYoA9d/bsxMg1iVYkJ2EJDVBaQUAOA4gy5uIwYCZVgDvSc5BkhrBAkBD1gPemZ0E8H3g0uwkJKnuShxQsymx90CJxUndPUbsZ/3H5Dy2AW4Fnpech8qTdc9yd9T2/YkY2/MH4DrgCuDHxNRjaUS/Ij5wRv8jc2+AtZ1O/rkwyoss2a+7LvEQcCaxl4ySlfot+0fZCTTYGcCU7CSAz+DjIKlu5gAfJKYeH5OcS+OVWgD8MDuBBtsOOCE7CWAQeBt2F0p1NAf4LvA53FU2TYljACC+gT4CbJydSEMtAP4CWJmdCDEr4OPZSagYjgGon+uA1xHjBdRHpfYArASuzE6iwXYB3pydRMsncFaAVGf7EyvA/kV2Ik1TagEAjgPI9kFiamC21cAp5G5WJKm3diCKgKOzE2mSkgsAv/Xl2hE4KTuJlvuBU7EbVqqzDYGLgPdnJ9IUpY4BGHIrsUmNctxLPA4oZSDe2cDfZSehVI4BaIavAO8gVgdVj5TcAwDOBsi2DTESvxTvBy7PTkJSz50MXEXMFlCPlN4DcDiOBcj2KNELsCQ7kZY5xIZR2fsWKIc9AM1yN7FewK3ZidRR6T0AVxMNkPJsAvxrdhJreRg4kXIeS0jqHQcH9lDpBcAzxOYwyvV2YPfsJNby38QARb+VSfXn4MAeKb0AAPhWdgJiMvCp7CTWcQHwz9lJSOqLycDHgC/jyoFdU/oYAIiL/RCuCliC44DvZSexjv9F9FCoGRwDIFcO7JIq9ACsAC7OTkIAnEt5W/S+C2eLSE3iyoFdUoUCAHwMUIptgA9nJ7GOZ4hvA9dmJyKpbxwc2AVVeAQA8RjgQdxDugSDwCsob6vejYArgBdnJ6Ke8hGA1rYK+Efg37MTqaKq9ACswNkApRgAvkh5A3EeJ9aNuCE7EUl94+DACahKAQA+BijJbpQ5JWcpcBRwc3YikvrKlQM7UJVHAADTiNkAM7MTERAL8ewL/DY7kWFsTGwm9bLsRNR1PgLQaFw5sA1V6gFYDlyYnYT+bBrwn8D07ESGsRQ4lPhGIKk5HBzYhioVABA7RKkcewAfzU5iBE8SNwGnCErN4sqBNXYr0R1nlBGDwGtGvWK5pgCfJ/88Gd2JLNmv2+gsHBw4iqr1AAB8NTsBPcsk4ppslp3ICFYS+4qfQRQrkprDwYGjqNIgwCFzgN9jVVea7wPHkvstbSwnAOcBM7ITUcccBKhOODhwGFXsAXgYuCQ7CT3H0ZT/zO1C4ABgUXYikvrKwYHDqGIBAA4GLNVHgCOzkxjD9cT0xSuyE5HUVw4OXEcVHwFAFC73AHOT89BzPUo0sAuzExnDZKJgeR/V/Rw0kY8A1A1fIcYGrchOJFNVewAGiWe5Ks8mwHco/zn7KuADxEZCi5NzkdRfDg6k2t98dgDupNqvoc6+SnzIqmAzIt9XZyeiMfl5L8+mxPiaA7MT6cDdxLiA2zr4u88Ddgf2BPYi2qRZxGq1M4kNygaINUkea/36EDB/rbgBeGRCr6DBLiV/nqkxcrxn5EtXnEnA6cDT5J83Y+RQmaYCXyL//dFJLCP2EBnLZOCVwNnA74hexIkeexC4ETgHeC1lrqxarMPJf/MYo7+5/3LEq1em3YjRwtnnzhg+VLZ3E2tvZL9P2o2VrdyHcxDwNeKbeq/zWEoUUq/A3q5xuYn8N48xcjwF7Dfi1SvTJOBUYovh7PNnPDtUvqOIhiz7vdJJfInozVgPeAvwm8Rc7iDuQ9PaO/3Ncgr5bxpj9HgE2HmkC1iwbYEfkH/+jDWhangRMUYr+/3SSfwKuK+APIbiPuLxZOkDq1NMJxYHyr5IxuhxOzB7hGtYukOJbY+zz6GhKtmEGGmf/Z6pS9yFA5WH9a/kXxxj7LiBGCVbResR3XH9eA5ojByqlioPDiw1vgNs3c5FqLs5xLPm7AtjjB0/I6bPVNXzgU/h+y0rVE2nAs+Q//6pSywl9jZRy1fJvyjG+OIKqj/dZQ7wMSwE+h2qriOI+fDZ76G6xCDwadwYD4jpW4PkXxRjfHEp9Xjjbkd0cbp+QO9j+fguiQpW5cGBpca1wMbtXIS6upz8i2GMPy4gnq3XwRzgTGJZ4ezzWrdYSnzTce+PenBwYPfjtzgugFeRfyGM9uIS6jW95XnA/yTm8Gaf26rHbcDbqNf7Q8HBgd2PhcBO7VyEOrqG/AthtBdXE1t11skk4BDgf+PjgXbiKeA/iamXroRWfw4O7G7cS8N7yg4h/yIY7cdPiA006mg2scxo5qpipccvgLfjs8wmcnBgd+MWqjvduiuuJf8iGO3Hr6juYkHjtTPwj7iE9WqiIPonYmCYms3Bgd2Na6jP+Kq22QtQ3bgT2OW5l7SWXgC8jxgQtYL8c9/rWEkU52cQsyektTk4sLvx8fZOf71cQ/4FMDqLxcRuWE2yIXA88EViq9Hsa9CNGARuJhZOOpr6PuJR90wBPkv+e7cOMQgc297pr4+Dyb8ARufxNPDm51zV5ng+8eH9OLF64p/IvyZjxWPEN7iPA28gpkZKnajqtsKlxWJgq5FOct1H2V4DHJidhDq2GvgQMb++6SYDOwJ7Aru3Yldge/q/quIfiUc1d7R+vRG4ntisZHWfc1F9HQF8EweGTtS3iIL8OepeABxETDFTtX0NeAfRK6Dn2oIoBLYnFgN5PjGYcig2JbpWNyIKifVYsx/D48AqYvrd063fLyE2PVoMPNj6/SPAIqLRf7APr0mCGA90MVHsqnOvAf5PdhIZHFRSj/g1sC2SmmZTHNM10VhA9fdf6chexLea7AtgTDwWE92CkprFwYETj9PaPus18XXyT77RnRgkduEbQFLTuHJg53Ev9diArW1bAU+SfwGM7sUlOMpcaiJXDuw8TungfNfCmeSffKO78RDwWiQ1zYtYM+vEGH8soP6D/4c1g+gCyb4ARndjkFg8Z30kNYkrB3YWBwydwMntne9KW0nsK97YlZFqahKwD3AM8FPg4dx0JPXJ0M6Rs4GXJOdSJSuJR6iNM0BMJ8uuwIzexApigOA0JDXFNKqxUmYp8RitKYFNG0k9CLwnOwn1zHrA+4ntMA/KTUVSnxxIPOLV+GxMbJjXuAIAYkGJi7OTUE/tDFwJnMuaFe8k1dPR2QlU0CHZCWTaAacFNiUWEbvsSaqnuuye2c+4vqMzXSMfIP8iGP2Lq4mNdCTVx8bEo93s+0vVYhUwu4mPAIacTexipmY4iKh6z8MFhKS6eDENndc+QQPAvCYXACuBvyWqRzXDAPBW4HZiv3FnC0jVtld2AhW2a5PWARjOfcDmRBWp5phBLCf610QBeCPRJSapWt4K7JudREXd1eQegCEfAP6QnYRSbA18CphPbDIyJTcdSW3aLjuBCtvVAgAeJ7qD1VzbEssJ/xZ4CxYCUlVsm51AhW3u4Ik1Lsb5pAoPAP9B9A4sTc5F0sjuB7bITqKiFloArLENcCsuHKM1ngC+RswY+X1yLpKeaykwMzuJilrsI4A15uBAMD3bhsC7gDuJ6YMHjP7jkvrMXUA7t6E9AGEecAWxvaQ0mvlEr8BXgUeSc5GabjkwNTuJilpuARBTSC4DZmUnokpZDlwEfJnYX8LeI6n/luAXt041/hGAjb86NQ14E9Fz9Hti46EDaOYGW702AOwHfDI7ERXniewEKuyJJvcA2PirF+4DvgWcD/ySWHdb7RsA9gdOAF4PbNX68ybfs/RctwC7ZSdRUTc39cNk469+eBD4EXApcDnwaG46xdsEOBw4CjiS4fdsaOo9S8O7HDg0O4mKuqyJHyYbf2VYRfQIXEo8Nvg18ExqRvmmEctwH0w0+i8BxlqevIn3LI3ss8A7s5OoqHObtuKZjb+yTAZe3ooPAU8BvwJ+ClwH/Iz6Lzq0EfH6DwBeSTT401MzUtXNz06gwuY3qZq28VfJBoHbgN8QSxLfRDzffDAzqQmYBey9TuzExAdJNumepbEdTjxmU/sObcqHycZfVfUIcDOxSuXdwMJW3EP+COjpxAqaOwO7Aru0Yldgyx4dsyn3LI3PpsDD+L5o1yAwpwknzcZfdbWYKAbuI+ZDP9L6dXHr1yVEkfCn1s8vIz74zwB/bP3ZdGJ7ZIhn8uu3/nsWsHHr16Hfb0mMxp/b+nXTnr2ykTXhnqX23ATskZ1ExVwP7FP3MQDziO4hG3/V0aateHF2IlKiK7EAaNdVUO9FS1zeV5Lq76rsBCroKqhvd9q+xPzQjbMTkdRVdb1nqXPTiS28vd+Pz2PEFsrL69gDsA1wCb4ZJKkJngYuzE6iQi4g9jKp3SOAGcC3gc2yE5Ek9c03shOokD+fq7oVAGcR3f+SpOb4CXBndhIVsIBYdAyoVwGwPXBqdhKSpL5bDXw8O4kKOIu1Niir04Ca84C3ZichqafqdM9Sd61H9AJsk51IoX5PrMa5YugP6tIDsD6xZagkqZmeAc7JTqJg/85ajT/Up5o+DrgoOwlJPVeXe5Z6Ywaxh8aO2YkUZgGxWNLytf+wLj0AR2QnIElK9xRuDzycM1in8Yf6FAA7ZCcgSSrCj7BHeG0XAJcO9z/q0p12M7B7dhKSeq4u9yz11lzgRlwKfjGwJ3D/cP+zLj0ATb/IkqQ1fg+cxFpT3hpoNXAKIzT+UJ8CYEl2ApKkovyAZs8KOAv43mg/UJcC4IHsBCRJxfkA8OPsJBJcDfzzWD9UlwLg7uwEJEnFeQY4mhgP0BS3AK8jXvuo6lIA/DA7AUlSkR4HXgMszE6kDxYS0+KXjueH6zKidgYx2nH97EQk9VRd7lnqv52Ay4h9Y+poIXAYcNd4/0JdegCeAr6VnYQkqVh3AvtRz8cBvwVeQRuNP9Srmt4WmA9My05EUs/U6Z6lHBsD3wUOzE6kS64GjgeWtfsX69IDALAI+EJ2EpKkoi0FDgX+FRhMzmUiVgPnEs/82278oX7V9AzgWuDF2YlI6om63bOU67XA14HZyXm0awnwV8RaBx2rUw8AxFiA44A/ZCciSSreJcRSuRdmJ9KGC4id/SbU+EP9CgCIZQ+PBh7NTkSSVLw/ACcChwC/S85lNHcCRwFvZJTlfRX2IqYGrjYMozYh9dI04DTgXvLf60OxiNji2AHubbIIMIx6hdQPU4mNdBaQ916fD5zcyqUnmjCgZi/gCqo3yEPSczXhnqWy7EPsLPiXwKY9PtYy4GLgPOBKelz0NuXDZBEg1UNT7lkqz3RinMCrWr/uwcTH0Q0CNwFXEQ3+VcDyCf6b49akD5NFgFR9TbpnqWyzgXnArsALgF2AzYANicWGntf6uT8Saw88ATxEdO3fTjxeuIHE7eyb9mGyCJCqrWn3LKln6jgNcDQ3EitApVVckiSVoGkFAFgESJLUyAIALAIkSQ3X1AIALAIkSQ3mgBoHBkpV4j2r/zYlRrvvDewEzG3FbGKRmpnASuBJ4LHWr0Oj3YfiBuCRfieu0flhChYBUjV4z+q99Ym57kcAhxHT2yZqNXAzsXf9lcT99uku/LuaAD9Ma1gESOXzntUbA0Rj/xZiR9UNe3y8ZcC3iBXvforLPKsA7h1gGGWHumsD4B3krnl/B3AqbnajAlgEGEa5oe6YBpwBPEz+NR2K+4DTgRk9fN3SmCwCDKPM0MS9HriH/Gs5UtwJvLpXL14aD4sAwygv1Lmtge+Sfw3HG99p5awecUDN6BwYKJXFe1ZnjgO+CszKTqRNy4BTgAuzE6mjJi8ENB4uFiSpyqYCnwMuonqNP8QaAxcAnwDWS86ldqymx8eeAKkM3rPGbxOiG/3A7ES65MfAscTWuuoCP0zjZxEg5fOeNT7bAZcS+9TXyc3AUcD92YnUgR+m9lgESLm8Z41te2LFvW2zE+mRe4hFi+5MzqPy/DC1zyJAyuM9a3TbAdcC2yTn0WsLgf2BB7ITqTIHAbbPgYGSSjQT+D71b/whejkuo5oDG4thAdAZiwBJJZlKzPHfLTuRPtqNmN3g7IAOWQB0ziJAUinOBg7KTiLBgcBHs5OoKp+nTZxjAqT+8Z71XMcQ3/6bem5WA8cD38tOpGqa+obptnlEEbBJdiITsAyYQuwOJpXKe9azbQXcSjz/b7IlwJ7AH7ITqRIfAXTHDcCrqO7jgGXA4cAuwLeTc5E0fp/Fxh+iB/ac7CTUbFXcQGgp8JJ1XsfRwL0F5GYY64bWeB3516O0OGJCZ1SaoCoVAcM1/kNmAp8GVhaQp2EMhcJU4C7yr0dpsQCYPoHzKk1YFYqA0Rr/te0N/KqAfA1jNRpyOvnXotQ4bQLnVeqKkouA8Tb+Q6YQN5wnCsjdaHYIZgAPkX8tSo17iR4SKdU8YmBg9gdi7XgU2LfD17M9Md0o+zUYzQ3B28i/DqXHKR2fXamLSuoJeIz2vvmP5GXAzwt4PUbzoukmAbeRfx1KjwU4ZVSFKKEI6FbjP2QScCKxM1f2h91oTmTJft1G+3HAsFdSf+Y6AP2RvWzwUmJ6zC+7+G+uBr4FvAj4ADE+QJJK8dbsBEpnF0l/ZSwb3IvGfzhbAh8ETgYm9/hYaq6se1Zm74M6swzYAngqO5FS2QPQXzcChxED8frhsdbxet34A9xPDE56MXBlH44nSaOZCRycnUTJLAD6r1/LBi8FjgR+3ePjrOsG4nHHAcAlfT62JK3tkOwEpOH0cmBgtwf8TcT+wPfJHxBk1COyZL9uo7O4friLKZVgHvAw3X3DPwLs088XMU4HAleTf0Mwqh1Zsl+30Vmswq3aR+QjgFw3EF3l87v0781v/Xu/6dK/103XEs/jDgKuSc1EUlMMEF+0NAwLgHwLiJX5Pg2s6PDfWAGc2/p3ulVM9MrahcBl5H6rk1R/u2YnII3HdsDXgT8xvu6tp1o/v12/E+2i3YAvE68lu7vQKD+yZL9uo/M4d5jrKVwHoFTrEzMFjgJ2IObYzyIG990P3A38kFhT4E9JOXbbHOBvW7FZci4ql+sAqF2XEWuhaB0WACrNVOBNwHuA3ZNzUXksANSum4E9s5MokWMAVJoVwHnEB/Zw4FJgMDUjSVW2YXYCpbIHQFWwNfAWYqXB7ZNzUS57ANSuxcDzs5MokQWAqmSAWNnrJOAEYEZuOkpgAaB2LQemZydRIgsAVdXGwBuIQYN7Jeei/rEAULssAEZgAaA6eAmxC+GJxGwJ1ZcFgNrlI4ARWACoTiYDLycKgTcRUwtVLxYAatdCYjq11mEBoLqyGKgnCwC1y2mAI7AAUBNYDNSHBYDa5UJAI3AdADXBKuCnwOnElMLDgLOBWzKTktQXt2cnUCp7ANR0c4itio8GXgNskpuOxmAPgNr1TuDz2UmUyAJAWmMyMaXw0FYcBEzJTEjPYQGgdh0KXJmdRIksAKSRbQLs14r9gRfj4kPZLADUjkGil29JdiIlsgCQxm8Ksbf4/sABwCuBbVMzah4LALXjemCf7CRKZQEgTcwORA/BN7ITaQgLALXjbOC92UmUygJA6g4biP6wAFA7Xk3sKKphWABI3WED0R8WABqvx4AtiL0ANAzXAZAk1dEF2PiPygJAklRHjssZg48ApO6wi7g/mn7PmgTcCrwwO5HCLQBegJ/LUdkDIEnVsRo4JzuJCjgLG/8xNb2alrrFm01/eM+C6cA9wGbJeZTqXmBnYEV2IqWzB0CSquVp4N+ykyjYWdj4j4vVtNQd9gD0h/esMBW4DdgxO5HCLAD2wNH/42IPgCRVzwpc4W44p2HjP24WAJJUTRcB38lOoiAXAJdnJ1EldqdJ3eEjgP7wnvVsWxDTAmdlJ5JsMbAncH92IlViD4AkVdcDwEk0uwBdDZyCjX/bLAAkqdouAT6dnUSis4DvZSdRRXanSd3R5G9g/eQ9a3hTiV3vDslOpM+uBo4AnslOpIr8MEndYQHQH96zRrYR8BNiGlwT3AK8ElianUhV+QhAkurhceBoYpXAultIfPO38Z8ACwBJqo97gYOIBrKuFgKHEQMgNQEWAJJUL4uIIuC25Dx64SZgf+Cu7EQkachyYhyA0bt4etxXQwAbA1eSf926FVcBM7t6hiSpCx4m/wZZ93hw3FdDQ9YjpggOkn/9Oo1B4N+BKV0+N5LUFT8n/0ZZ9/jpuK+G1nUMsIT8a9huLAZe04PzIRwDIHXLddkJNIDnuHMXA7sT+wdUxQXElMYfZCciSaN5Bfnfluoe+437amg0xxGD6LKv50gxnxjlL0mVMBl4iPybZ13jQeyx7KapxNa5Jb1nFwHvBKb18HVLUk+8j/ybaF3j79q4Dhq/GcCpxJTBrGs7HziZKEokqZKmE99ishvLusXviYZKvTOJ2Efgq8Ayen9NHwW+QMzpd3lnSbVwAtWeclVaDALHt3UFNFEziJH3n6Z7PQOrgOuBs4GjsJu/CFZeUvd9BPiH7CRq4sPAv2Qn0XCzgL1bsRMwF9im9ecziE2IVgF/JNbmf4IYWzAfuB1YANxATEOUpFobAL5J/rfnqsd/4cA/SVLFTALOxMcBncQg8DFs/CVJFfZ6Yoe27Ea1KrEIn/lLkmpiOvBeYi57dgNbajwIvKd1riT1gYMApf4ZIFazO7b1647EQKqmzX9eATxGrEZ3HfA9Yi+FwcykJEmSpNr7/wHxFeumfWTJ7QAAAABJRU5ErkJggg==;" vertex="1" parent="1">
          <mxGeometry x="635" y="212.5" width="45" height="45" as="geometry" />
        </mxCell>
        <mxCell id="afE-ISjAWiAgDgSf9kAT-22" value="Transform" style="text;html=1;align=center;verticalAlign=middle;whiteSpace=wrap;rounded=0;fontStyle=1;fontSize=14;" vertex="1" parent="1">
          <mxGeometry x="695" y="220" width="60" height="30" as="geometry" />
        </mxCell>
        <mxCell id="afE-ISjAWiAgDgSf9kAT-23" value="" style="rounded=1;whiteSpace=wrap;html=1;fontStyle=1" vertex="1" parent="1">
          <mxGeometry x="840" y="200" width="130" height="70" as="geometry" />
        </mxCell>
        <mxCell id="afE-ISjAWiAgDgSf9kAT-24" value="" style="shape=image;verticalLabelPosition=bottom;labelBackgroundColor=default;verticalAlign=top;aspect=fixed;imageAspect=0;image=data:image/png,iVBORw0KGgoAAAANSUhEUgAAAIAAAACACAYAAADDPmHLAAAACXBIWXMAAA7DAAAOwwHHb6hkAAAAGXRFWHRTb2Z0d2FyZQB3d3cuaW5rc2NhcGUub3Jnm+48GgAAC5pJREFUeJzt3X9sG+d9x/H39zlStmJbspJYoiXFdhYv7o80tdwtw9pkm5f1jybLMBSth9SR47YIgjYJjQTduh8YIBTFsKBADMvZihbbHJtOVghoh7VdmhVNtqEJ0np1HSNNVzeuEyuyTNmqftiKZYm857s/xLNV13JM8nhH6p4XfLIo8J77Ct+PyONzvCM4juM4juM4jpMsEncBleh+YqC5kD6f8TCdil2u0KLQArIcZZlAS+muy1RoCtYTxQfOlG6dE9UpYEphAnRK1JsST04VTGro9ENbpiL/xWJQfwHo6zOZ1rVr1DPrBfOboDcpkhHoQuhA6QRaI6jkHDAM5EFOCpwE3lD0dc/Y11eONr/5Wt+W2QjqqKl4A/CVr6Q7pps3iWc+oGo3CrIRuAVojrWuq1ME/k+VwwKHwRzUWf/AyJ9vezvuwsoRbQAGBrzV+ZkPqvJhhDuA24BrIq2htoqgP1aVl0R4PlVc8sLQY1um4y7qSmoegPf2DTSNtc3eraJ/CtwFXF/rbdaRcwrfFeGbsypfH8vedybugi5VswB0Pbn3Zt+aTwGfBNprtZ0Gch7kW4r/1ZHs/d+Lu5hA6AHo3P3Mu6zaL4B+rBbjLxI/UNG/GXlk2wtxFxJag7qe3Hud75svIWwDvLDGXeSe89VkT+/Y+npcBYQSgMzu3B+g5IDuMMZLmGkV/mrkkd5dcWy86gBk+nOfB/4OMNWXk2TyVH6s6wH6Nhej3GpVTevoz/018PfVjuMA6PbMdUM5VCPdb6r4uTrTn7tb4J9wO3phumXZDw/PvP3cv70Y1QYral7Hl/YtY6kcEaUr7IIcZnw174tqxzBVyUrSxHbiaf45YAg4hTKCcBJlHOGsKJPWyKTAGVW/AGAwM6g5F6zsY5eI2GsAPDxjxbaqlVYDLWpYIZY2hHaFTmCVQqfAyoh/xyUpsX8BPBDFxip6BMj0574P3B5yLfPoWyCHUA6pcATkDdL22Mhntp2q3TYvb93OPStnPXOjivkNVdaD9oD0AOup0b6PwsTIWPeqKHYIyw/AwICXyc9MA+mQahgFXkD0oBU5lDrvHRr+3CdGQxq7Zq5//J9XNC1Nv9+KbETZhPCHwNqwxrew8VS293BY4y2k7KeAVadnbqTK5qvwilGe9Y399qn25gNs2eJXM14cRj//6bPAi6UFgI5d+24Rw11YuRvhg1T4FAtglA1AzQNQ9kNYqmiqPRY/LSrHrOgxq03HG7H5C5lduvQt4A1EjgGT1YwV1b5HxQmtQjPoR0XloymKmunPHULle6AHfcyh09lPHEVEY6irbF39+7uL2B7B9IBuZmbmdpAUNET5QDwBmE+ATYhuAvCwZHbvP0t/7hVBDqnoK9ZyxFreGH2092RcRXY/MXCt7xVutEbXi2qPQo9Aj4+uEoRGavil4g7A5awA7lD0DhSMgPEg0587DxwD8gonUU4JDCtMiNFJo2ayaPyzBj2jhfSFN2EsWcJ48H3B0mILc5NfXkqarG9XqPFbBW8loitEpVWV1RjtQGln7tjG2iIzLQDB49JimvmqxwAsZCnwHuA9Ahe6IAAqWBRj53ZpxLMXVpq95IWUlOY+rQIGBANo6Z/S4H/QZXNz+AnnApBwLgAJ5wKQcC4ACecCkHAuAAkXVQBeBb7P3OlUiaLCK8B/x13HQiIJgAov57O9v9eUMu0of4awd+6Y/6I0CvINVR5IFW33yCO9PaL8a9xFLSTSmcDBz24dBwZKC9fvzK32jL3NiLkN5DZFb6WxziKaFHgN5X+tkQOqxR+eym7/RdxFlSPWqeDSAZ5/Ly0ArPnHp9vO2+K7xHrvFvRmhLWq3CDoGpDVRFuzAnlgCOQtxQ4a4Yha70jR2p/FeYAqLHV3LKD0KPFyaflVAwPe9Sdm2lOetBmhzRfajG/bLGalCG2KbUPkGoEWNJj11xWCpACUiweGVHRc0BmsTIjRcVXGVXXcaGrcejqeUsabGTt9NJudieQXj0ndBeCKtmzxR+cu1NDwf3n1wr0MTDgXgIRzAUg4F4CEcwFIOBeAhHMBSDgXgIRzAUg4F4CEa6yp4AYlBe8bpPVgeevI8VrVM58LQARKp7vX5Snv7ikg4SIJgChbM7tyX1i3c0/Ul1tx3kHZ5zmu3vX0B1Tsjyrc3rQqX1ePfatGl/zPYrjefqOLOgDznQG+q6LPeaReGn743iONcl2AxSTOAFxqFHgZ5Eci+pr4/GR4ovsXUV85M2nqKQCXMwMcAY6XlkEVGVSrb6U9O6rn02PDUz8fo6/PXnkYZyH1HoCrNQmMlRaAKUEKAKo6iYgFENWViIhiPZAWgHy297diqbhOLJZ5gNbScmPwA2X+5TzmvtcL3y+ma3xUx80DJJwLQMK5ACTcYtkHaEgdX97XLgW+pkp2ZMe2n8RRg3sEiMlc8+V5kM0i8nzHrn23xFGHC0AMLjafoOntcYUgqgC42bySyzQ/EEsIoro+wL+ob24S5UFUv83cDF/iXKH5gchDENlTwMijW4+d3NH71fyObfcUp2dXIXIXQh/Cs9TpmyXCdBXND0QaglheBZSutf+d0gJAe/9TN3mautUaNoiyAdF3q7Ihho9sCV0ZzQ8EIbiz1q8O6uZlYOnKGr92dY1r+/e3NJniDfhmrSDdwef4qNAGwSJtoMHtcj56vub7JhU0PxBJCOomAAspfeL2a6XlqqzbuWelXdIkALMzs61KkzFp/LThDMCgNzXFgw8WalPxRVU0P1DzENR9ACrx5qOfnJh3c3zBO9ZQCM0PzIVg9/4/GnnkvlfDqG0+Nw9QAyE2P9Auqs937N7/vpDGu8AFIGQ1aH5gVS1C4AIQoho2PxB6CFwAQhJB8wOhhsAFIAQRNj8QWghcAKoUQ/MDoYTABaAKMTY/UHUIXAAqVAfND1QVAheACtRR8wMVh8AFoEx12PxARSFwAShDHTc/UHYIXACuUgM0P1BWCKK6PsDHM7tyn+t+YqCcQ7V1o4GaH7jqEER6bqDChCjPqEhuZOzogUY4qbMBmz/faRW580pHEcsOwKp/2JPx/NRwJeteYgTlWTXyn+mC/+LQY/efqHK80DV48wNXDEFFTcz0544Da6oq69cNCrykyo/F6Kti0j8dfuje2D5YapE0P7BgCCp6Q4jCdwQerL6uX7FGYQ3CvaqC+kU6+nMTAj9DeBMrgxiOqzCIcjxd8MegeWzosS3TIdcBQHpa077nba90fRX7H0BHaAUBYs3vI7xdybqWwrnLjlnJYJ39e3ss5mCl64dsWoUxUcYVJg0yDWDRC9cIEHRS0RVgzNxt2gAUNfls7521KCrTv28Q5IYwx5xFWktvkQtNRY8Aw9n7D3Xsyj0twn1hFlOhZlG6gC7h4nUB5pKp877KJbcdqOJl4JK0yQJHQ6zFiUHFARj87NZx3+Mji/gTQBOhqomg0w/1HjXK7cAPQqrHiVjVM4HDO7YN5se67wD+Eqj5e+2dcIUzFdy3uZjP9j5u4bdLJ386DSLUYwGnsr2H8zu23QPmd4BvAX6Y4zvhq8nBoHx264F8tvdPPGSdoH+LcKwW23GqV9NTw05k7xsCvgh8MfPkU+/Fen+scI/A7+IORdeFyM4NzD+8PTjB8/GuJ/deV1TzIVFuF/iQwiZgaVS1OBfFcnLoiYfv/yXwzdICff+Vylx74mZVe6uIbFTYILCeucUFo4bq4+zgvs3FPPyUueVrF36uKt0793UWUt4NqN8hYjpROlS0U5AMaAfIdcByYFnpf6cM9RGAhYjoEJxgbrkq63buWVnw0suLvjQBWIOXgpZiyk6aWWM94xdTae8sgGmercmRxEZS3wGoQOnaABPveEcHcHviiecCkHAuAAnnApBwLgAJ5wKQcC4ACecCkHAuAAnnApBwLgAJ5wKQcC4ACecCkHAuAAm36N4PUD/kmdKnmoSmZXlhduyd7+Y4juM4juM4jnMF/w+W2m6QldW+bAAAAABJRU5ErkJggg==;" vertex="1" parent="1">
          <mxGeometry x="850" y="210" width="50" height="50" as="geometry" />
        </mxCell>
        <mxCell id="afE-ISjAWiAgDgSf9kAT-25" value="Load" style="text;html=1;align=center;verticalAlign=middle;whiteSpace=wrap;rounded=0;fontStyle=1;fontSize=14;" vertex="1" parent="1">
          <mxGeometry x="900" y="220" width="50" height="30" as="geometry" />
        </mxCell>
        <mxCell id="afE-ISjAWiAgDgSf9kAT-34" value="" style="shape=image;verticalLabelPosition=bottom;labelBackgroundColor=default;verticalAlign=top;aspect=fixed;imageAspect=0;image=data:image/png,iVBORw0KGgoAAAANSUhEUgAAAIAAAACACAYAAADDPmHLAAAACXBIWXMAAA7DAAAOwwHHb6hkAAAAGXRFWHRTb2Z0d2FyZQB3d3cuaW5rc2NhcGUub3Jnm+48GgAAG9BJREFUeJztnXl4XNV99z/n3lm174st2doXy8KSFzlgA36Jqdkcl4cshCUhgT40pGkITUtLeJM2eWmBJk1o06RJg8EYY3acgMEYqBcwFO+7JduyJC+SJcvaRpoZzXLv+8fVNousO9JosTWf55lHmjnnnjnS+d5zzj2/3/kdmelJLvBnQCvQM8l1iTCBJABPAr2Aitb4/whYJ7FOESYACfgG0IzW8P6vM33pYrIqGGH8WAbsJ3jD+7+2AhWTUckI4ScXeJ0gDW2xmNXi4nzVYDAEE4EH+B2QOim1nmCuxC4vCvg74FHAMjRBkiSKi/OpqJiLyWTEbndw4MARTpyoQ1VV/3K6gV8A/4I2Z7giuZIEIIAvAz8HZvknZmamU1VVQUJCfMCFFy+2sXPnflpaWoOVewL4EfBaeKs7NbhSBLAQeAa4xj8hLi6WRYvmkZU1Y8RC6uvPsHv3AXp67MGSPwR+ABweY12nFJe7AGYAPwEeQJvpD2AyGSkvL6W0tAhZloJeHIzk5CTq6s7wzjubcbvd/slu4Dm0HiFod3G5cbkKwAR8B/gZEDs0QQhBXt4sFiyYh9VqCXpxMGJjYygrm0Namjb3a21t46WXXmfbth3BsrcBPwV+DXhH9ydMDS5HAawEfgXk+Sekp6dSVVVJUlKC7sKMRiPFxYXk5uYgROC/48iRalavXkd9/elglx9DGxbe1/2FU4zLSQClwC+BFf4JUVFW5s8vJz8/R3dhkiSRnZ1FSUkxZrPpknlVVWXbtk954YWX6ezsCpblHeD7wCndFZgiXA4CSEIb578LyEMTDAaZsrISystLkGU56MXBSE1NoaxsDnFxsSNnHkJPj5233nqHt99+H4/H45/sAv4LeBywhVTwJDKVBWAAvg08AaT4J+bkZLNgwTxiYqJ0FxgdHU1paTEzZmSOqWKNjed5/vmX2LPnQNBk4J+APwDKmL5oApiqAliO1t3P9U9ITk6kqqqStLQATQyLwWAgPz+XwsICJEn/E8FIHDx4hNWr13HmzLlgybvRhoVPw/aF48BUE0Ah2h3/Ff8Eq9VCRcVcCgtzg07WhiMrK4uyshLMZnMYqzmI1+tl06aPePnlN7HbHf7JKtpy9A+BoLPIyWaqCCAG7Z/094BPS/Uv31ZWzsVoNOouMDExgblzy0hM1P9EMBZstm5ee20D7733EYoS0PPbgX9FM0U7J6RCOplsAUjAPcDTQLp/YlbWDKqqKoiNjdFdoNVqpaSkmKysGSH1FOGirq6B1avXcfRoTbDkM2iTxBcmtlbDM5kCWIy2fLvYPyE+PpZFiyqZOTNDd2GyLJOXl0NhYQEGgyGM1Rwdu3fv49ln19HSciFY8lbgYSDoLHIimQwBZAH/jHbn+3y/2Wxi3rwySkoKdN+9QggyMzMoKyvBatX/RDARuFwuNm78gDfe+BMOR0DPrwDr0Ia+lgmvXB8TKYAo4HtoXaBPny6EoLAwl8rKciwW/ZO1hIR4ysrmkJycFN6ahpm2tg5efPFVtm//NJjZuQNtbvBLtLWECWUiBNBvpv1XYLZ/YmZmOosWVZCYGGimHQ6LxUJxcSGzZmVPyjg/Wk6erGP16hepqTkZLPk48AiwcSLrNN7/vflo4/xS/4TY2Bjmzy8nJydbd2FCCHJzZ1NcXIzROPnj/GjoX1Zeu/YVOjo6g2X5EG1+cGQi6jNeAshE87a9n4DlWwNlZcWUl5eGZKbNyEijrKyM6OipNc6Plt7eXjZseJe33to4nNn5t8CPgaAqCRfhFoAReAjNVBrnn5ifPztkM21MjGamTU+/Ml30Wlsv8tJLbwxndr6IZvIeN7NzOAWwEm0ik++fkJKSRFVVJampyboLM5mMFBUVkpMzO6zLt1OVw4ePsXr1OhoazgRL3oc2LGwP9/eGQwAlwL8BN/snjMVMW1pajMl0aTPtlUb//GDNmvV0dQU1KL4D/DVQF67vHIsAEtHG+YfQLHcDyLJMaWkh8+bNCWlRJiUlhblzQzfTXml0d/ewYcPG4czODuDf0WwmYzY7j0YA/Wba/0cQ3/msrBksXlxJTEy07gLDZaa90mhsbOK559azd2/QBcNzwGPAWjSj06gIVQA3oLljlfsnJCcnsmhRRUiTNVmWKSjIC7uZ9krj4MEjPPvsOs6eDWp23oVmdv5sNGXrFUAB2iaJL/knWK0WKivLKSgI7lMX9EuFYObMmQFm2iNHqmlsPD/i9dHRUSxevECXF5CiKOzatW+4MdWHtLQU5s0LcEEIitPpZOfOvfT2jrx4l5+fQ15ejq5yh8Pt9rBx4/u8/vqwy8rPo3krj/wPHMJILRbXV+jDaJ64A0iSxJw5hVx11ZyQzbRlZXNISkr0+Xzr1h38x3/8Xnc5y5Yt5Xvf+4sR861evY6NGzfrLvf+++/hlltuHDHf448/wbFjx3WVKYTgZz97jNLSIt31GI6Ojk7WrXuNLVs+Cbas3IU2N3gGnbuZhut3JbRxvgZtm5VP42dnz2DVqptYsGCe7sa3WCxUVlawdOk1AY0PWjcXCgcO6NufMR7lut1uqqtP6C5TVVUOHToaUj2GIyEhnu9+9wGeeuonlJQU+ifHAU+hbV5Zpae8YFP0RWgKuto/IT4+loULK8jK0j9Z02umDeJEcUn05h+PchVFCXb3hbUeI5Gfn8sTTzzeZ3Z+0X9bWwGwAfgfNLf1g8OVM7RFstHUcyd+Q4PJZKKiIjQzLWjLt3PnziUqKrT4C0aThWU33hfw+aF9H3C+sTaksoaSnJLF/MW3BXy+Y+t67D2jX3HNza+koMTXrcHjcbHl/dWjLlMvCxdWUl5exltvbeSPf3wXl8tnTnIDsAfNW/knaBtafDCgLd8+htbV+yy0CyEoKtLcsUbynR9KfHw85eVzSEoanZlWCEF0TKArl2wY28KQbDAGLVeIsT2BGE2WgHLd7onbUGw2m7jzzttZvvw6XnjhFT79dOfQHsoA/BVwF/B/0WwMPonPoG2z8iEzM41FiypDMtOaTCaKigqG3WUTYXxJSUnmkUce4uabv8jq1S9x6lT90OQk4D/RbvKf939oQAuWNEBsbDQLF1Ywa9ZM3V/cb6YtKSmeEu5Y053S0mKefvof+eij7axf/4a/2XkFfgIYeJhOTExovPXW5TNCMdOmpqZQXj6HmJjpvXw71RBCsHz59VxzTRXf/OZD5xRF6b+jfc3zQ9+YzWZHKI1fVFRASUnx2Gvrh+L1Ul+7P+Dznu72MZXrsNuCluvxjG287uxoDijX6w1Yw58UoqKsyLJkG+4pZEz99XhttvB4XOzfvSns5dq6Wsel3OamUzQ3XXb7QoHhF4ImnFCeMrT8+sQXqkj15DcYDCFtRh1NPSaKKSOA5cuX6bYgSpLEqlUB7gdBWblyhe7Gslot3HTTF0fMJ8syt90WsEt9WFJSkrn22i/ozj+RCDTnghyAjIz02hUrrg/w6BmO8vIycnNzwlYZt9tNW1vHiPliYqJD8g202x3YbN0j5ktMjA/JCaWryxbMMOODEFrYmVB7jHBy5533V7vdnpK+t1vQFoiAMc4Bwo3RaBwX37+oKGvIq5F6iIuLveydV6bMEBBhcogIYJoTEcA0x2cSKIToslqtFy91gdFoirNazcmKMjo3dSEZ8XojdoJ+hPAiRunyr6oG7HZbndfrueRM1OnszWEwJP7wk0BVVePsdnvAhg5f7HSO616VCCGSO5aLJaZo6JII40bD0DcCmIMWoUNXNAZJkuYqimIGLUxbfPwIHUYfHo/XJ8ZeVHQ8JtP0PajD6ezG6Rhcm0hKStBtQm9r6xiw9wshdaqqEnS7cRBOou1Abuz/wAAcBQLdZIbBbI6pdTi68gDi4+O47baRHSj7K/3224POmcVlS5ide5Xer73iOHb4Y2qODO4HXLHi/2Ay6fOvXL9+w4Dnj9kcvcPptN062npEngKmOREBTHMiApjmTJotwOv14vYEBEa4ohAqGELYNDMZhFUAK1feMmxaff1pn0mg1+sNFhnjimNaCeDSjzGR1b+pSGQOMM2JCGCaExHANCcigGlORADTnIgApjkRAUxzIgKY5kQEMM2JCGCaExHANCcigGlORACThGFIvCNJkjAY9O8dHJpXSNKYjqGbUnsDPe5e7PbO0UW+FRAVFY/BODW3YfuTnTOXM/WH6bZdpKKiLKRQuXPmFLF79wGMJjMzZxRuOHly96jrMWUEcKG5jgO73mW0G04AJNlAxaJbSUkLOJpoymGxRHPDTfdjlNqJMoUW+aSsrJiCghxcykwUNe7oFSGAs/WHx9T4AIrXw9n6Q1NeAIripae7A6fDhqe3BXfvBex2B16vgtvtRlVVXC7NWUYLRiFhMBiQJAmr1TKw21k2x9Dbax/TGTpTRgDhiqkzVWLz9KOqKh3t52lrPUdnRzOd7c3YulrDGTl0G1CLdqrIPuBz4BN0HkE3ZQTgQ0om4js/1p1d/e1PobVpHCsUGori5UJzHa3N9bS2NNDr7BnPrxNooWELGDx0uwvYDLwLvIV2NmFQpqYA4hLgjgf053/xmSkhAFevgzP1BzlTfwhXrz3k66OjBLIMMTECSQaDLPB4VGzdKqoCXTbds+M4tLMav4x24NTLaOc8HPLPODUFcJnh9bqprdnJ6VP7LzmPMRggL1emtMRAfr7MjAyJtDSJjHSJ5GQJPQ8CHR0qzS0K55sVmpsV6uq9HKv2cPyEF4cjqECi0CK/34d2VO3fAs0DdQrpL40QQE93O/t3vhM0hqEQUFJsYMnVRpYuMVJaYmCs52AlJAgSEmSKi3zXDRQFTtV5+ex/3Xyyw82+A278nK4l4F60SKH3AB9ARABjwt7dwa4dr+Pqdfh8npwksepLZu643cyMzIlZa5MkKMiXKciXufduCzabytsbe3ntzV7q6316pTS008duB96NCGCUqKrCwT2bfBrfahXcf5+Fe++2jvlOHyuxsYK77rTw9a9Z2PyBi397xk7LhYEnDxPwIlAWWQoeJa3N9XR1Dp76npEusX5tHPd/a/IbfyhCwIo/M/Hmq/HMr/S53xOBv44IYJS0tZ4d+F0I+PUzscyeNXmxAEciOlrw61/Fkprq0+TLIwIYJS7XYNdvNEJ21tRt/H6sVuE/J0mJCCAMuFzwy3+3E+IxQhPOu5tcHDzku1IamQSGiZdfddLRofDDR6JITppa95XLpfLcGie/f9YRINJJE0CPrY2LFwZPyna7h5i1HXb4/CP9hTkGV93cLqdPuf3IskxcQjqSNH5d9abNLj751M29d1m443YzycmTKwSHQ+W99108t8bB2XPjcF7AWKiv3Ut97d7giU0NqA/eNKpyuzpb2PPZW0HT4hMzqFr6lXE9z6i7W+W3v3fw36sdLLvexA3LTFy92EhCwsTsju7tVdm128O2j11s2uyiu/vS49K0GgI6289j7+kgOibw4MqxYDJBXJxEa+vgXebxwIcfufjwIxeSBGVzDJTPNVBaIlNSbCA3RyYcAcTPNSpUV3s4VuPlyFEP+/Z76O0N3ugWiyDKKmhrH6zntBIAMGafg2BYrYI/vRHPmhedrH/ZGWC0URQ4dNjDocODEzCDAVJSJDIzJNLTJFJTJCxWgdUqsJjBZNJ6DK8XeuwqbpeKw6HSelGlpUUZsAcM19hDMZng5hVmvvOglX952s627YOW4skTwFcfRCxapiurWnMA/vDk4AcP/D2ieJ6+a3dugdf0n0msn8EuXVU0EfzlX1j51jcsbNrs4k9v97L/oIfhzP4eD5w/r3D+fHhPFB1KXq7MrTeb+PNVZpISpb66+ghGnTQBiDkL4cYv68trjfFxExQVS2CpvjmC6LahEn4BmC2Dp5t02VSOn/BSVChjNgtWrTSzaqWZzi6Vzz5z8/EOF/sOeGhqGr/GBs1QVF5mYOkSE0uXGAPsED12lSNHfXrApmk3BISLpJQs6k/uGXj/yN/a+NUvYinIHxzY4+MEN60wcdMKbW24y6ZSXe2husZLw2kvFy5o3XhLi0Jnl75FBKtVkJEukZoqkZYqMStboqhQprjYQEb68E8dHR0qj/6om4ttPiLcHBHAKElKyUKSDSh9LmjnGhXu/VYX3/6mhXvusmC1Bs7642IFVYuMVC0KDBzlcqk4e7VHN7cb7HYVr1clNlbzE4iJERhkiIoK7WlCUWDje738+jeOocagfjZFBDBKWppqBxq/H6dT5Te/c7D+VSdfus3M7avMuu0DJpPQniZiw/O42Nau8M5GF29u6KXh9LAT37siAhglHW3Du6C1t6usWetkzVonBfky111rYnGVgbI5BqJDvIP14vHAsWoPe/d52P6x65IT0CEsiQhglPisXAoBV/05HH0P3L4bdU7WejlZ62D185rTRn6e5rSRmyuTM1smPU0iJUUiOUlgNl9aHB6PdmdfvKjQckGlocFLfYOX2lNeqmu8uFyXmEdIMpSugIZd0H2h/9PkiADCgapCZyPi6/+FenQTHH0f7IEuYooCJ056OXEyeJccFaWN81aroD++pKJoq4sqYNPvFDqI0QrFX0TMW4V6fMvQxgem4ULQuFH/OaqjA3H9d2Hh3XB6N+qpT6H+c3B2jXw92sQPQvL+DY4lFrIXIHKqIPcL4LKj7vhvOLEtIGtEAOGkuQb1te9DwfWI8tsQX3xE6x3aGqDxIGrzcWirh7bT4A1TmFxJhoRsSM1HpOZDejGkl4CQoOMc6s51cGRjwNDUT0QA4UZV4cRW1BNbIWk25C1BzF4Ic29DlPc9pyterSu2tWg/e9pQPU7w9ILLDi6H9rvXDSYryEYwmMFgRljjISYVolMgOgniMrT0ftrPwIENqPWfw7lDjLTTdtIEoO7ZjtC5jUs9edj3/Y5NiOazw+T2u3b/pz7vmxtP0tl+Xl8l+zAaLaSm5yDJwf9dZrMgN0eiusZvbG9rgLYG1N0vad1yejGkFGh3anIuZJSArJ2aEvKzgeKBnjY4ewBaT6JeqIWW45qohiEjQ8JggLNnp4Ix6O21qG+vHd216/9zVDvIAU4d3zmq6xKSMqla+pWgaRYLrFsTz8b3enn+BSen6oJM8pw2aNgNDbt9626Nh+hk7a42mLRJmySDOUZLd9k1Y0Nv92Cjd7eCvQ29LkgZ6RJ3ftXCnV818+iPejh7dioYgy4zOtqacLucGE0WAIQYXHb1eLRHvJW3mll5q5lde9y8s9HFto9ddHaO0EiOTu3Veiqs9Y2OEnxhsZFbbjZx/bWmAdOzx+NTH29EACGgqoNdp8UaM/B7T4/KZ5+7uXqxNhYvWmBk0QIjXm80+/a72bPXw979Ho4c8dBjHx/HwegoQVGRzNwyA0uvMVJZYcT/qIILFxQOHPQZds9MngAefBxx/Up9eQ98hvrUwwNvxaO/gnlX67pU3fon+P0Tg9c++SLMKtR37YbV8Orvgqalpudy6viugfePPtbNEz+N4dolg/91WYaFC4wsXKB9pqrQ2KRwstbL6TNempoUGhu9tLWrOJ2avd/WreJ04mPn7980GhsriI/XDEGZGRKpKYKsLG2bWHaWfMm9hXX1Xv7m77r9PYTemjxzcOZsmDNfX+Y2v4lNdr7ua0XNAd8xN68UivQdVyd2bBp2rhETm+xjDLLZVL7/iI2bV5h46C+jmDkjsDWEgJkzpL60S58koqrgdjPmTSY2m8rza52sW+8M5jyyNzIEjJLz544HGINUVXO93rTZxbVLTdy+yszViw0D3j2hIMToG7/fA+mPb/fy/geugQWmIHw7IoBRMnRbmD+KAtu2u9i23UVUlODqxUYWLTQw7yojhQXh8QX0p+G0l0OHPezZ6+HjT9z+dv/hWBARwCjxeIZEYBEC+bqHUfa/itp5zief3a7y0RYXH23R8lssgtwcmZzZErm5MhnpEkmJmkEoJkYQ22cOjokWSJJmB1BUrZzubpW2NoXWiyqtrQr1DV7q6r3U1XlHdiixxCMv/hbK3vWotoHwAHERAYQDVUWpfg/5a39APbMbZf8rqE2Hg2Z1OlWOVXs4Vj0xVRNJuUgVX0EquRnvlqeHNj4QWQcIG2pzNd7130S67gcY7lqD2n4a9cQWlNptqOePaIs4E4GQEBlzkPKuReQuRaSXoDYewvPmX2n18CMigDCi2lrwbvwHlN1rkOZ9Fanya0hV94Hbgdp0SHu1nkRtrUXtOA0eXYG8hkeSEXGZiLQSRFqx9jOjDKwJoCqodTvwvPl91LodDGcTiAhgHFCbq/Fu/inerb9Ayr0GkbNE+zmryjdjTytqVxM4OlDdTui1gdsObiequ3+7m0CYY7WlRlMMWBMRMakQm46ITtasfv24elAadqLW70A99Qlq9/AT1X4iAggDUVGCa5cY2fyhy3d53tWDUvMB1HyAFxDxM7W7NL1EMwrFZSISsiGzPDRjkKsH1das9SYXT6G2VKO21KC21WmWxmGYX2Ggu0dzYe8nIoAwYDTCk0/EcPfXPaxZ62TrdhfeIO2gdp7TnhJO+G18NZgRUclgjQPRZwiSjAhJ1szEbodmGnb1oPZcBFdocQcXLjByz9fNXH+diYd/2B0+ATgcTg4fHpzOBvuj+2lv93WRUndsQrRfGCa3L2p9je/7D15HnAgIeRf82iO+cXTVPz6PSMnUd+3eT4ZNG2oMcrm0RaDyuQZ+/lQM55sV3nvfxZatLg4f8YxstPP0onY1Qlej7/frqmVwiotkli4xcctNJvJyBxce/FYDvSEvUVmtcbUOR1feGOp22bJsxQOYzFpo3tqa/6W2ZtC0/Pg/RHPH7YGRyltbFfbs0zZtHjzk4VSdV9d+vlAwmSA/z0BJsUz5XANLrjGSlhq4FH30mIf7HugaGj7ug5B7AEmWe8dW3csTIQQmowW5L75A5sxiHwE88WQPdofK3XdafIwyKSkSK240seJGbV1XUeDsOS/1Ddq+wKYmLx2dKj092svpVHE4wWbTVvKMRoHFIrBYNMeT5CRBWupggMkZM2TycmUMI7TkJzvcPPbjbv/Yga+E3AOUlF3zi5M1u37g8bin1XHgeYUL7VdVLu8e+tn+3Zti60/ttw79rLjIwPcesnL1F4y6In+ON9U1Xn73BwdbtwU8cn4OXDvaRjQBWWOq2eVFe9/LHzPwCrDKPyErS+KO2y3csMzIrOyJDSDV1q7w8Sdu3tzQGxATqI+jwHKgaVrdxeOEAfgx8BgQtKWzs2WWXG0cCBAxe9albfehcv68wrEaD0eOaqFiq2suuSvoVeBB+iKIRwQQPq4C/hm4daSMVqsgP08moy84REa6REqyRFS0wGzq2yBi0OYdqqrS1aUOBIq4eFEZDBBxXuFUvZeODl2TygNoIn13bH9mhJGYB/wG7Q5TJ/nlAt4EbiRys084MrAUeBLYzcQ1egtaN/8NIGGkSkZUMXGkAPOByr5XMTATSB1leV3AWeAUg8fF7APqQykkIoDJx4ImhBloTxVxaL1HfygzG+BBG1I8aIc9nAa6A0oaBf8fLzD18WP3LSAAAAAASUVORK5CYII=;" vertex="1" parent="1">
          <mxGeometry x="1140.5" y="185.5" width="99" height="99" as="geometry" />
        </mxCell>
        <mxCell id="afE-ISjAWiAgDgSf9kAT-35" value="Data Warehouse" style="text;html=1;align=center;verticalAlign=middle;whiteSpace=wrap;rounded=0;fontStyle=1;fontSize=17;" vertex="1" parent="1">
          <mxGeometry x="1115" y="148" width="140" height="30" as="geometry" />
        </mxCell>
        <mxCell id="afE-ISjAWiAgDgSf9kAT-38" value="" style="rounded=0;whiteSpace=wrap;html=1;shadow=0;dashed=1;dashPattern=8 8;" vertex="1" parent="1">
          <mxGeometry x="1370" y="87.5" width="200" height="275" as="geometry" />
        </mxCell>
        <mxCell id="afE-ISjAWiAgDgSf9kAT-39" value="Analytical area" style="text;html=1;align=center;verticalAlign=middle;whiteSpace=wrap;rounded=0;fontStyle=1;fontSize=17;" vertex="1" parent="1">
          <mxGeometry x="1400" y="97.5" width="140" height="30" as="geometry" />
        </mxCell>
        <mxCell id="afE-ISjAWiAgDgSf9kAT-40" value="" style="shape=image;verticalLabelPosition=bottom;labelBackgroundColor=default;verticalAlign=top;aspect=fixed;imageAspect=0;image=data:image/png,iVBORw0KGgoAAAANSUhEUgAAAgAAAAIACAYAAAD0eNT6AAAACXBIWXMAAA7DAAAOwwHHb6hkAAAAGXRFWHRTb2Z0d2FyZQB3d3cuaW5rc2NhcGUub3Jnm+48GgAAIABJREFUeJzs3Xd4FNXeB/DvZnfTC0mAUBNIIYRepEmRIiogoNgQlWJBsBcs2BHU60Wver3YvXrFghUFUemgKNJtgCJFekJ62STbZt4/Ir6AQPbMzuzszHw/z+PzvK+eM/PTcDPfc+bMOQARERERERERERERERERERERERERERERERERERERERERERERERERERERERERERERERERERERERERERERERERERERERERERERERERERERERGROdn0LuAEKQC6AMgF0BZACwCJf/5l17EuIiKiQPkBVPz5134AvwLYAeAHACU61nUcvQNABICBAIYDGAyg859/j4iIyGwk1IWAFQC+ALD6z7+nC70CQBaAawBcCaClTjUQERHpaR+AuQD+C2B3qG8e6gDQHsA9AC4H4AjxvYmIiMKRhLoZgYcBbA7VTUMVANIAzEbdiF/v1w5EREThSELdjMDdAI5ofTOtF9bZANwAYD6AXuDDn4iI6FRsqFsIfy2AcgCbtL6ZVlIB/A/ACA3vQUREZFafA5gIoFiLi2sVAHoD+BB1n/ERERGRMvsAXAJgvdoX1uKTuxEAloMPfyIiomClA1iJus/lVaX2GoCrALwHIErl6xIREVmVE8ClAPYA+Emti6oZAC4A8C74eR8REZHa7Kh7zm4HsE2NC6q1BmAw6r5hVH3kn5aWhpiYWCQmJal9aSIiItVVlJejpqYaBQUFWly+FsAwAKuCvZAaASAbdZ8qJAZ7oZiYGAwafDb69u2HM3r0RFZ2DmJjY4OvkIiIKMSqq6uxbv0GbN60EZs2rMPa79bA7a5V49JlALojyN0Dgw0AUQC+A9AtmIvk5rbF5Ck34PyRo5GQkBBkSUREROHhcEERvD4fAMDlqsLypYvx3ttvYs/uXcFeegOAfgA8Si8QbAD4N4CblXZu0aIlHnpkJoaPOB8RETwDiIiIzOVQQRF8fwaAoyRJwsrlS/H8M/9Efv7hYC7/DIA7lHYOZhFgbwAvQUGIsNlsmHz9VLz2xlto374DbDZuEEhEROZT5aqGJB1/4J/NZkNmVjZGj7kUNTXV2Lb1Z6WX74W69XeHlHRW+uS1o276oatox8TERDz/wssYOvRchbcmIiIyhkP5hfD5/adt8/WqFXjkgXtQXe1ScouNqAsCwscKK50BmAzgOtFOjRs3xvsfzkfvPmcqvC0REZFxVFS5IMvyadtktGqNXn36YvWq5aitqRG9RTMA+wFsEe2oZAbACWAHgFYinZKTUzB/wSK0aZOr4JZERETGc+BwASTp9AHgqD27d+H6a65ERXm56G12A8gF4Kuv4bGUrLwbB8GHf2RkFN56+z0+/ImIyFLqGfwfp3VmFmY/MwdOp1P0NpkALhftpOQVwFsA0kQ6zHj0MYw4f5SCWxERERmTLMsor6wS6tOkSVPExMZi3dpvRW/XGsDLIh1EZwC6Augk0uGsgYNw9bWTBW9DRERkbCKj/2ONHTceZ/ToJdqtC4DOIh1EA8B4kcaRkVF4/Il/Ct6CiIjI+Opb/HcqNpsN0+59UMmrgKtEGosGgEtEGl8+7gq0zswSvAUREZHxyVA4BQCgVetMDB95gWi3S0UaiwSAtgCaB9rY4XDghptuEamFiIjINAJd/X8q4ydei4gIoaV6LQG0CbSxSAAYIlLFgLMGomXLdJEuREREpiFLwnvzHKd5i5Y4o6fwWoBBgTYUCQB9RSq4+JLLRJoTERGZiiQHFwAA4LzhI0W79A+0oUgAaBdoQ5vNhgFnDRS4NBERkbkE+woAAPqc2V/0vJy8QBsGGgAiAOQEetG2ee2QkpIaaHMiIiLTOfEQICWSU1KQmZUt0qUNAtzlN9AA0BxAbKB3b9eufaBNiYiITEmNGQAAyM4R2kU3HnXnA9Qr0ACQInL3rGyhtEJERGQ6ktKdgE7QMj1DtEtAz+xAA0CCyJ1TUxuKNCciIjIdNV4BAFDySj2gZ3agASBe5M7x8ULNiYiITMcv+VW5TmxcnGgXVQNApMidHQ7h7QuJiIhMRfKr8wrA6RR6BANAVCCNlBwHTERERPVQawZAKwwAREREGlDrKwCtMAAQERGpTJIkxacBhgoDABERkcr8Kn0BoCUGADqOJEnweNx6l0FEZGhGCAAOvQsgbRUXF2Hv3r04sH8f9u/bh0OHDqKgoAClpSUoLSlBaWkJat1uuKqq4PP5jusbERGBqKgoJCenoGGjRoiNjUWTJk3RqFFjNGnaFGlpaWjVOhNZmVlIatBAp39DIqLw4/eF9wJAgAHANGRZxs6dv2PL5k3Yvm0rtm3bim1bt6K4uEjxNSVJQk1NDWpqDuLQoYOnbZuSkoqs7Gy0b98BnTt3QacuXZGT0wYOB/+IEZH1+PwMAKQRSZLw008/Ys3Xq7Fh/Tps3LgBpaUlutVTUlKMkvXF2LB+3V9/LyYmBt2790Cfvn3Rt29/dO3WTcn3rEREhuP38xUAqai8rAzLly/FiuXLsHrVyqBG96FQU1ODNWu+xpo1X2M2nkBMTAz6DxiIc88bhqHnnIuGDRvpXSIRkSb8nAGgYFVWVmLxV19g4WefYtWqlfB6PXqXpFhNTQ2WLP4SSxZ/iYiICHTrfgYuuGAMRl84hudHEJGp+LgGgJSQZRlr136Ld+a+hS8WLYTbbb5V+ZIkYeOG9di4YT1mPPIgBg4cjIsuuQzDhg/nawIiMrxw3wUQYAAIK+VlZXjnnbl49523sHvXLr3LCRmv14ulSxdj6dLFaNSoES4dOw4TJ12D5s1b6F0aEZEwSZLDfhdAgPsAhIV9+/bisVkz0KtHF8x69GFLPfxPVFhYiDnPP4c+PbthyuRr8MvPP+ldEhGRkBM/qQ5XDAA62rHjN0yZfDX69j4Dc55/DhUVFXqXFDZ8Ph8WfDYf55w9EKNHDsPSJV/pXRIRUUC8Bnj/DzAA6GL//n24e9rtGDKwHxZ89qkhVovqacP6dZhw1TiMHjnsuM8MiYjCkV/iDACdoLi4CPfcdQf69j4Db8/9Hx/8gjasX4cLRg3HlMlXW/o1CRGFN84A0F+8Xg9eenEO+vbpgblvvRkW74ciIyLQNCYS7RvEIcKmdzWBk2UZCz77FIPOOhMPPjAdlZWVepdERHQcI3wCCPArAM2t/e5b3DXtNl1GrDH2CLRJjEVegzhkxccgPS4a6XHRaBEXhUTn///oc+avhUcObNeqiAgnRl2xHOWlO1FRthsVpbvr/u/SXaitKdbqX+VvvF4vXn/1ZSz6fAEemTELo0ZfGLJ7ExGdTjgM8gLBAKCRiooKzHr0Ybzz9lshOxO6VXw0eqQmokfDRHRPTUTr+GjYbSoP7202JKXkICkl52//qLa6CIX5m3Hk8AYc3vc1Sgp/gRxgsFAq//BhTJl8Dea99w6eevo5NGveXNP7ERGdjizLhtgGGGAA0MTyZUsx7c5bUZCfr+l94hx29GvcAAObNMBZacloHhul6f3qEx3bEC0zz0HLzHOAvvfDXVuKI4fW4fD+b7F35yJUVx3W7N6rVq7A4IF98ciMx3DZ5eNgUzv4EBEFwOs1xugfYABQldvtxlOz/4EX5zwPSaOzoKPtEejbuAFGNE/FsOapiHXYNbmPGqKik9Ey8zy0zDwPPQbMwJFDG/DH759h7++fo6a6UPX7VVRU4I7bb8aiRQvw7L/ncHthIgo5r0Gm/wEGANVs2/oLbphyHXbs+E31a9sA9GyYiLGt0zC8eUNE2423dtNmi0Ba815Ia94LPc+aifwDa7Hnt0+w+7f58PtqVb3X8mVLcfbgAXh+zkvo12+AqtcmIjodIwUA4z1JwtCHH8zD+cPPUf3hH+ewY1J2U6w8txs+OKsjxqQ3NuTD/0Q2mx1NW/bDmWf/C5dcvQld+9yDmNjGqt6jID8fYy8Zg9lPPqHZbAwR0Yn4CsAivF4PHnnoAbzx39dUvW7j6Ehck9MM41qnHbda34yiYlLQqedt6ND9Ruzb/RW2bn4JRfmbVbm2JEl45l+z8cMPm/HiS68hMSlJlesSEZ2KkWYAzP100VBJSTGunngV1q/7XrVrNo6OxNTc5hjXuokpRvoiIuxOtMoZiVY5I3Fw70psWjMLpUXbVLn2yhXLMWL4ULzx5jvIzvn71wtERGqQZdkwewAAfAWgyJ7du3D+8HNVe/gnOO2Y3rEV1pzXHVdnN7Pcw/9EzTMGYeS4peg79FnEJTRT5Zq7du7E+cOHYs2ar1W5HhHRiYw0/Q8wAAhbv+57nD/8XPyxZ3fQ13LYbLgqswlWn9sdU9o0R5TFH/zHstkikN3uMoyZ8D16nvUoIqMSg75mRUUFrhh7KT75+EMVKiQiOp7HQNP/AAOAkBXLl2HspWNQWloS9LXaN4jDJ4M6YVbXLKRGOVWozpwi7E7kdbkOF074Dq3bXBD09bxeD26+cQpefOE/KlRHRPT/vB6v3iUIYQAI0KLPF2LShCtRWxvcJ2txDjtmdMnEwsGd0Tk5XqXqzC86JhUDhr2IIaPmIja+SVDXkmUZM2c8hMdmzVCpOiIiwO1lADCdjz/6AFOvvwZeryeo63RPTcCXZ3fBxKym6m/RaxEtWp+N0VeuRpsOVwZ9rTnPP4dZjz6sQlVERICPawDM5bNPP8Ftt9wY1OEODpsN09pn4MOzOiIjLlrF6qwpMioRfYbMxqDz/4uo6OSgrvXCnOfx6CMPqlQZEVmVz+eHFKJzX9TCAHAaSxZ/iVtumgq/X/lnHalRTrzVrx1ubtuCo36VpWcNw8hxy9AwrUtQ13npxTl4evaTKlVFRFbkMdj0P8AAcEpfr16FyddeDW8QP9QzGyVh6dCu6Nu4gYqV0bHiEprhvEs+RXa7sUFd5+mnnsRLL85RqSoishqjvf8HGABO6tdft2PytRPh8bgVX2Nc6yaY2689V/iHgN0ehb5Dn0HPsx6FLUL53lYzZzyEDz+Yp2JlRGQVHoN9AQAwAPzN4UOHMG7sxaioqFDU326z4dEumXiiWxYcEZzyD6W8Ltfh3DEfIDJK2Za/sixj2h234bvv1qhcGRGZmSzLDABGV1VVhauuHIv8w8rOrY+yR+DF3rmYkNVU5cooUGnN+2DYpQsQG6fsU0Gv14NrJ03A7l27VK6MiMzK6/VBNtgCQIAB4C+yLOPO22/Gtq2/KOof57Dj9TPzcG6zVJUrI1ENUtrg3Is+RlxCc0X9y8pKcdWVY1FeVqZyZURkRkZ8/w8wAPxlzvPPYeGCzxT1TXQ6MG9AB/TnYr+wkZiciWGXfIbE5ExF/ffs3oWbb5rCo4SJqF5GnP4HGAAAAGu+WY0n//GYor7xTjve6tcOnbirX9iJS2iO8y7+FMkN2ynqv2zpEvzn+WdVroqIzMbtCW6TOL1YPgAUFhbihimTFX3rH+ewY27f9uiakqBBZaSGmNhGGHrhPCQktVLUf/aTT2DNN6vVLYqITEOSJEMdAXwsSwcAWZYx7fZbUFRUKNzXEWHDC71z0S2VD/9wVxcC3kNMbCPhvn6/HzdMmazozwgRmZ/bbczRP2DxAPDG669i6dLFwv1sAJ7slo2BacFtQ0uhk5DUCkNGzYXDGSfct6ioEHdPu0ODqojI6GoN+v4fsHAA2Pn775g18xFFfae1z8DFGY3VLYg0l5rWGYNHvokIu/jmTF99uQjvz3tXg6qIyMiM+v4fsGgAkCQJd027TdHRvsObp+LGti00qIpCoWnLfugz+J+K+j70wHTFe0QQkflIkhzUdvF6s2QAmPvWm1j3/Vrhfp2S4/FMjzbg/n7Glt1uLHLajxPuV1lZifvvu0eDiojIiNweDwy4/89fLBcADh86hMdnzRDul+h04IVeuYi2W+4/mSn1GvQ4Uhp1EO735Ref46svF2lQEREZTa2Bp/8BCwaAR2c8hMrKSqE+NgCzu2ejZVy0NkVRyNntUThr2MtwRorv33Df9Lvhcrk0qIqIjMTIXwAAFgsAGzesx4LP5gv3G5/VFOc15xa/ZpOYnIkzz35auF/+4cP4z7+5QRCRlUmSZNgdAI+yTACQJAkPP3if8IENGXHRuKdDhkZVkd5a5YxCmw5XCvd7+aU5OHBgvwYVEZER1NQae/QPWCgAfDr/Y2zZslmoj91mw7M92iDOYdeoKgoHZ/R/CLHxYqcH1tbW4rGZ4mtJiMgc3G633iUEzRIBwOfz4anZTwr3m5TdlDv9WYAzMgE9z5ol3G/BZ/Px048/aFAREYW7WoO//wcsEgA+/GAe/tizW6hPs5go3NEuXaOKKNxkZI9Ay8zzhPrIsoynFQRLIjI2n88Pn4LzY8KN6QOA1+vFc8+IL/R6pEtrTv1bTK+Bjwl/FbB06WJs3rxJo4qIKBzV1hp/+h+wQAD45KMPsG/fXqE+/Ro3wLnNuOrfauISmqFrn7uF+/3rKc4CEFlJjQne/wMWCACvvPKSUPsIGzC9I1f9W1Vup4nCRwevWL4M27b+ok1BRBRWZFlGLQNA+FuxfBm2b9sq1GdMemN0aCC+OQyZQ0SEE517iZ/896pg0CQiY6p1uw29/e+xHHoXoKVXXn5BqL0jwobb8lpqVA0ZRWbbMfh54/MoL/k94D6ffPwh7r7nPjRt1kzDysgKXC4XfGF4wExsXBycTvGTNM2mpsYco3/AxAHgjz/24JuvVwv1uSi9Mbf7JdhsdnTtfTdWfXFdwH28Xi/envs/3HXPdA0rI7PatXMnnnv2aSxduhjlZWV6l3NSNpsNbfPaYdy4KzF+4iQ4nZF6l6QLs7z/B0z8CuDtt94U2vXPbrNham5zDSsiI8nIGSF8WNB7770Nvwk+DaLQ+vKLzzF0yAB89OH7YfvwB+refW/fthUPPjAdF104Kqxr1YrH44XfL+ldhmpMGQC8Xg8+eH+eUJ8RLVLROj5Go4rIeGzCawHyDx/GihXLNKqHzGjrLz/jhinXoba2Vu9ShGzcsB433jBZ7zJCrsYkn/8dZcoAsGTxYhQVFQr1mZTFd7d0vJaZ5yA+oYVQn3nvvqNRNWRGT/7jMcNuKbti+TLh16xGV11jrKBWH1MGgPmffCTUvmNyPLf8pb+x2ezI6XCFUJ9lSxejpKRYo4rITKqqqrB61Uq9ywjKF4sW6l1CyPh8fnh9Pr3LUJXpAkBVVRVWLF8q1GdiVlONqiGjy+kwDhH2wFc+e71efPnFIg0rIrM4ePAAvGG42l/EHsEt1o3MVVOjdwmqM10AWLL4S6H3aXEOO4Y1565/dHIxsY2RnjVcqM+Cz+ZrVA2ZicegU//H8niMfyBOoMz0+d9RpgsAny9cINT+/BYNuec/nVbbThOE2n/37RrhNShEFL58fj88Bp+tORlTBQCPx41vvl4l1OeSjMbaFEOmkda8DxKSAt8e2u/3Y/nSJRpWREShZLbFf0eZKgCs+/57uFyugNs3io5E99REDSsis2iZJXZU8MqVKzSqhIhCjQHAAFYKfoM9vHkqImwaFUOmkp45TKj96tUruSkQkQn4fD54POab/gdMthXwKsFR13lc/EcBatysB2JiG6Om+khA7cvLyvDDls3ofkYPjSsjq4hukYPY9FzF/f1+D/z++h9k1ds2QqquVHwfs3FVm3P0D5goAJSXlWHHjt8Cbh/nsKMnp/8pQDZbBFq0Phu/b3034D5r1nzNAECqSWjXC2nnX6O4v7umDJ7aqnrbeQ79AQ8DwF/M+PnfUaZ5BbB+wzpIUuB7NPdtnAQH5/9JQLrgOoAN69dpVAkRhYLH44XPZ95XeaYJAKK/bPs3bqBRJWRWTVv2F9oUaOPGDUKhlIjCi5lH/4CJAsCmjRuE2vdulKRRJWRWdke00AmBFeXl+O23XzWsiIi0IsvmXf1/lCkCgCzL2Lr1l4DbJzodyE6I1bAiMqtGTboLtf9xyxaNKiEiLdW63aY6+vdkTBEADhzYj4ry8oDbd02J5+d/pEjDJl2F2m/fvk2jSohIS67qar1L0JwpAsCvgr9kO6fw5D9SRnQGgAGAyHgkSUJNjfnPOTBFANi2batQ+7ykOI0qIbNLSMpATGyjgNtvE3g1RUThwVVTAxmy3mVozhQBYM9usSMpcxP5/p+US23cKeC2JSXFKC0t0bAaIlJblcvci/+OMkUA2L9/X8BtIyMikBEfrWE1ZHYJSa2E2u/fF/ifTyLSl8fjhdeEJ/+djCkCwL69ewNumx4XBYeNKwBJufjElkLt9zEAEBlGVbW5v/0/luEDgNfrRX7+4YDbt4jl6J+CE5+ULtReZIaKiPQjyTKqTb75z7EMHwCKCguFTl1rHhelYTVkBaIzAIcOHdSoEiJSk6u6BpJk/sV/Rxk+AJSUFAu1bxbDAEDBEQ0AJcVif0aJSB8ul3VG/4AJTgMsKRFbYZ0aFfhe7nQSsoyqiv16V6E7Z2Q8vJ76T1YDxEMqEYWe2+OFxyKL/44yQQAQ++WaHGn4f2VdSZIXH7/RU+8yDKW0tFTvEoioHlUu8+/8dyLDvwKoqKgQat+AAYBCrIwBgCis+SXJUov/jjJ8AHC7xTZsiHPYNarEuKyw45Weaiz4i4XISKpc1ZAt+GvQ8AHA4xF7ZxNpN/y/sqo2FVfCa6FVr3qorBSbpSKiUJItOf0PmCIAuIXaO3kM4F82F1fi0tU/612G6Xk85j9UhMioXNW1pj/291QMHwB8Xp9Qeyd3AQRQN/K/ZPXP8Flx3ivEJMmav1yIjKDSoqN/wAQBwCY4ouev4v8f+fPhHxo2hk6isFTr8Qi/RjYTwweASGekUHufxd93b+HIP+Tsdi48JQpHlZXWHf0DJggAzkixAGDlBW9biitxMR/+IRcXF6d3CUR0Aq/Xj5paaxz7eyqGDwBRggGgRuDcADPZzIe/buLi4vUugYhOUFkV2E6eZmb4ABArOLoq94gtGjQDLvjTF2cAiMKL3+9HVbW1R/+ACbYCTklJEWpfLvjVgNGpseCvcQrQtrWKRZnAxm1AoMeGJwv+GSUibVVUuQBugGb8AJCcLPbLtcRtnQCwWYWRf//uwNJXuYr9RC2GyAEHgNTUhtoWQ0QBk2TJcqf+nYrhXwGIBoD9LmtM+6ix2r9vVz78T8bjBYrLAm+fnJysXTFEJKSyqhoSX4cCMEEASG2YKtR+rwUCwCYVFvwN7AEsf50P/5M5XAihfcNTG3IGgCgcSLKMyiprf/p3LMMHgAYNkhEfH/gq630mDwBbVHjn37cr8NXLfPifyh8Hxdq3bJmuTSFEJKSyysWdOY9h+AAAiP2C3eeqNe3SDzW+8+/blSP/+uzYK9Y+PT1Dm0KIKGCSLKOKo//jmCIAtBAIALV+CUdqzXc4Cx/+obPjD7H/xi1bttSoEiIKVJXLBT9H/8cxRQBIzxAbYe2tMtdrAL7zD61f9wTe1m63o3mLFtoVQ0T1kmXZ8tv+nowpAkBubluh9jsqzPMHge/8Q2/Lr4G3bZ2ZicjIKO2KIaJ6VVZVc/R/EqYIAHl57YTa/1Rqji0gOe0fensPAUWlgbdv1669dsUQUb0kSUZFpUvvMsKSKQJA27x2QkeumiEAqLG3/4DufPiL2rxdrH1u2zxtCiGigFRUuiDJHP2fjCkCQFxcnNBK698rquHyGfdQIDX29h/YA1jCTX6EfbdF7L95+/YdNKqEiOrjlyRUuTj6PxVTBAAA6Nqte8BtfbKMDUUVGlajHb7z19fqjWLtu3QN/M8lEamrbvRv1g+/g2eaANCjR0+h9t8VlmtUiXb4zl9fJeXALzsDb986MwuNGzfWriAiOiWf38/v/uthmgBwhmAA+PaIsQIAP/XT38r1gMhC4p49e2lXDBGdVnlFFWTTbvumDtMEgLx27YXOXd9aVoX8GmNsCLRJhWn/gT047R+sz1eL/ffvwQBApAuv1wtXoMd1WphpAoDD4UCfM/sG3F4GsPxwiXYFqYTv/MODXwIWfyvWp2+//toUQ0SnVVpeqXcJhmCaAAAAgwYNEWq/JMwDAKf9w8eaTXVrAAKVnZODjIxWmtVDRCdXU+tGrdsYs7t6M1UAGDL0HKH2a46UocTt1aia4HDkH17mfSX2cxg8+GyNKiGiU5FlGWUc/QfMVAEgPT0DrTOzAm7vk2QsOlisYUXKcOQfXtwe4NPlYn0GMQAQhZzLVQOvz6d3GYZhqgAAAMOGDRdq/+m+Qo0qUYYL/sLPV98CpQLbRiQ1aIAz+wa+HoWIgidLEsorjb/LayiZLgCMHHWBUPuNxRXYVhYeO0Vx2j88vf6x2M9j2PARcDojNaqGiE6mrJLH/YoyXQDo3KUrWrXOFOrzxq7DGlUTOG7yE572HASWfS/WZ/ToMdoUQ0Qn5fX5UOXipj+iTBcAAGDkqNFC7T/bX4hiHRcD8p1/+HrtI1lo85+UlFSc2befdgUR0d+UllZA5pa/wkwZAC699HKh0wHdfgnv7inQsKJT47R/+HLVAG98KtbnoosvhdPp1KYgIvqb6ppa1Hr42Z8SpgwAWdnZ6NW7j1CfubsOwyeFNkFy2j+8vfax2Lf/AHDZ2Mu1KYaI/oaf/QXHlAEAAK64crxQ+4JaDxYdLNKomr/jtH948/qA/7wr9rPp3v0MtOPxv0QhU15ZBZ/fuEe76820AeD8kaPRoEGyUJ/nfz0AfwjeI/FTv/D3v8+A/flifa64coI2xRDR33h9PlRUcuFfMEwbAKKionDVhIlCfX6vqMbC/drOAvCdf/ir9QBPvCb282nYsBEuGHORRhUR0YlKSysAnvYXFNMGAAC4+prJiIyMEurzzPZ98Gq0FoDT/sbw4jzgoOCa0EnXXIvo6GhtCiKi41RV13DhnwpMHQDS0tIw5uKLhfr8UVWLNzXYF4Ajf2MoKQdmvyH2M4qJicGEiVdrVBERHUuSJC78U4mpAwAATJl6EyIixP41n9u+T9V9ATjyN46H/iMLr/wfd+V4pKSkalMQER2ntKwSEnf8U4XpA0CbNrmjz0RQAAAgAElEQVQYNfpCoT6VXj+e/GWvKvfngj/j+PE34I35Yn2io6Nx0823aVMQER2nttYDV02N3mWYhukDAADcdfe9cDgcQn0++KMA3xUKDgVPwGl/45Ak4JYnZPgFBxaTrr4WaWlp2hRFRH+RJBnFZcH9TqbjWSIAtM7MwkWXXCbURwZw/+ZdcIs+Ef7ETX6M5bm3gXU/ifWJjY3F1Btv1qYgIjpOWUUl/PzmX1WWCAAAcOe0u4VXae+uqsG/tu0Tvhff+RvLrv3AzJfEf1Y33HQLGjZspEFFRHSsWo+Hh/1owDIBoEWLlrjhxluE+73y+0GsFXgVwGl/Y/H5gasflFFdK9avabNmmHoDR/9EWpNlGSWlFXqXYUqWCQAAcOPNt6J58xZCfSQZuGPj76jw+uptu1mFkX//7hz5h9ITr8rCU/8A8PAjMxETE6N+QUR0nLKKKvh89f/+JXGWCgAxMTF48OFHhfsdqnZj2sadp91zalNxJS5RYdp/6at8+IfKms3Ak6+L9+vVuw9GjrpA/YKI6DhutwdVLpfeZZiW2NJ4Exg1+gJ88vGHWLL4S6F+iw8V46XfDmBq7t9nEDjtbzwFxcBV02X4BNcUOZ2ReHL2v4SOm1ZCkiRs2bwJu3bthCcMdzxzOp3IyGiFHj17wW63610OGdxvv/2KX37+CTXHfOInyzLKK6ogyfp+8x9hi0DjtCbo0u0M0+32abkAAACPPfEkvvv2G1RVVQn1e2rrPnROScCZjZL++nv8zt94PF7gsmkyDheK97319jvQpk2u+kUdY9nSJXjogen44489mt5HDU2bNcMjMx7DyFGj9S6FDGjrLz/j3rvvxKZNG/UupV5xcfGYeO31uHL81ZoPAELFUq8AjmrevAXuf/AR4X4+WcZ1a7djR0XdalSO/I3pjn/K+P5H8X7ZOTm46eZb1S/oGPPefQcTx48zxMMfAA4fOoTrr5uEl16co3cpZDAb1q/D6JHDDPHwBwCXqwpznnsaMx++D3IITo0NBUsGAAAYP2ES+vbtL9yvyuvHdWu3Y0V+CT/1M6B//hd47WPxfk6nE8//5yXhw6VE7Nm9C/fcfachtzmd9ejD+OnHH/QugwyipqYG10++GtXVxvu074vPP8OihZ/qXYYqLBsAbDYb/v2fF5GcnCLc94+qWkz6djun/Q3mg8XAw3OU/czuuns6OnfpqnJFx3v1lZfg9Ybf+/5ASJKEF+Y8r3cZZBCffPwh8g+rf+haqMx9U8Hq4TBk2QAA1L2/fO75F0L+PofT/qG3bC1w3cMylGS23n3ODMmOf9+u+Ubze2jpu2/X6F0CGYTR/6zv/WM3igqP6F1G0CwdAADg7KHnYPyESSG7H6f9Q++bTcAld8hwKxhcp6Y2xJwXXgnJSvfCQgWrEsNIcXERt2qlgBQVFeldQtCKi43/72D5AAAAM2Y+hm7dumt+H478Q+/bLcCYW2XUuMX72u12/OeFl9G0WTP1CzsJvT93CpYsy6ZZHEXakg24zuVERlyrcyIGAACRkVF4/c230aRpU83uMYA7/IXcyvXAyBtlVCpcZzT9vgdx1sBB6hZFRBQmGAD+lJaWhldfe1OTVd4DugNLuMNfSC1cVTfyF93j/6jzR47iSX9EZGoMAMfofkYPPDn7aVUXBQ7swYd/qL38ATB2mrJpfwDo1q07/v2fl0yz2QcR0ckwAJzgsrHjcNc901W51oDufOcfSpIE3P+cjFv/IcOv8PVcRkYrvDn3XdNt+UlEdCJLbgVcn9tun4aioiL897VXFF/DYQeuv5QP/1AprwIm3CfjqyC+REtOTsHb736Ahg0bqVeYRuKyOqHJmBsV9/d5a+Gpqf+Y67JV81Hz2xbF9yEKVlRyIno9dbfi/n6/H4Ul9X9hU/btjziy0NifJ4piADiFGY8+hvzDh/HFooWK+vv8wBX3yPhmE/DkHTZERapcIP1l2y5g7F0ydvyh/BoJCQl4d96HyMrOVq0uLUXExCOmZRvF/b2easBVUm87e2yC4nsQnYrI56IRTgca5LZWfC+f3wdXQf2/gF2/7VV8D6PiK4BTsNvtePHl1zB4yNCgrvPSB8CgSTL2HFSpMDrOG/OBflcF9/CPiYnBW2/P03ynPyIC3F4vvNwvIiwwAJyG0+nEG/+bi8zMrKCus3k70PtyGZ+uUKkwQmkFcNW9MqbOVL7SHwCioqLw3zffRq/efdQrjohOyi9JKCou07sM+hMDQD2czkgsWb4KjRoF9164vKpuZfrE+2UcKVapOIv68hug2yUyPlwS3HXi4uLw9nsf8Ft/ohCQZRnFxWXcLTKMMAAEIDY2Dhs2/YROnToHfa15XwKdL5Lxxnwo2pfeyopKgWsflnHhrTIOB7lrblKDBpj34XxFJ0ISkbiyiirUeox52JVZMQAEKDIqCl8sXo6Jk64J+lqlFcDUmTLOvlbGr8Y49l1XkgS8+hHQaYyMt5WtyTxOWpMm+PiTBeje/YzgL0ZE9XJV16CyyqV3GXQCBgABERERePwfszHt7ntV2STm2y1Az7Eypj8rg6/FTm7leqDvlTJuflxGSf1frdUrL68dFn2xFO3adwj+YkRUL4/Xi5IyFf7HS6pjAFDgjjvvxgsvvarKZjEeL/DMW0Db82U8MkdGaYUKBZrAj7/V7eM/bIqMLb+qc80BZw3E/AVfoFnz5upckIhOy++XUFhcytedYYoBQKHRF4zBR/MXonHjxqpcr7Ia+MfrQN5IGY+/ClRadLZswy/ARbfJ6D1OxtK16l332uumYO477yMxMVG9ixLRKckyUFRSCr/SbTlJcwwAQejWrTu+WrISPXv1Vu2aZZXAoy/KyD1fxv3Pydh9QLVLhy1JAhZ9DQybIqP/eBmLvlZvgWRsbCzmvPgKHp31OJxOpzoXJaJ6FZeWwe3x6l0GnQYDQJCaNG2Kjz5ZgBtuvFnVw2NKyoGn/wd0uEDGqJtkLFwFxfvbh6uiUuDf7wAdL5Rx0W0yVq5X9/pZ2dlY+MUSXDjmYnUvTESnVVZRieqaIDbooJDgVsAqcDgceOChGejVuw/uuO0WFBcXqXZtSQKWfAcs+U5GizRg4gXAhUNsaG+MHWv/ptYDLP4WeHth3b79Xp8297niyvGYMfNxxMbGanMDIjopV3UNKqz6DtNgGABUNPSc87Bi9be4687bsGTxl6pf/0ABMOtlYNbLMjJbAKMGASMH2tC7M2AP47mcChew9Dvg0+V1D/3Kau3ulZycgqf+9SyGDT9fu5sQ0Um53R4UcyWzYTAAqKxRo0Z486138P577+Dhh+5HRYU2/2PYfQB4di7w7FwZDZOB8/oBfbvY0LMjkJcJROgYCGrcwOZtwMr1MpavAzb8XHc4ktZGjhqNmY89qdrCTCIKnNfnQ2FxGQAu+TcKBgCNXHb5FRg4+Gw8/OB9WPDZfE3vVVQKvL2wblodABLjgO7tgd6dgO7tbcjJAFo1gyYnEla4gF93A1t3Aj//LmP9z3Wf8Gk1tX8yTZs1wxP/mI1zzh0WupsS0V/8fgmFRaWQZJMtVDI5BgANpaWl4aVXXsfYy6/AfffehT/+CM22fxWuug106hbV1YUCmw1o2qguCLRqDmS2AFIb2BAdCSTGA7HRQHQUkHTM6a8eD1BdC1RV1+1eWFIOHCmRcSAf2JcP7D0E5Ku33EGY0xmJ6yZfj1tvn4aEBB5bS6QHSZJxpLgUPu7xbzgMACEwcNBgrF7zPd6f9y6efOIxVRcJBkqWgUNH6v767oe//m7I61BL/wFnYeZj/0CbNrl6l0JkXX9+6+/18nM/IwrjpWPm4nQ6ceVVE/D1t9/juslT4XRqMB9vAd3P6IEPPv4U7384nw9/Ip15fT7UunnAj1ExAIRYcnIKZsx8DGvXbcI1112vynbCVpCX1w4vv/oGFnz+Ffr1G6B3OUQEQJL4zt/IGAB00qx5c8yc9QS++74uCMTFxeldUljq27c/5r7zPpat/AYjR41WdbMlIiIrYwDQWZOmTTFz1hPYtOUXPPTITKSnZ+hdku6cTidGXzAGXy1ZgQ8/+QxDzh7KBz8Rkcq4CDBMJCYlYcrUG3Hd5ClYtnQx5r33LlYsX2qpxTVZ2dm4fNxVuPSysWjYsJHe5RARmRoDQJix2+0497zhOPe84SgqKsQnH3+Ejz/6AD//9KPepWkiNbUhRpw/EheOuRg9e/XmSJ+IKEQYAMJYw4aNMPn6qZh8/VTs27cXXyz6HF8sWojNmzYaevFNWpMmOPvsczBy1AXo268/7Ha73iUREVkOA4BBpKdnYMrUGzFl6o0oLi7Cmm++xurVK/H1qlU4dOig3uWdVnR0NLp374GBgwZj0OAhaNe+g94lERFZHgOAAaWmNsToC8Zg9AVjAAD79u3Fpo0bsGnTRmzZtBFbt26Fx+PWrb6WLdPRvkNH9OzVGz169ESnzp257wERUZhhADCB9PQMpKdn/HXuvc/nw769e7F9+zbs2PEr9uzejQMH9uPA/v3Izz8Mny/4jfoTExPRomU60tMz0LJlOrKys9G2bR7a5rVDYmJi0NcnIiJtMQCYkMPhQGZWFjKzsjACI4/7Z36/H0VFRSgrK0VZaSlKS0tQUVEBj6duN6/KykpIfj9i4+LgdDrhsDsQFx+PhIQEpKSkICU1FcnJKdy3gIjI4BgALMZutyMtLQ1paWl6l0JERDriRkBEREQWxABARERkQQwAREREFsQAQEREZEEMAERERBbErwCIKGwU5OfjvffexqaNG1BUVARZlvUu6TgOux2N05qgX7/+uOzyK/g5LBkaAwARhYUP3n8P0++ZhpqaGr1LqddXXy7C8/9+Bi+/+gZ69uqtdzlEivAVABHp7vOFC3D7rTcZ4uF/VEFBAcaNvRjbtv6idylEijAAEJGuqqurcf/0u8Juuj8Q1dXVuG/63XqXQaQIAwAR6Wr5sqUoLCzUuwzF1q/7Hrt37dK7DCJhDABEpCszTKFv27ZV7xKIhDEAEJGuXC6X3iUErbKyQu8SiIQxABAREVkQAwAREZEFMQAQERFZEAMAERGRBXEnQCIylNimjQCbTXF/v9+H+nYckD1eeEsrFd+DyAgYAIjIUAa8PguRifGK++8/vL/eTYeqtu7GzhmvKr4HkRHwFQAREZEFMQAQERFZEAMAERGRBTEAEBERWRADABERkQUxABAREVkQAwAREZEFMQAQERFZEAMAERGRBTEAEBERWRADABERkQUxABAREVkQAwAREZEFMQAQEYWYz+9HSWmF3mWQxZnqOGCXy4X5n3yEDevXobDwCPx+v94lURhp2LAROnTshIsuvhSNGzfWuxyyKJerGqUVlfD4vHqXQhZnmgDw9epVuPnG61FYWKh3KRTG5n/yEZ6e/Q/MmPk4rrhyvN7lkIX4/RJKyipQU1urdylEAEwSAL5f+x2uumIsvF6P3qWQAVRXV+OuO28DAIYACglXdQ1KyyshSZLepRD9xfBrAHw+H6bdeSsf/iTskYfu54wRacrn9+NIUQmKS8v58KewY/gA8P3ab7F71y69yyADcrlc+HT+R3qXQSYky0Cly4XDBUWodXNwQuHJ8K8AfvrpJ71LIAP7mX9+SGVerxclpRVwe7nIj8Kb4QOA3+fTuwQyMC9/SZNKZFlGeWUVKqtckGW9qyGqn+EDQHZOjt4lkIG1yc3VuwQyAY/Xi0MFRfz0mAzF8GsAzho4GKmpDfUugwzI4XBg9OgxepdBJlBZVc2HPxmO4QNAbGwsHnrkUb3LIAOafP1UZGZl6V0GEZEuDB8AAOCSS8fi4RmzYLfb9S6FDGL8hEmYfv9DepdBRKQbw68BOOr6KTdg4KDBeP3Vl7Fh/TocOXIEkszvbun/paamomPHzhg/YRL6nNlX73KIiHRlmgAAALm5bfHPp57RuwwiIqKwZ4pXAERERCSGAYCIiMiCGACIiIgsiAGAiIjIghgAiIiILIgBgIiIyIIYAIiIiCyIAYCIiMiCGACIiIgsiAGAiIjIghgAiIiILIgBgIiIyIIYAIiIiCyIAYCIiMiCTHUcsCzL+H7td1i3bi1cLpfe5RhepDMSbfPaYcjZQxEbG6t3OXQMd8FeFCx4RXF/v98Ln7e2/vsc2qP4HlrZ8cZ8REQ6FfevdFVAlk/fxltUpvj6WnH9viWon7nP54bf56m3nb+iRPE9tOCtqsa2F+cp7i/LEipdVfW2q9l9UPE9jMo0AWDHjt9w841T8PNPP+pdiuk0btwYjz0xGyPOH6l3KfQnT+FBFC57T+8ydLH7w6/0LkEX1Xu2onrPVr3LCDlfdS12vrNQ7zJMyRSvAHb+/jtGjxzGh79Gjhw5gsnXTsQH71vzgUNEZEaGDwCyLOP2225CeVn4TdmZiSzLuPfuO3HooPWmyYiIzMjwAWDz5k3YtHGD3mVYQm1tLebNe0fvMshEPF4v3O7630sTkfoMvwZg8yY+/EOJYYuC5ff7UV1bC5erFh6vFx6fV++SiCzJ8AGgurpa7xIspaqq/tW0pExUZKTeJQTF6XTCbref9J9JkoTqGjdc1dVwe45/4Ec6jf3vDQBRkVHCfZwm+Pd2Kvwz63Qq/4ojXEQq+JmHG8MHgPT0DL1LsJSMjFZ6l2BaGa1ao7CwUO8yFEvPyIDNZvvr//dLEmpr3aiuqUWt2wP5FN/eNWvRMlQlaqZFerpwnyZNmsLhcMDn82lQUWi0UPiza27wn7nD4UDTps30LiNohl8DMGjwEH6jHkLDho/QuwTTGnH+KL1LCMqIEaPg9/tR6XKhoLAYBw8fQXFpOWpq3ad8+ANA/wEDFY8kw0GTJk2R166DcL/YuDj06tNXg4pC56xBZyvqN2jIOSpXElo9e5+J2Lg4vcsImuEDQIMGybj1tjv1LsMSevbqjfOGMQBoZfyESWidmaV3GYqkpTXBmMvG4WB+IUrLKv82zX86DRs1xhVXTdSuOI3dfPtdiIhQ9qt06k23GXYquVefvooDzBk9eqFv/7NUrig0IiOjMPWm2/UuQxWGDwAAcNMtt+Gq8RP1LsPU2nfoiFdee/O4KV5SV0xMDOa+Pc9wr7UaNmqM2c/MQXS08pm4yVNvxrARxpoBiYiIwI233IEhQ89TfI3snFzMfOIpREdHq1iZ9tp16IhHH58d1DUemfVPdOrSTaWKQiM6OhqPPjEbOW1y9S5FFSdfsfN3uQAuD/SiI0ddgNzctsoqUsBms2HoOeeiY6dOKDxSiPz8fEiSP2T3NyubzYY2bXIxZepNmP30s0hKStK7JNNLTknBpZddDrvdgfzDh1FeHr77W6SlNcHoMZdgxmP/DPqdrs0WgYGDz0brzGyUFBehqKgQkiSpVKm6oqOj0fvM/njg4VkYel7wM2KtWmdiyNDz4KqqQkFBPtxutwpVqs9msyEruw3GT7wG90x/OOgp8KioKAwbMQrJySkoKjyCstLS074q0lNiUhKGDD0Pjz7+FDrrEFr27N6FFcsWi3SZB+C3+hoFOpwbBeCzQO/88qtvYOSo0YE2V50sy6goL9ft/mYRGxdripXKRuZ2u1FbUxPy+/olP2rdXtS63XC7vX97GEdGRSIqSrtRqyRJcIXhFye2CBvi4xM0vUdNdXVYLgyMiY2Fw6HdunGfz4eaMPyqy+FwIEbndWbLly7G/fcIvXYYDWBBfY0M/xXAydhsNiQ1aKB3GURBi4qKQlSU9u+I/X4Jbo/nrwe+988HkMMZBYcz9O+oIyIikJCYGPL7hgO9HzZ6cTgclv2Z68WUAYCITk2WZfh8PtR66nbhc3s88PvDc7qdiLTDAEBkcn6/VLfjnscLj9eLWo8Xcpi+Xyei0GEAIDIRn98Pr8cLj9dX99D3ejm6J6KTYgAgMiBJkuD1+eH1+v78ywu3z8eRPREFjAGAKEzJsgy/X6ob1ft88Pn88HrrFuhxVE9EwWIAINLR0Qe83++H3y/B6/fB7/PD66v7e+H6XTQRGR8DAJHKZFmG5JfgkyVIfgmS3w+/JMMvSXUPekmC3+eHzy8B4AOeiPShSQDw+XzwCOwFTqQXWZb/9giWZfmvkXfd/w1IsgzIMiRZAmRAkiVIUl07SZLglyTIklz39/hQJyID0CQAlFVUIb+wWItLExERkQpMcRgQERERiWEAICIisiAGACIiIgtiACAiIrIgBgAiIiILYgAgIiKyIAYAIiIiC2IAICIisiAGACIiIgtiACAiIrIgBgAiIiILYgAgIiKyIAYAIiIiC2IAICIisiAGACIiIgtiACAiIrIgW4DtRgH4LNCLOhwO2GzMFkRERMGSZQk+n0+ky2gAC+pr5FBc0WkIFkpEREQhxmE6ERGRBTEAEBERWVCgASBZ0yqIiIhILQ0CaRRoAGgZRCFEREQUOgE9s/kKgIiIyIICDQD7Na2CiIiI1BLQMzvQAFAaRCFEREQUOmWBNOIrACIiIgtiACAiIrIgTXYCjIiIQOC7DBMREdGpyZAkSfWrahIALh07AR06dtXi0kRERJbyy89bMO/dN1S/Ll8BEBERWRADABERkQUxABAREVkQAwAREZEFMQAQERFZEAMAERGRBTEAEBERWRADABERkQUxABAREVkQAwAREZEFMQAQERFZEAMAERGRBTEAEBERWRADABERkQUxABAREVkQAwAREZEFOfQugIhCS5IkHDq4H+XlpbDZbEhKSkbTZi0QEcHxAJGVMAAQWYTbXYtvvl6O9evWoNrlOu6fxcXFo2fvfujXfwiioqJ0qpCIQokBgMgCCgsL8Pb/XkFxceFJ/7nLVYWVy7/Czz9uxpUTJqNhw8YhrpCIQo1zfkQmV1lZgTdff+GUD/9jFRUdweuvPo+KivIQVEZEemIAIDK5BZ++j/Ly0oDbV1aU4/MFH2lYERGFAwYAIhPLP3wQ27f9LNxv+7afUJB/SIOKiChcMAAQmdjWrT8q6ifLsuK+RGQMDABEJnakIF+XvkQU/hgAiEystrZGl75EFP4YAIhMLD4+QXHfuLh4FSshonDDAEBkYi1aZijum57eWsVKiCjcMAAQmVj7Dl3gcIjv9+VwONGufScNKiKicBFoAJA1rYKINJGYmITefQYI9zuz30AkJCZpUBERhUBAz+xAA4DQaiCv1yvSnIg0NPTckWjVKivg9q1bZ2PI2cM1rIiIRHg8HtEurvqbBB4AKkXu7HG7RZoTkYbsdjvGT5qKDh271tu2U+fuGD9pCux2ewgqI6JAKHimBvTMDvTloFAAKK8oE2lORBqLjIzE2HGTsPP3Plj3/TfY+fuvf83UOZ2RyM5pi95nDkBWVhudKyWiE4ls5f0nVQOA0J6ghUcKRJoTUYhk57RFdk5byLIMV1Xd74i4+ATYbDadKyOiUyksPCLaJaBdvAINAGUACgCkBdL4wIG9AV6WiPRgs9kQn5CodxlEFIBDB/eJND+Mumd2vUQ+A/wt0IaVFeUoLqr/6FEiIiI6tcIjBaLHcwf8rBYJAEIng2zb9pNIcyIiIjrBdvFnacAdRALASpEKfti8XqQ5ERERneCHLRtEuwT8rBYNAP5AGxcUHMbu3b8LXJ6IiIiO2rXzNxw5InQqpx/A6kAbiwSAMgBCUWTVisUizYmIiOhPCp6hGwAE/M2g6FkA74g03r1rB7Zv+1nwFkRERNa29ZcfsGfPTtFub4s0Fg0A7wEQ2pNw0cKP4XbXCt6GiIjImmpra/DF5/NFu3kAvC/SQTQAFAP4VKRDWVkJPv1knuBtiIiIrGn+x+8p2f1vAYAikQ5KNvzeBWAygIC3DjtScBjOyEhkZGQquB0REZE1rF61FN+v/Vq0mwxgPOo2AQqYkgCQD6AngByRTrt37UCDBilo2qyFglsSERGZ26aNa/HF558o6folgKdFOyk98msHgGshMAsAAL9u/wUx0TFomd5K4W2JiIjMZ803K7Bo4ceQZVm0qwTgCgie2QMoDwCHADQB0EO04+87tqOiohxZ2bk8cpSIiCzN6/Xgs/nv45uvlym9xMsAXlXSMZgjwJIB/AqgsZLOaWlNMfrCsUjPaB1ECURERMb0xx+7sGD++6Kb/RzrCIC2EPj2/1jBngE6EsBnSq9js9nQpWsPnDXoHDRsqChHEBERGUphYQFWrViMn37cpGTK/ygZwIWoewYrosYh4E8BuDOYC0RERCC3bQd0694TOW3aweEI9JRiIiKi8OfzefHbr1uxZfMG/PbrL8E8+I96BsAdwVxAjQDgBLAMwAAVroXIyEikZ2QiPaM1GjVKQ3JyKmJiYhEZFcVgQKrzeX3w+b16l0E6cNgdcDidepdBJuPz+eBxu1FTU43S0mIUHinAvn17sPeP3fB6hfbRO51vAQyG4MZ8J1IjAABAEoBVALqodD0iIiL6u20A+gMoCfZCagUAAGgGYA0AruojIiJS3z4AfQEcUONiolsBn84h1BX2k4rXJCIiorqv7gZApYc/oG4AAOq2IRwE4DuVr0tERGRV3wPoB2CvmhfVYieeGtQdG5wIoJcG1yciIrKKuQAuBVCh9oXVXANwMpcAeAVAA43vQ0REZCYVqDt4T+iIXxFa78W7DcD/AKQB6ATtAwcREZHRfQ5gBDR+na72GoCTyUfdMYVDAKwLwf2IiIiMaD3qnpUjAezX+mahCABHrQTQG8BQ1O0ZQERERMBqAOeibt3cilDdVM8p+QwAYwFcByBLxzqIiIhC7QCATwD8F8CPehQQDu/kbQDaoW7aYzCArgBaIjxqIyIiCpaMuin9Lagb4S9H3Rq5oA8ECEa4PmTjALRB3SxB/J9/JelaERnR2X/+FbDExAaIiY7VqBzSU01tNSoqykS7rUUQp62RZZUDqPrzr70AdgBw6VrRSYRrACAKVhKAPQCSA+3gdEbiwguuQFRklHZVkW7cHjfmf/qO6IEsbgDZUHH3NaJwEcpFgEShdCcEHv4AkJinvRUAAAfiSURBVNe2Ix/+JhYVGYW2uR2EuwGYrkE5RLpjACAzagDgZpEOTmck2rbtpFE5FC7a5XVGpHjIuxZAK/WrIdIXAwCZ0TQI7j6Z17YTR/8WEKlsFiASwD0alEOkKwYAMpsUKBj957XtqFE5FG7y2nZSMgtwDTgLQCbDAEBmcyfqDqIKmMJpYTIohbMATgD3alAOkW4YAMhMUiE4+lf4MCCDUxj6rgbQWoNyiHTBAEBmMg1AgkgHjv6tyemMRNtc4dc+TvCLADIRBgAyi1QAN4p0iIqK5ujfwtrlKVoLMBFApvrVEIUeAwCZxd1QMPp3OiM1KofCncLFn04A92lQDlHIMQCQGTQEMFWkQ1RUNHLbcPRvdQo//xwPzgKQCTAAkBkIj/7bt+sMp9OpUTlkFAo3gHICuF+DcohCigGAjE7R6L9NDkf/VEfhFtATUHdgGZFhMQCQ0d2LutMiA9a+XReO/ukvTmck8vKEZwHs4BcBZHAMAGRkaVD07r+9RuWQUeW17YSoqGjRblcByNWgHKKQYAAgI7sHQKxIhw7tu8Lh4OifjudwOJEnvhbADn4RQAbGAEBG1QTA9SIdoqNj0CaHo386uby2HREdFSPa7QpwFoAMigGAjOpeKBr9OzQqh4yubhZAeF8AO4AHNCiHSHMMAGRETQBMFukQExOLnOx2GpVDZtFW2SzA5QDaalAOkaYYAMiIpgMQ+i3doR1H/1Q/h8Op9IsAzgKQ4TAAkNE0BXCdSIeYmFjk5ORpVA6ZTdvcjoiOFp4FGAuAf8jIUBgAyGjug+Dov2P7brDbOfqnwDgcDrRTNgvwoAblEGmGAYCMpCmAa0Q6xMTEIjubr2dJTG4bRbMAlwEQXkVIpBcGADKSByA6+u/QnaN/ElY3C9BZtFsEeEYAGQgDABlFSwiO/uNi45GdxdE/KZPbpoOSWYBLAAi/PyDSAwMAGcV0AEIntnTo0A12u12jcsjsHA4H2rfrItqNswBkGAwAZAQtAVwt0iEuLh5ZmdygjYLTJqc9ZwHItBgAyAjuh+DovyNH/6QChbMANvCLADIABgAKd+kAJol0qBv9890/qSO3TQfExMSJdrsIgPAqQqJQYgCgcPcAgEiRDp06dEdEBP9okzrsdruSLwJsAB7SoBwi1fC3JIWzDAATRDrExSUgk+/+SWW5bdormQW4EIDw+wOiUGEAoHD2IERH/x05+if12e12tG+naBbgYQ3KIVIFf1NSuMoAcJVIh4T4RGS2bqNROWR1bXLaIzZWeBZgNIAzNCiHKGgMABSuHoLg6L8jR/+kIbvdjvZ5ir4I4EmBFJb425LCURZER/8JSchsnaNROUR1cnLaKZ0F6KFBOURBYQCgcPQAAKdIh04du8Nm4x9n0lbdWgBF6/q4LwCFHf7GpHCTBeBKkQ4JCUlo3Spbo3KIjpeTrWgWYCSAnhqUQ6QYAwCFm4cACB3f17nTGRz9U8jUzQJ0VdKV+wJQWOFvTQon2QDGiXRISEhCq4wsjcohOrmc7DwlswAjAPTSoBwiRRgAKJwIj/67dOrB0T+FnN1uR4f2nAUgY+NvTgoXOQAuF+mQlJSMDI7+SSfZWYpmAYaDswAUJhgAKFw8DMHRf6eOZ8Bms2lUDtHp1c0CdFPS9RGVSyFShAGAwkEOgMtEOiQlJSMjPVOjcogCk5Odh7i4BNFu5wHop0E5REIYACgczICilf8c/ZO+IiIi0KE99wUgY2IAIL3lQXD03yApBektOfqn8JCdlYd48VmAcwD016AcooAxAJDeHobgn0OO/imcREREoD2/CCAD4m9R68kBMBlAbwBpAOw61hIJoIVoJx74Q+FGlgFZlpR0PQSgVuVyRPgBFABYC+AVADt1rIVCjAHAWm4H8CQE99knIkvwALgLwL/1LoRCQ8/RH4XWtQDmgD9zIjo5O4BhAPYD2KJzLRQCnAGwhmQAuwE00LsQIgp7pQAyAZTpXQhpiy9TrWE0+PAnosAkAxildxGkPQYAa+igdwFEZCj8nWEBDADWILxhORFZmvDGBmQ8DABEREQWxABARERkQQwAREREFsQAQEREZEFCJ7CRNTRt1iJ0e+3LMmpqalBbWwO/3w9ZlkNzXyId2Gw22O12RMfEICY6BgjR/878fj8K8g+F5F5kHAwA9DfXXX8bIiMj9S6DiFRSVlaCp558RO8yKMzwFQAREZEFMQAQERFZEAMAERGRBTEAEBERWRADABERkQUxABAREVkQAwAREZEFMQAQERFZEAMAERGRBTEAEBERWRADABERkQUxABAREVkQAwAREZEFMQAQERFZEAMAERGRBTEAEBERWRADABERkQUxABAREVmQQ+8CKPy8+vKzsNlsepdBRCrx+/16l0BhiAGA/ubwoQN6l0BERBrjKwAiIiILYgAgIiKyIAYAIiIiC2IAICIisiAGAGuo1LsAIjKUCr0LIO0xAFjDL3oXQESG8rPeBZD2+LG3NTQAsBtAst6FEFHYKwGQCaBc70JIW5wBsIYyAHfqXQQRGcLt4MPfEux6F0Ah8wPqkv0Q8OdORH/nBv6vPTumARAIABjYHRe4wBAzegh6sIEKdkSQ8AN3Crq3rTpGh/ANC+B/5mqtlmoa3AKMd1dntVfX4BYAAAAAAAAAAAAAAAAAAAAAAAAAAAAAAAAAAAAAAAAAAAAAAAAAAACA1x4rEu3W7lC/YwAAAABJRU5ErkJggg==;" vertex="1" parent="1">
          <mxGeometry x="1425" y="142.5" width="90" height="90" as="geometry" />
        </mxCell>
        <mxCell id="afE-ISjAWiAgDgSf9kAT-41" value="" style="shape=image;verticalLabelPosition=bottom;labelBackgroundColor=default;verticalAlign=top;aspect=fixed;imageAspect=0;image=data:image/png,iVBORw0KGgoAAAANSUhEUgAAAIAAAACACAYAAADDPmHLAAAACXBIWXMAAA7DAAAOwwHHb6hkAAAAGXRFWHRTb2Z0d2FyZQB3d3cuaW5rc2NhcGUub3Jnm+48GgAAIABJREFUeJztnXd4VMXawH9nWwohCaSQAKEXUUERkBp6uQoaQBCxfjZURIp6vQpWBEVEFERBRLwIdiB06QoJHQSBIKGGBNJDett2vj82Wfbsnk02m91s4uX3PPs8OzPnnJndec/MO++8MyNQOXcATwGDgeZAPQfuuYnnKASuADuBb4CTzj7IB1gGGADx5qdOfgzAUsCbKuIL7K8FP+DmxzWffZheaBsEuUjge+BhywiNRkPbdu3w9w+wc8tNagN5ebmci49Hp9NZJ60EHreOlBOAPkCMZcTjTzzJpMlTqO/v77KC3sR9XM/K4stFC/l+1UrLaBFT3e63jFTK3D8H6FgeeGbC87z2xnS8vLzcUdabuAG1Wk3vPpEUlxRz4vjx8mgBky6w1vJauRbgOtAAwD8ggD2xB/D2rrIOcRMPotfpEEWRkpISBvXvS35+XnlSFhBsea3C6l5/yiof4K67utys/DqMt7c3ne+6yzIqCKhvGWEtAIGWAf+AmwpfXSfAtg4bWAasBUCCINgbJNykzlBJHVYoADf556OqqYwyMzLIzMokLTUVvV5PcHAwjcLCCQkJQamUG4xU7dl//XWCznd1oWHDhi4qsX1ycrI5cfw4rVq1plnz5tV61l8njpOSklLhNQEBAYSFh9OyZatq5SWH2wTAaDRy+OBBdu3awe5dO0m+dk32uvr+/vTr15+Bg4cwYMBAvH1kDVZ2SUtLZeSI4eTkZBMUHMyGzVvdKgRxp0/zxKPjKSwsRBAE3p05iwcfGu/Us77773I+nD3L4eubNGnK8Pvu46lnniUgILDyGxzALV3AvtgYxoyK4sknHmXVdyvsVj5Afl4emzZu4OUpLzF00AB+/ukHDAaDw3kd2LePnJxsALIyMzl86GC1y18RM995i8LCQgBEUeSDWTPJzc1x6llbNm+u0vXXrl1l6ZLFDBnYny2bNjqVpzUuFYD8vDxemPAMzzz5BH+fiavy/RkZ6bz71ptEDb+HixfOO3SPtclTxgTqMs7Fx3Py5F+SuNLSUjZt2ODU8/R658qan5fHqy9PZcmXXzh1vyUu6wISLl9m4nPPcvnyJZs0jUZDj569aNGyFaGNQlGr1aSnpZOcfI39sbE2b9DFixd4aOwDzPt0Af36D3BVEavN2jW/ysZHr13NI4/ZmNmrhEajYcZb78imZWVlcuzoUQ4e2G9uHUVRZOFn82ncpAn3R410Ol+XCEDC5cuMf3CMuSkup1mzZkycNJnBQ4dRr568G4HBYODQwQMs/mIRR48cNscXFBTw4vMTmL/gc4YO+5crilktdDodG9evk02LO32ac/HxtGvf3unnK5WqSnWJixfO89qrr3Am7jRgEoJZM98lsm8/GjRoUOG99qh2F5Cfl8fE556VVL5SqWTaK/9m09YdRI0abbfyy6/t1bsPK3/4ic+/WCwxPhkMBl7/96uc/ftMdYtZbfb8vpvr16+bw9YW0ui1q6v1fBGx0mtat2nLqh9/4vaO5qka8vPyWLZ0idP5VlsA/vPvVyTNfr169fjyq6+Z8PwLqNXqKj1r8NBh/LI6WjLcKS4uYuLzE8yKl6dYs1ra/P9n+gzJ8HXj+nXo9Xq3l8PHx5eP5s1HpbrReG/ZvAlRrFyA5KiWAOyLjeH33btuPEyhYN6nC+jbr7/Tz2zeogXLvl1BUFCQOS4lOZnly76uTlGrRUZGOjF795jDQUFBjBk7TvI7s7Ky2PPH785nUoUKbNWqNb37RJrDqSkpXElIcCpbpwXAaDQyf97HkrjJU1+m/4CBzj7STOMmTfh04SKJKfq/y5eRmZFR7Wc7w4Z10ZKh6Yj7o1CpVIx+YIzkuui1a5zOo6pv8B2dO0vCKSnJTuVrLQAZQH55ICIiwu6NRw4fMisjpmub8dQzzzpVCDm63d2de4ePMIeLior4+acfXPb8qrB2tbR/H/3AWAD6DRgoMTrt+X03WVlZNVImH2+pwaykpMSp51gLQDEwJrBBg+PjHnq4wgrdvXOnJPzCpElV7vMrY/K0VyStwC6rPGuCE8f/5NKli+Zwx06dzNq+Wq1mxH1R5jS9Xs+mDeudysdoNFbpeuvhdmhoI6fylesCtu8/dGzqu+/PwsfH1+6Nu3fdqAyNRsOQoa4fqjVr1oyOHTuZw3+fiePq1SSX51MRa9dI3/5RZW//jfADkrCzo4GqdAElxcXs2rnDHPb29qZlK+fmCZzSAbKzsyUV0e3u7vj5+TlVgMroP2iQJPz3mZobEpYUF/Pb5k3msJeXF8MtuiWAWzrcSodbbzOH48+elXSNjlIVAVi0cAFZmZnmcO8+kfj62n9ZK8IpAUhPS5OEW7du41TmjmD97LTUVLflZc32bVspKCgwhwcPGSrrJGPbCjivDFaEKIp8/dUSln9zY0QkCAJPPu287uWcAKRLBSAkNMTpAlRGaGioJJyRke62vKyxHvuPHjNW9roR90VJ9J9NGzag1WqrlJe9FsBgMJCWlsqWTRsZ/+AY5s+bK7n2vqiRdOnatUp5WSJrCl618rtmI0eNon79+nLJNrN1SqX73ArUao0k7M7JHkuSkhI5cviQORzeuDE9evaSvbZBgwb0HzCQHdu3ASZ/gd9372LYv+5xOD+j0UiHtlXrx2/v2JH3Zjo+nSyHXAuw4oP33105sG9vTp86JXtTSEjNvZVpadImv1GjMLflZUn0mjWSN23kqAdQKOw3mKOsbQJrqmcaroy+/fuz/L8rq+w/YY31LwqhbPVIQUEBq3/5WfYm6yb/apL7NHNrrT8kxH3dTTlGo5F10Tf6cUEQbPp5a/r260+wRdliY/a65cUICw9n1ocfsfirZS5ZqGPddkvEqaRU3rgQHBxCYGAD8wTQwQP70el0LrcDAMTs2SMJt2nbzuV5WHPwwH5Skm9Y1rrd3Z2IiGYV3qNUKrk/aqTZZG0wGNiwLpqnn33OoTyVSiV3d+8hmxYUFER448b06h1Jt7vvrrYLnSVOdd4KhYJ+AwawPtq0yCQ/P58D+/dVaw5AjrzcXA4dPGAON2nStFpTro6y1kr5e8CO8mfNqNFjJHMWa3791WEB8Pb2ZvmKlZVf6GKc1t4GDR5iFgCALz5fSGTffi51JV+6ZLFE6Rs0ZKjLnm2PvNxcdu7YLon7dP48Fi1c4ND9CoXCbNW7fPkSJ/86Qac77nR5OV2F0wIQ2bcfYWFhpJaNy0/+dYKtv23hnnuHu6RgSUmJrFq5whxWKpUOv4nVYfPmTZSWlkriUivx2q2I6DVrarUAOD0b6O3tzaTJUyVxb01/nQvnHfPlq4iSkhKmTZ4kqYiokaNqpPmPtuP25SybN290eqKmJqiWP8DI0Q9IKqWwsJAXX5hAUlKi088sKipiyksTiTt9w5zq4+PLS1OmVaeoDnEuPp5TJ2/sqKJWq/EPCKjyx9JbKD8vT2K3r21Uy4KjVCr57PMvGDdmNPl5phWoiVeu8ODoUcxfsJCevXpX6XlJSYm8NPF54s+eNccJgsCHcz8mLDy8OkV1CGunzykvv8LTz0yo8nNi9u5hwtNPmsPRa1YzfMR91S6fO6i2S1jLlq34dMHnkqFJTk42T//f40yZNFHWS9ia3Nwc5n00h/vuGSapfICJkyZXyaLmLHq9XuL0WT6sc4befSIlAntg/75q6RHuxCU23N59Ilmw6Etee2UaRUVFgMm2vX3bVrZv28qtt93OwEGDaNWqNaGNwlCplGRmZpKUmEjM3j0cPnTQxp9OEAQmTprMiy9NrlJZrl5NknQf1oQ2CrWxZAL8sXuXxOmzb7/+stc5gkKh4P6okSxdshgwGZbWr4vmuRcmOvU8d+IyI/6gwUP48Zc1vPj8BBvr3Zm401WaIvXx8eXDuR879eYv/HQ+Cz+dbzddqVTy7sxZjHlwnCTeet7f2t2rqowaPYavv1piNidHr13NhOdfqHUrrl26Mqhd+/Zs2PIbk6dOq9AV3B5KpZLRD4xhy/adDld+RfZ5OQwGAyv+u1wSJ4oi+2JvbIsUFBRE/4GDrG+tEi1atuROC7+9KwkJJFmZzC3LXtXf4SpcnquPjy8vvPgS23b9wZRpr9CxU6dKpT4iohlPPPkU0Rs2M3vOXMLCHJ/w6XTHnVU2jd562+2SsCAItG13w8T84EMPS9yuneWRx54wf2/YsCEhIZLdWST2AU/ZCtw2jxsUFMTzE1/k+YkvkpaWStzp06SlppKRkYG2tJTQsEaEhjaides2kj+/qrRt144Vq35kzx+7HfKsDg4OZpzMCpwlS7/hxx++JygoiHHjH5a5s+qUa/7xZ/9m5OgHbFzsXnt9OhERzSgqKuThRx9zSZ7lGwM6ivWr2QzTNqMARI0azZy581xRrpvUEKIoorcwn8+Y/rr1krbmgNlQc3OHkH8YhiquTqqxHUJu4l5EwKjXV3mBibUAFFkGiouK+KeSlpbKsSNHAOjWvbvTY/7agGgUMRgMiKLt2oJi2zWVkghrAcgCSijbXfr0qZPotFqPDVHcQXZ2Np8v/Iy1q381G59UKhWjx4zlpclTnV5m7QlEAFG0+9YbjUbipPaXYkwbgZqRGz/1AdqAydGjcZMmtG9/C2JZRnX1o9Pp+GHVSqZNeYk/jx2TrMQxGo3EnT7Nml9/QaPR0OHWWxEEweNlruxT2bAneu0aNm2U7F6yA9NG4BUKgAEwm8H2799HREQEbWvAFctdHDp4gKmTJ7Fxw3qbuX5LSktL2Rcbw9atW2jatCnNW7SouUK6mM2bNjLr/feslcI3AcnePXIWGgVwALjbMrJ9+1vofFcXp1egeIK83FyOHDnMlSsJNmmCUsFtj/cEIO67A4gG2/6zefMWdOt2d53aMbWoqIg/jx3l3Ll466QDQG+szAT2THTNgIOA++dgPUDTPm2InD2KoNsaA5B9Pp2YN6NJ3HW2kjvrLClAd8DGfbsiG20LIBqovf5MVcSvSSA9pt/LLeO6yaZf3hZHzPRo8q7UzBLvGuI4MBpIkEusbGpKBTwJPAN0c+D6WomgEOgydRDdXhmG0qti04dBa+Dk0r3sn7kR0ejctiu1ABE4AnwNfItJr5OlKhUaCDQFatvJEaHAJOAerH+PIBDRrx39540loEWQ3L12yb+WTeyMdVzacsqeIMQAHwPObc3hPkoxNfW5jlxcJ9/oMnyBlzBptjZr00PvjCDyg1GE392yWpmk/5VEzPRoUg5dlksuBhYCs7HYWaUuURcFQADGAx9hapEk1AsPoNfbI2g/pkulW6U7jCgSv/oY+2duojBF9sW6CvwH+JGqTcZ5nLomAF2BBYDNMl2lRknnSQPpMnUwal+N7Z0uQFek5dhnOzm+aDcGrWy3uh+YAhx1SwHcQF2x8YYBy4FDyFQ+mJS3nIsZFGcWyCW7hJKsQnIuZtirfMrKdgjTYY3ukUIX47pVhu7BC3gV+BXTOLbCFut6fCpxKw5gKNXTqEtzlGrX/DxdkZaj87az/bmVZMZVqvMJQBcgDZMmXqupzQIwElgPPIjVyMMnyI8+s6JoO/ou0v9MRJt/Y+WNUW8k+cBFzv50BN/Q+gR3CHdeFxBF4tf8yZbHlpOwPQ6jXmot9GscSL+Px9BsQHvSjiWiL76xK4hKo9pnNBhjrB9Z26iNOsDtwKeYDquWoFAr6fRMH7q9OgyvANNKdl2Rlj8X7uL4ot/Rl9juHhLWrQV9PxhFaOeKl3dbk348kb3To0k9kmCTpvJW0/nFAdw1ZZBZ3yjNLebo/B2cW32MkDsiGPrlI5c0DXxfXxQ01bVrzVxMbRKAIOA94DlkHFWaD+5An1kjadBGft4+Pymbfe9t4MK6EzZpgkKg/YNd6fnWCOo1qnhThcK0PA7O2szZn4/Ijv/bRN1J73fvp36EY9PGAuIuUcG0RQ1fPoXJltIZOAbkVXxnzVAbBEAFPI+p8m3OemnQJpQ+s6JoPvhWhx6WfOAiMdOjyThle0qJup4XXV8ewp0v9EOpkcqYQavnxOI9HPt0B9oC2xnD4NubEPnBKJr0au1QOazQ517O/HFV9w+GikaxESa/i3eBJYD7d5iuAE8LwBBMzf1t1gleAT50e3UYnZ7pg6KKypxoFDnz/UEOzt4iOyrwbx5En5lRtBpu2nb90uZT7HtnA7kJmTbX+gT70WP6vdz6SHcEpfODpvjVx9jx/Crr6DhgGqZ5eo/gKQHwB/4LjLJOEJQKbn2kOz1m3ItPUPU2n9TmlXBk3jZOLouRHbo1jWwLgsDVveds0hRqJZ2ejeTuV4eh8a/+6am5CZn8GPmxRFG0IBr4PzzQLXhCAMKBvwGbSfYmvVoT+cEogm9v4tIMcy5mEPvmOhJ2OLbLaGX6hrNkxSWz9421XNt/US45F7gFqLmdMPGMAGwEJPutKlQKBn0+nvZjnd/w0BEStsex9akVsqMFMGn3w755gpbDbHoklxL/y1F2Tf7RZliJ6b+5362ZW+EJO8AbgGRra9Eoknk6Gb/GATRs7559ABN/j2ffOxsoTLPfyhr1RrLikgloFUJAy2C711WHixv/4sDsLZRky3pca4HFbsnYDp5oAQ5h5W5mibW3TnXJuZTBvrfWc3mb7TF25UqdnDtYy2G30fv9KAJbuWZfwqy4ZGJmRHM19kJFlx3GZPGsMTwqAIJSIfvnCwqBdmO60GdmFD7BzimCuiItxxft5thnuzBobUdaTXqbBE3ppbLrDqZQK+n4ZG+6v36P04pgSXYRRz7exslvYmV/KwrgRnSNC4AnuoBngSYACm81LX+YQPHpa+gth2ui6Y05s/IgggChnZuhcHQIJoqc/eUomx9ZRsL2MzZ/ul+TQPrOGU3k+1H4NvLHJ6ge7cd2JeSOCNKOXaE0t/jGo4wiaceuELfyIEqNikadIxAUjr0zRr2RM6sOsuWJ5VyLvWDjwq0K1RD0cCOKTxVY+utcA5Y59kNdg0dbAIWPhtsvzkHUG8n+6RCpH/2GPst23B7YOoQ+70fRYmjFylnan4nETF9L6tErNmkqHw13vTSALlMG23ULM2gNnP52H4fm/CaZXygnpKPJGNS4Z8XGoKt7zxEzYx1Zf9tuCyP4qvEf6E/9foEISoGrr19E1JqF43+rCygXgHIMOUWkfbKNrBX7EG01ZCL6tSNy9iga3iJVFAtTctn//ibifz1mu1hCEGhz/x30fu9+6jd1zHxbmJbH4Y+2cmbVQVlzcIuht9F3zmj8m0kNlzmXMjg4ewsX1tuaoxEEVD0boxnbliDxqjn6pgBYCEA5pRfSSX53Pfm7/7ZJs+yXFRolJ5fu5cgnO9AV2ppvQ++MIHL2KMK7O+cWln4iiZgZ8u5gKm81nSb0pevLQxAEOP7F73b1DWWHINTjO6CIqI9gNNAw98bGWTcFQEYAysn97RQpMzeglXHT9gn2Q6lRUpBs66JVLyyAnm8N55YHu1bfLUwUif+1zB0s1TYvvyaBGEr1siZnIcQXzbhbUHa5MeqtbQJQq5eHB9zTEf9BHchYuof0BTsxWrzlcn+40ktF54n9TW5h9VzkvCyYZhJbDe9ocgf78g8MpTfe8oJrMkfHeylR39cG9bAWoKrdTle1WgAABI2K0EmDaDC2G6kfbiZ79VGQ6ZeVGiX3//IcTXq75/widT0veswYTkT/9mwYu0TeLUwQUPVqjHpMe4TA2uY9L0/tFk8L1I38ifhsPG02TkHhY3sugUFrYOO4pRya8xu6oqqd1+MIuiIth+b8xsZxS2UrX/DT4P1mTzTPdKozlQ91SADK8e3cDE0z+UUe+hIdR+Zt5/seH3JuzZ9VOo/XLqLIuTV/8n2PDzkyb7vdeQQhQIOiVd1ZRFpOre8CKkPhowFRxGhRMQXJOWx/biWnvoklcvbIKruDlZN+PJGYGetIOSyzKESjBIMRDHVqGYANda4FsEbhq6H9vjdoMMZW4085fJlfhn7G1qdXyCtrdihMy+P3l3/h138tkK185R2h+MyKRPB1/RE5NU2dbwEA1OGBRCx8mIbju5P89jqK4yzcwUSRC+tPcGXHGTpPqtgSaNQZOLXcviVQ0dgP9fgOKG93z0yhJ/hHCEA59Xq2pu22l8lec4yUWRvRZ9xYrqcr0nJ47jbOfH9Idon45W1xxM5YJ+sWJtRTo45qg2pQc3BwLqCu8I8SAAAUAg3GdiXg3o5kLPmD9M93IWql4/adL/7A2R8PEzl7FAqNiti31nFlp63VEaWAamAz1CPb/iOaezk8KwCu0NLtoKjnRaNXhhE4srPJrLxLWsFXYy/w0wDTLqhy9n5lpxCT+Tas6pteVwkP65CeUALNMznGEh3pi6RvqKvxah1Ky5XP0nLVs3hZ+fiJRtGm8hXh9fCa1hWvaV3dWvmiXiRvVzaiTpJ/zRyLaoEnWgDJv5r6wWauf3+Q8LfvJ+Cejm7LtP7ADrSLbEfWt7Gkzd+OIa9Yki74WvTzSvf288WnCsnZkIk+y8am4ObmxhZPtAAZ1hHaK1lcefpbLj24mBKZOXRXIaiVBE/oR/t9b6Dws7DWeavwntMX1dAWbq1849V8SuYdJfPbFLnKB5n/xt14ogWw65VZEHue80M/oeGjPQh77R6UDdzzQqiC/FA1qGdeAST4qRHqu281t1igQ7f2HPo9SbLzGBbU+LoAjxqCBC8V3lbOHaLBSNaK/Zzt+QEZX+xG1Nldi1/7MYro/0ii5I296H9PtKl8VYgaQeXZYaVnBUChoO32V2k6dyyqhtK33ZBXTMrsTZwbMJe8nY4t6KhNGM5kUfL2PrQrTiMWSCenFD4KAkYEEfZaM4/bYj1uBxBUCho+2pOAEXfIuoOVXsog4fFl+EW2o/HMkXi7ad2AqxDTCtGuOYfhiMwCH0FA1SOc0Hu8UPrVjq0ZPCEAZvVb8L5hXFEG+tL4/VE0fNhkzi3YJ/WfL4g5x/mhnxD8TN/K+lGPIGqN6H4+i27nFZDxZyx3C1M28UWZW/lZijWFJwRgEdALQVCHPNvXJtG7Q2Na/TqRvB1xJL+9TuIOJuoMZCz+vVqrdN2FmFGEbqvtxJHQ0Bv16HaoepetdzTWLp3GEwKwGoi9Zf/005rmQXZ3b/Qfchv1+7Yn4yuTOdfSHczS17/WKoleStQjWqMe1hLUtU9gy/FUyVI1zYMqrTnBS0Xo5MG0j32Dho/2lJ2IMeQVk/DEMrSJ12We4B7E7BK0X5+0Ue4AEEDZLQyf2ZGoR7Su1ZUPtUAJdAR1I3+azh1L0KM9SX4rmsIj0qY2b8cZCmLOE/R0JI2mDJEaeVyJ1oBu5xV0Gy5Aqa38KloEoHmkA4o2defUkdotnlb4dGpK63WTUIfbul4ZS3RkfLGb+P4fkbPORe5g5YhgOJRC8Rt70f0aL1v5Qlg9vN/uVacqH+qYAAAgCCj9fSzC0mRdcg6JE1dxYfgCio4lVDs745U8Sj48SOmSE4jXbZ1EzMVQCp7fcMcJPCEA4cCPl8Z/FVjyd/U32lYG+hIw4g6b+KITiVyI+pykaT+hT6/6Ps5ibinab05R8t5+jOezbfPtGobgXfUeVPD0/K8VnhCAT4CHCvbEaxInfV/pxZUhKBQ0X/oErde8iM9tVlvLGEWyfz7M2V6zSftkG2KpA9POBhH9jgST+Tb2qk1Xomjsh9cr3fB6sbNTCp7KYP/MIk/gCSXQvLRWm+C6kzkqcgczFmlJ+2Qb2WuOEv7GCALus20xwGS+1X1/BmOyzDIvF7iFabSF+BXV6BZAlVInRgEOU+YO5j/sNtI/30Xm13slzibahCyuPLcCv5VtpfYDg0jpp0cxnJSZjVUKqCKbon6gHYKfczOGCqMOv6IM1DqbQxw9zj9LAMpQ+vsQPmMEDcfdLbvKuCD2vCQsZpdgyLZV8JSdQlA/1AFFuHPT0oLRgE9pNt6lOQhudH+rDp4QALMZTzQYEbV6BI17iuHVJpSWq54lf9ffJL+7ntKL6Q7dpwirZ7Lbd3J+fyDv0lx8izMRZI5zLUfUi5bbw4B1qAbwhBK4v/yLqNUT3/8j8raecmuG9Qd1oN3ufxP+TpR0CGmF4KtG89AteM+KdLry1boiAvMSqVeUXmHlF58qJPWjRJMQ3CDBqUyrgScEYL1lQJuQRcJTZe5gZ93rDhbynMkdrOGjPW3SVf0jTG5hw1o65xYmitQvTMG/4BrKCjR9XYqWjMXX5NzCREwnfNUonhCAvcAH1pHl7mDXZqzFkO0+ZUkV5EfTuWNRh92wJgqBXmieuL1abmFKow6N1v5pJcZCA9lrM0j9JImS88XWySIwFdjudAGcxFOWwBmYjnmT7M0m6o1kfRvL2d4fkrk8RnafIFchWG5A7fQmDg4odkaRgphcUj5MpCA2V86X4Sym/2Khk4WoFp40BW8FOmE6H0CyHsuQU0Tym9GcGzDXZkFHbUBlKCEgP6nCPh6g5HwxqZ8kkR2dgbHIZv4gB3gd08ms29xT0srx9FyADtMBS+0xvQGSf6n0YjqXH/uaS+OWUHIuzRPlk6AwGvArTCMgLwmV3v68gD5TR9aKVDIWX0OXYjNlbARWYvrNH2E66NFjeFoAyrmO6bi1jsi8DQUx5zg/ZB7Jb0VjyLP/x7sLQTTiU5JNg7wEvLT2PbdFrZHcbddJnZtI0V+y+sAfwF3A44BjY1I3U9sMQX8D/wLGYDqWtUV5gqgzkPlNDDkbTjhm03cRGl0hvsXpKA0V52ksNpIy+wqGfFk/lwTg35i8oWoVtaUFsGY1piZyKlZHsuoz8m2WdbkDlb4U//yr1C9IrrTyAQy5ernKL8J0FE4HamHlQ+0VADBtnb4A05+3Ejsqt7FUhy7Z8d0/KkMQjfgWpxOQn4Rab1/QDDl6xBK7SqCIqcztMJ0NVPP9loPUZgEo5xqmPrMXpo0UJRgLSomPnEPaJ9swyh/H4hAC4FOaQ4Pcy/iU5GJviCdqRfK2XSdlzhVrK145h8uRGNKFAAAB80lEQVTK+nhZ2Ws1tWN1gmNcBb4BLmHaTbN+eYKoN1B44CLZq4+ibuRvWjxSyQ6hmcv2mrsShY+K4B4KvLT59h02RCg6UUDm8hSK4wqtxiuA6ciX54DJZWWtE9QlASjnL0xDRwHohoUia8wvIXfzSQpiz+NzaxPUFZwRaCkASh8B/8j6dq/VXi0l67tU8vfkyDX7WkznGg+jDhwVa01d6ALkKACmY+pjV1onFh6+zPl7PiVp8g+y7mBGvR6DTn6/P8l1hQZyojNJ+yyJ0suy3fgmTDrKhLIy1TnqYgtgSR6mI9f2YDqRU7JwsORMMlnf7UfUGajXtQWCQkF+Sgopf56gdMt5KDJp9wofJfX7BprvEw0iBbG5ZH2bSumlYjl14CzwGPA+YOswWIeo6wJQTgKmbuES0BuLnTZEXZl+sPYYeXlpFJCHaDCg35EgKwAl54rIWp5K0bF8OSXvOqZDr54EbA8bvEmtIBCYg8nEKlp/lB2CRO/3+4hCsI85TtVQLYa/3kz07uBrc33ZRwd8BfxzNgj8H6ADpgkn2wpVCCIqhTksKAVTnHzlby171k3qKCOAeOQrt6JPPFYHXN6k7qIBXsE0BVtZxeeUXeu+TYNu4jFCMSmLBmwr3lCW5toDg29SK+mM6fTyq0AS8FlZ3P8c/w/Gd75KvbGGUgAAAABJRU5ErkJggg==;" vertex="1" parent="1">
          <mxGeometry x="1425" y="247.5" width="90" height="90" as="geometry" />
        </mxCell>
      </root>
    </mxGraphModel>
  </diagram>
</mxfile>
